<mxfile host="app.diagrams.net" modified="2024-07-21T09:01:25.117Z" agent="Mozilla/5.0 (Macintosh; Intel Mac OS X 10_15_7) AppleWebKit/605.1.15 (KHTML, like Gecko) Version/17.5 Safari/605.1.15" etag="ufiEr-bqdpHiojd6hbbR" version="24.7.1" type="github">
  <diagram name="Page-1" id="dMmm09FrQDuoMJi1P19V">
    <mxGraphModel dx="1132" dy="682" grid="0" gridSize="10" guides="1" tooltips="1" connect="1" arrows="1" fold="1" page="1" pageScale="1" pageWidth="850" pageHeight="1100" math="0" shadow="0">
      <root>
        <mxCell id="0" />
        <mxCell id="1" parent="0" />
        <mxCell id="liYTweL3QU-GpLGzBdbg-1" value="List(待导入客户)" style="swimlane;fontStyle=0;childLayout=stackLayout;horizontal=1;startSize=26;horizontalStack=0;resizeParent=1;resizeParentMax=0;resizeLast=0;collapsible=1;marginBottom=0;align=center;fontSize=14;" parent="1" vertex="1">
          <mxGeometry x="18" y="245" width="446" height="130" as="geometry" />
        </mxCell>
        <mxCell id="liYTweL3QU-GpLGzBdbg-3" value="Item &amp;nbsp;&lt;font color=&quot;#00cc00&quot;&gt;13918191200&lt;/font&gt;&amp;nbsp; &amp;nbsp; fields:{sysCode:&#39;c_name&#39; }" style="text;strokeColor=none;fillColor=none;spacingLeft=4;spacingRight=4;overflow=hidden;rotatable=0;points=[[0,0.5],[1,0.5]];portConstraint=eastwest;fontSize=12;whiteSpace=wrap;html=1;" parent="liYTweL3QU-GpLGzBdbg-1" vertex="1">
          <mxGeometry y="26" width="446" height="30" as="geometry" />
        </mxCell>
        <mxCell id="liYTweL3QU-GpLGzBdbg-2" value="Item &amp;nbsp;13918191200. &amp;nbsp; fields:{sysCode:&#39;c_contact&#39;,mobileCode:&#39;code_561&#39;&amp;nbsp;}" style="text;strokeColor=none;fillColor=none;spacingLeft=4;spacingRight=4;overflow=hidden;rotatable=0;points=[[0,0.5],[1,0.5]];portConstraint=eastwest;fontSize=12;whiteSpace=wrap;html=1;" parent="liYTweL3QU-GpLGzBdbg-1" vertex="1">
          <mxGeometry y="56" width="446" height="34" as="geometry" />
        </mxCell>
        <mxCell id="liYTweL3QU-GpLGzBdbg-4" value="Item &amp;nbsp;&lt;font color=&quot;#ff3333&quot;&gt;13918191222&lt;/font&gt;&amp;nbsp; &amp;nbsp; fields:{sysCode:&#39;c_name&#39; }" style="text;strokeColor=none;fillColor=none;spacingLeft=4;spacingRight=4;overflow=hidden;rotatable=0;points=[[0,0.5],[1,0.5]];portConstraint=eastwest;fontSize=12;whiteSpace=wrap;html=1;" parent="liYTweL3QU-GpLGzBdbg-1" vertex="1">
          <mxGeometry y="90" width="446" height="40" as="geometry" />
        </mxCell>
        <mxCell id="liYTweL3QU-GpLGzBdbg-31" value="" style="endArrow=classic;html=1;rounded=0;" parent="liYTweL3QU-GpLGzBdbg-1" target="liYTweL3QU-GpLGzBdbg-9" edge="1">
          <mxGeometry width="50" height="50" relative="1" as="geometry">
            <mxPoint x="92" y="34" as="sourcePoint" />
            <mxPoint x="232" y="-96" as="targetPoint" />
          </mxGeometry>
        </mxCell>
        <mxCell id="WBLi1INXIJSRg-8CLd7y-1" value="&lt;span style=&quot;font-size: 12px; text-align: left; white-space: normal; background-color: rgb(251, 251, 251);&quot;&gt;&lt;font color=&quot;#00cc00&quot;&gt;13918191200&lt;/font&gt;不存在，待导入&lt;/span&gt;" style="edgeLabel;html=1;align=center;verticalAlign=middle;resizable=0;points=[];imageWidth=90;" vertex="1" connectable="0" parent="liYTweL3QU-GpLGzBdbg-31">
          <mxGeometry x="-0.0182" y="2" relative="1" as="geometry">
            <mxPoint x="-20" y="-21" as="offset" />
          </mxGeometry>
        </mxCell>
        <mxCell id="liYTweL3QU-GpLGzBdbg-5" value="Table(联系人)" style="shape=table;startSize=30;container=1;collapsible=1;childLayout=tableLayout;fixedRows=1;rowLines=0;fontStyle=1;align=center;resizeLast=1;html=1;" parent="1" vertex="1">
          <mxGeometry x="291" y="34" width="180" height="150.75" as="geometry" />
        </mxCell>
        <mxCell id="liYTweL3QU-GpLGzBdbg-6" value="" style="shape=tableRow;horizontal=0;startSize=0;swimlaneHead=0;swimlaneBody=0;fillColor=none;collapsible=0;dropTarget=0;points=[[0,0.5],[1,0.5]];portConstraint=eastwest;top=0;left=0;right=0;bottom=1;" parent="liYTweL3QU-GpLGzBdbg-5" vertex="1">
          <mxGeometry y="30" width="180" height="30" as="geometry" />
        </mxCell>
        <mxCell id="liYTweL3QU-GpLGzBdbg-7" value="PK" style="shape=partialRectangle;connectable=0;fillColor=none;top=0;left=0;bottom=0;right=0;fontStyle=1;overflow=hidden;whiteSpace=wrap;html=1;" parent="liYTweL3QU-GpLGzBdbg-6" vertex="1">
          <mxGeometry width="30" height="30" as="geometry">
            <mxRectangle width="30" height="30" as="alternateBounds" />
          </mxGeometry>
        </mxCell>
        <mxCell id="liYTweL3QU-GpLGzBdbg-8" value="Contacts" style="shape=partialRectangle;connectable=0;fillColor=none;top=0;left=0;bottom=0;right=0;align=left;spacingLeft=6;fontStyle=5;overflow=hidden;whiteSpace=wrap;html=1;" parent="liYTweL3QU-GpLGzBdbg-6" vertex="1">
          <mxGeometry x="30" width="150" height="30" as="geometry">
            <mxRectangle width="150" height="30" as="alternateBounds" />
          </mxGeometry>
        </mxCell>
        <mxCell id="liYTweL3QU-GpLGzBdbg-9" value="" style="shape=tableRow;horizontal=0;startSize=0;swimlaneHead=0;swimlaneBody=0;fillColor=none;collapsible=0;dropTarget=0;points=[[0,0.5],[1,0.5]];portConstraint=eastwest;top=0;left=0;right=0;bottom=0;" parent="liYTweL3QU-GpLGzBdbg-5" vertex="1">
          <mxGeometry y="60" width="180" height="31" as="geometry" />
        </mxCell>
        <mxCell id="liYTweL3QU-GpLGzBdbg-10" value="" style="shape=partialRectangle;connectable=0;fillColor=none;top=0;left=0;bottom=0;right=0;editable=1;overflow=hidden;whiteSpace=wrap;html=1;" parent="liYTweL3QU-GpLGzBdbg-9" vertex="1">
          <mxGeometry width="30" height="31" as="geometry">
            <mxRectangle width="30" height="31" as="alternateBounds" />
          </mxGeometry>
        </mxCell>
        <mxCell id="liYTweL3QU-GpLGzBdbg-11" value="&lt;font color=&quot;#ff3333&quot;&gt;13918191222&lt;/font&gt;" style="shape=partialRectangle;connectable=0;fillColor=none;top=0;left=0;bottom=0;right=0;align=left;spacingLeft=6;overflow=hidden;whiteSpace=wrap;html=1;" parent="liYTweL3QU-GpLGzBdbg-9" vertex="1">
          <mxGeometry x="30" width="150" height="31" as="geometry">
            <mxRectangle width="150" height="31" as="alternateBounds" />
          </mxGeometry>
        </mxCell>
        <mxCell id="liYTweL3QU-GpLGzBdbg-12" value="" style="shape=tableRow;horizontal=0;startSize=0;swimlaneHead=0;swimlaneBody=0;fillColor=none;collapsible=0;dropTarget=0;points=[[0,0.5],[1,0.5]];portConstraint=eastwest;top=0;left=0;right=0;bottom=0;" parent="liYTweL3QU-GpLGzBdbg-5" vertex="1">
          <mxGeometry y="91" width="180" height="30" as="geometry" />
        </mxCell>
        <mxCell id="liYTweL3QU-GpLGzBdbg-13" value="" style="shape=partialRectangle;connectable=0;fillColor=none;top=0;left=0;bottom=0;right=0;editable=1;overflow=hidden;whiteSpace=wrap;html=1;" parent="liYTweL3QU-GpLGzBdbg-12" vertex="1">
          <mxGeometry width="30" height="30" as="geometry">
            <mxRectangle width="30" height="30" as="alternateBounds" />
          </mxGeometry>
        </mxCell>
        <mxCell id="liYTweL3QU-GpLGzBdbg-14" value="13918190111" style="shape=partialRectangle;connectable=0;fillColor=none;top=0;left=0;bottom=0;right=0;align=left;spacingLeft=6;overflow=hidden;whiteSpace=wrap;html=1;" parent="liYTweL3QU-GpLGzBdbg-12" vertex="1">
          <mxGeometry x="30" width="150" height="30" as="geometry">
            <mxRectangle width="150" height="30" as="alternateBounds" />
          </mxGeometry>
        </mxCell>
        <mxCell id="liYTweL3QU-GpLGzBdbg-15" value="" style="shape=tableRow;horizontal=0;startSize=0;swimlaneHead=0;swimlaneBody=0;fillColor=none;collapsible=0;dropTarget=0;points=[[0,0.5],[1,0.5]];portConstraint=eastwest;top=0;left=0;right=0;bottom=0;" parent="liYTweL3QU-GpLGzBdbg-5" vertex="1">
          <mxGeometry y="121" width="180" height="30" as="geometry" />
        </mxCell>
        <mxCell id="liYTweL3QU-GpLGzBdbg-16" value="" style="shape=partialRectangle;connectable=0;fillColor=none;top=0;left=0;bottom=0;right=0;editable=1;overflow=hidden;whiteSpace=wrap;html=1;" parent="liYTweL3QU-GpLGzBdbg-15" vertex="1">
          <mxGeometry width="30" height="30" as="geometry">
            <mxRectangle width="30" height="30" as="alternateBounds" />
          </mxGeometry>
        </mxCell>
        <mxCell id="liYTweL3QU-GpLGzBdbg-17" value="13918190333" style="shape=partialRectangle;connectable=0;fillColor=none;top=0;left=0;bottom=0;right=0;align=left;spacingLeft=6;overflow=hidden;whiteSpace=wrap;html=1;" parent="liYTweL3QU-GpLGzBdbg-15" vertex="1">
          <mxGeometry x="30" width="150" height="30" as="geometry">
            <mxRectangle width="150" height="30" as="alternateBounds" />
          </mxGeometry>
        </mxCell>
        <mxCell id="liYTweL3QU-GpLGzBdbg-18" value="Table(映射字段模版)" style="shape=table;startSize=30;container=1;collapsible=1;childLayout=tableLayout;fixedRows=1;rowLines=0;fontStyle=1;align=center;resizeLast=1;html=1;" parent="1" vertex="1">
          <mxGeometry x="540" y="35" width="260" height="150" as="geometry" />
        </mxCell>
        <mxCell id="liYTweL3QU-GpLGzBdbg-19" value="" style="shape=tableRow;horizontal=0;startSize=0;swimlaneHead=0;swimlaneBody=0;fillColor=none;collapsible=0;dropTarget=0;points=[[0,0.5],[1,0.5]];portConstraint=eastwest;top=0;left=0;right=0;bottom=1;" parent="liYTweL3QU-GpLGzBdbg-18" vertex="1">
          <mxGeometry y="30" width="260" height="30" as="geometry" />
        </mxCell>
        <mxCell id="liYTweL3QU-GpLGzBdbg-20" value="PK" style="shape=partialRectangle;connectable=0;fillColor=none;top=0;left=0;bottom=0;right=0;fontStyle=1;overflow=hidden;whiteSpace=wrap;html=1;" parent="liYTweL3QU-GpLGzBdbg-19" vertex="1">
          <mxGeometry width="30" height="30" as="geometry">
            <mxRectangle width="30" height="30" as="alternateBounds" />
          </mxGeometry>
        </mxCell>
        <mxCell id="liYTweL3QU-GpLGzBdbg-21" value="informationTemplete" style="shape=partialRectangle;connectable=0;fillColor=none;top=0;left=0;bottom=0;right=0;align=left;spacingLeft=6;fontStyle=5;overflow=hidden;whiteSpace=wrap;html=1;" parent="liYTweL3QU-GpLGzBdbg-19" vertex="1">
          <mxGeometry x="30" width="230" height="30" as="geometry">
            <mxRectangle width="230" height="30" as="alternateBounds" />
          </mxGeometry>
        </mxCell>
        <mxCell id="liYTweL3QU-GpLGzBdbg-22" value="" style="shape=tableRow;horizontal=0;startSize=0;swimlaneHead=0;swimlaneBody=0;fillColor=none;collapsible=0;dropTarget=0;points=[[0,0.5],[1,0.5]];portConstraint=eastwest;top=0;left=0;right=0;bottom=0;" parent="liYTweL3QU-GpLGzBdbg-18" vertex="1">
          <mxGeometry y="60" width="260" height="30" as="geometry" />
        </mxCell>
        <mxCell id="liYTweL3QU-GpLGzBdbg-23" value="" style="shape=partialRectangle;connectable=0;fillColor=none;top=0;left=0;bottom=0;right=0;editable=1;overflow=hidden;whiteSpace=wrap;html=1;" parent="liYTweL3QU-GpLGzBdbg-22" vertex="1">
          <mxGeometry width="30" height="30" as="geometry">
            <mxRectangle width="30" height="30" as="alternateBounds" />
          </mxGeometry>
        </mxCell>
        <mxCell id="liYTweL3QU-GpLGzBdbg-24" value="mapping:{sysCode:&#39;c_name&#39; }" style="shape=partialRectangle;connectable=0;fillColor=none;top=0;left=0;bottom=0;right=0;align=left;spacingLeft=6;overflow=hidden;whiteSpace=wrap;html=1;" parent="liYTweL3QU-GpLGzBdbg-22" vertex="1">
          <mxGeometry x="30" width="230" height="30" as="geometry">
            <mxRectangle width="230" height="30" as="alternateBounds" />
          </mxGeometry>
        </mxCell>
        <mxCell id="liYTweL3QU-GpLGzBdbg-25" value="" style="shape=tableRow;horizontal=0;startSize=0;swimlaneHead=0;swimlaneBody=0;fillColor=none;collapsible=0;dropTarget=0;points=[[0,0.5],[1,0.5]];portConstraint=eastwest;top=0;left=0;right=0;bottom=0;" parent="liYTweL3QU-GpLGzBdbg-18" vertex="1">
          <mxGeometry y="90" width="260" height="30" as="geometry" />
        </mxCell>
        <mxCell id="liYTweL3QU-GpLGzBdbg-26" value="" style="shape=partialRectangle;connectable=0;fillColor=none;top=0;left=0;bottom=0;right=0;editable=1;overflow=hidden;whiteSpace=wrap;html=1;" parent="liYTweL3QU-GpLGzBdbg-25" vertex="1">
          <mxGeometry width="30" height="30" as="geometry">
            <mxRectangle width="30" height="30" as="alternateBounds" />
          </mxGeometry>
        </mxCell>
        <mxCell id="liYTweL3QU-GpLGzBdbg-27" value="&lt;font color=&quot;#ff3333&quot;&gt;mapping:{sysCode:&#39;c_contact&#39; }&lt;/font&gt;" style="shape=partialRectangle;connectable=0;fillColor=none;top=0;left=0;bottom=0;right=0;align=left;spacingLeft=6;overflow=hidden;whiteSpace=wrap;html=1;" parent="liYTweL3QU-GpLGzBdbg-25" vertex="1">
          <mxGeometry x="30" width="230" height="30" as="geometry">
            <mxRectangle width="230" height="30" as="alternateBounds" />
          </mxGeometry>
        </mxCell>
        <mxCell id="liYTweL3QU-GpLGzBdbg-28" value="" style="shape=tableRow;horizontal=0;startSize=0;swimlaneHead=0;swimlaneBody=0;fillColor=none;collapsible=0;dropTarget=0;points=[[0,0.5],[1,0.5]];portConstraint=eastwest;top=0;left=0;right=0;bottom=0;" parent="liYTweL3QU-GpLGzBdbg-18" vertex="1">
          <mxGeometry y="120" width="260" height="30" as="geometry" />
        </mxCell>
        <mxCell id="liYTweL3QU-GpLGzBdbg-29" value="" style="shape=partialRectangle;connectable=0;fillColor=none;top=0;left=0;bottom=0;right=0;editable=1;overflow=hidden;whiteSpace=wrap;html=1;" parent="liYTweL3QU-GpLGzBdbg-28" vertex="1">
          <mxGeometry width="30" height="30" as="geometry">
            <mxRectangle width="30" height="30" as="alternateBounds" />
          </mxGeometry>
        </mxCell>
        <mxCell id="liYTweL3QU-GpLGzBdbg-30" value="mapping:{sysCode:&#39;intended_campus&#39; }" style="shape=partialRectangle;connectable=0;fillColor=none;top=0;left=0;bottom=0;right=0;align=left;spacingLeft=6;overflow=hidden;whiteSpace=wrap;html=1;" parent="liYTweL3QU-GpLGzBdbg-28" vertex="1">
          <mxGeometry x="30" width="230" height="30" as="geometry">
            <mxRectangle width="230" height="30" as="alternateBounds" />
          </mxGeometry>
        </mxCell>
        <mxCell id="liYTweL3QU-GpLGzBdbg-32" value="" style="endArrow=classic;html=1;rounded=0;exitX=0.589;exitY=0.467;exitDx=0;exitDy=0;exitPerimeter=0;" parent="1" edge="1" source="liYTweL3QU-GpLGzBdbg-3">
          <mxGeometry width="50" height="50" relative="1" as="geometry">
            <mxPoint x="310" y="280" as="sourcePoint" />
            <mxPoint x="695" y="111" as="targetPoint" />
          </mxGeometry>
        </mxCell>
        <mxCell id="liYTweL3QU-GpLGzBdbg-36" value="&lt;h1 style=&quot;margin-top: 0px; font-size: 14px;&quot;&gt;&lt;font style=&quot;font-weight: normal; font-size: 14px;&quot;&gt;导入客户&lt;/font&gt;&lt;/h1&gt;&lt;p style=&quot;&quot;&gt;&lt;span style=&quot;&quot;&gt;1. &lt;/span&gt;&lt;font style=&quot;font-size: 12px;&quot;&gt;客户&lt;/font&gt;&lt;span style=&quot;font-size: 12px;&quot;&gt;13918191222已存在，直接忽略。&lt;/span&gt;&lt;/p&gt;&lt;p&gt;2. 客户1391819200不在Contacts，则新增客户Consumer&amp;nbsp;，&lt;span style=&quot;font-size: 12px;&quot;&gt;客户信息字段c_contact在templete有，新增&lt;/span&gt;c_contact 客户信息&lt;span style=&quot;font-family: &amp;quot;JetBrains Mono&amp;quot;, monospace; font-size: 9.8pt; background-color: rgb(255, 255, 255);&quot;&gt;CustomerInfo&lt;/span&gt;&lt;/p&gt;&lt;p&gt;&lt;span style=&quot;font-family: &amp;quot;JetBrains Mono&amp;quot;, monospace; font-size: 9.8pt; background-color: rgb(255, 255, 255);&quot;&gt;3.&lt;/span&gt;客户1391819200客户字段mobileCode:&#39;code_561&#39;在templete不存在，在repeat_mode=补充状态下，新增mobileCode:&#39;code_561&#39;客户信息&lt;/p&gt;&lt;p&gt;4. ‘活动’,&#39;渠道&#39;,&#39;标签&#39;对导入客户的逻辑？&lt;/p&gt;" style="text;html=1;whiteSpace=wrap;overflow=hidden;rounded=0;labelBackgroundColor=none;labelBorderColor=default;" parent="1" vertex="1">
          <mxGeometry x="454" y="394" width="384" height="261" as="geometry" />
        </mxCell>
        <mxCell id="liYTweL3QU-GpLGzBdbg-37" value="" style="shape=image;imageAspect=0;aspect=fixed;verticalLabelPosition=bottom;verticalAlign=top;image=data:image/png,iVBORw0KGgoAAAANSUhEUgAABEIAAAJECAYAAAASS4FeAAAMPmlDQ1BJQ0MgUHJvZmlsZQAASImVVwdYU8kWnluSkEBCCV1K6E0QkI6UEFoAAamCjZAECCXGQFCxI4sKrgUVEbChqyKKrgWQtSKKbVHsfVFEQVkXC3blTQrosq9873zfufPfM2f+c+bcuXPvAKB6kiMSZaNqAOQI88QxIQGMiUnJDFIPIABtQAY0oMnh5oqY0dERAMpQ+3d5dxMg0vaavZTrn/3/VdR5/FwuAEg0xKm8XG4OxIcAwKu5InEeAESp3WxmnkiKoQJNMUwQ4qVSnC7H1VKcKsf7ZT5xMSyIWwFQUuFwxOkA0K5AOyOfmw45aP0QOwp5AiEAqgyIfXNypvMgToHYGvqIIJbye6T+wJP+N87UYU4OJ30Yy+ciE6VAQa4omzP7/yzH/5acbMlQDEuoKhni0BjpnGHdbmdND5diFYj7hKmRURBrQPxBwJP5Q4xSMiSh8XJ/1ICby4I1g08aoI48TmA4xAYQBwuzIyMU9tQ0QTAbYrhC0FmCPHYcxLoQL+XnBsUqfLaIp8coYqENaWIWU2E/xxHL4kpjPZRkxTMV/K8z+GwFP0YryIhLhJgCsXm+ICESYhrEDrlZseEKn3EFGazIIR+xJEaavznEMXxhSICcH8tPEwfHKPxLcnKH5ottyRCwIxX4QF5GXKi8PlgrlyPLH84Fu8IXMuOHePi5EyOG5sLjBwbJ54718IXxsQqeD6K8gBj5WJwiyo5W+OOm/OwQqd0UYpfc/FjFWDwhDy5IOT+eJsqLjpPniRdkcsKi5fngq0AEYIFAwAASqKlgOsgEgva+xj54J+8JBhwgBumAD+wVlqERibIeIbzGggLwJ0R8kDs8LkDWywf50P512Cq/2oM0WW++bEQWeApxDggH2fBeIhslHI6WAJ5Ai+Af0TlQuTDfbKjS/n9vH7J+tzChJUJhkQxFZKgOeRKDiIHEUGIw0QbXx31xbzwCXv2hOuMeuOfQPL77E54SOgiPCTcInYQ70wSF4hFZjgedkD9YUYvUH2uBW0JOVzwA94HskBnXxvWBPe4C4zBxPxjZFVpZirylVWGM4P7bDH54Ggo/siMZJeuQ/cnWI0fSbGmuwyzSWv9YH3muqcP1Zg33jIzP+qH6PNiGj/TElmIHsTbsFHYeO4o1AgZ2AmvCLmHHpHh4dT2Rra6haDGyfLIgj+Af8YaerLSSuY51jr2OX+R9efxZ0j0asKaLZosF6Rl5DCb8IvAZbCHXYTTD2dHZBQDp90W+ffVfln03ED3177aFtwEYlzA4OHjkuy3SCIDDRfD17/pus/oDbhNw/zu3iisR58ttuPRCgLuEKnzT9IARMAPWcD7OwA14A38QBMJAFIgDSWAqzD4DrnMxmAnmgkWgGJSCVWAdqASbwTawC+wFB0AjOApOgbPgIrgCboB7cPV0gxegH7wDnxEEISFUhI7oIcaIBWKHOCMeiC8ShEQgMUgSkoKkI0JEgsxFFiOlSBlSiWxFapFfkSPIKeQ80oHcQR4hvchr5BOKoSqoJmqIWqJjUA+UiYajcegUNB2dgRagRegKtAKtQfegDegp9CJ6A+1EX6ADGMCUMW3MBLPHPDAWFoUlY2mYGJuPlWDlWA1WjzXD53wN68T6sI84EafjDNweruBQPB7n4jPw+fhyvBLfhTfgrfg1/BHej38jUAkGBDuCF4FNmEhIJ8wkFBPKCTsIhwln4LvUTXhHJBK1iVZEd/guJhEziXOIy4kbifuIJ4kdxC7iAIlE0iPZkXxIUSQOKY9UTNpA2kM6QbpK6iZ9UFJWMlZyVgpWSlYSKhUqlSvtVjqudFXpmdJnshrZguxFjiLzyLPJK8nbyc3ky+Ru8meKOsWK4kOJo2RSFlEqKPWUM5T7lDfKysqmyp7KE5QFyguVK5T3K59TfqT8UUVDxVaFpTJZRaKyQmWnykmVOypvqFSqJdWfmkzNo66g1lJPUx9SP9DoNAcam8ajLaBV0RpoV2kvVcmqFqpM1amqBarlqgdVL6v2qZHVLNVYahy1+WpVakfUbqkNqNPVndSj1HPUl6vvVj+v3qNB0rDUCNLgaRRpbNM4rdFFx+hmdBadS19M304/Q+/WJGpaabI1MzVLNfdqtmv2a2louWglaM3SqtI6ptWpjWlbarO1s7VXah/Qvqn9ScdQh6nD11mmU69zVee97ihdf12+bonuPt0bup/0GHpBell6q/Ua9R7o4/q2+hP0Z+pv0j+j3zdKc5T3KO6oklEHRt01QA1sDWIM5hhsM7hkMGBoZBhiKDLcYHjasM9I28jfKNNordFxo15jurGvscB4rfEJ4+cMLQaTkc2oYLQy+k0MTEJNJCZbTdpNPptamcabFpruM31gRjHzMEszW2vWYtZvbmw+3nyueZ35XQuyhYdFhsV6izaL95ZWlomWSywbLXusdK3YVgVWdVb3ranWftYzrGusr9sQbTxssmw22lyxRW1dbTNsq2wv26F2bnYCu412HaMJoz1HC0fXjL5lr2LPtM+3r7N/5KDtEOFQ6NDo8HKM+ZjkMavHtI355ujqmO243fGek4ZTmFOhU7PTa2dbZ65zlfP1sdSxwWMXjG0a+8rFzoXvssnltivddbzrEtcW169u7m5it3q3Xndz9xT3avdbHpoe0R7LPc55EjwDPBd4HvX86OXmled1wOsvb3vvLO/d3j3jrMbxx20f1+Vj6sPx2erT6cvwTfHd4tvpZ+LH8avxe+xv5s/z3+H/jGnDzGTuYb4McAwQBxwOeM/yYs1jnQzEAkMCSwLbgzSC4oMqgx4GmwanB9cF94e4hswJORlKCA0PXR16i23I5rJr2f1h7mHzwlrDVcJjwyvDH0fYRogjmsej48PGrxl/P9IiUhjZGAWi2FFroh5EW0XPiP5tAnFC9ISqCU9jnGLmxrTF0mOnxe6OfRcXELcy7l68dbwkviVBNWFyQm3C+8TAxLLEzoljJs6beDFJP0mQ1JRMSk5I3pE8MClo0rpJ3ZNdJxdPvjnFasqsKeen6k/Nnnpsmuo0zrSDKYSUxJTdKV84UZwazkAqO7U6tZ/L4q7nvuD589byevk+/DL+szSftLK0nnSf9DXpvRl+GeUZfQKWoFLwKjM0c3Pm+6yorJ1Zg9mJ2ftylHJSco4INYRZwtbpRtNnTe8Q2YmKRZ0zvGasm9EvDhfvyEVyp+Q25WnCH/lLEmvJT5JH+b75VfkfZibMPDhLfZZw1qXZtrOXzX5WEFzwyxx8DndOy1yTuYvmPprHnLd1PjI/dX7LArMFRQu6F4Ys3LWIsihr0e+FjoVlhW8XJy5uLjIsWljU9VPIT3XFtGJx8a0l3ks2L8WXCpa2Lxu7bMOybyW8kguljqXlpV+Wc5df+Nnp54qfB1ekrWhf6bZy0yriKuGqm6v9Vu8qUy8rKOtaM35Nw1rG2pK1b9dNW3e+3KV883rKesn6zoqIiqYN5htWbfhSmVF5oyqgal+1QfWy6vcbeRuvbvLfVL/ZcHPp5k9bBFtubw3Z2lBjWVO+jbgtf9vT7Qnb237x+KV2h/6O0h1fdwp3du6K2dVa615bu9tg98o6tE5S17tn8p4rewP3NtXb12/dp72vdD/YL9n//NeUX28eCD/QctDjYP0hi0PVh+mHSxqQhtkN/Y0ZjZ1NSU0dR8KOtDR7Nx/+zeG3nUdNjlYd0zq28jjleNHxwRMFJwZOik72nUo/1dUyreXe6Ymnr7dOaG0/E37m3Nngs6fbmG0nzvmcO3re6/yRCx4XGi+6XWy45Hrp8O+uvx9ud2tvuOx+uemK55XmjnEdx6/6XT11LfDa2evs6xdvRN7ouBl/8/atybc6b/Nu99zJvvPqbv7dz/cW3ifcL3mg9qD8ocHDmj9s/tjX6dZ57FHgo0uPYx/f6+J2vXiS++RLd9FT6tPyZ8bPanuce472BvdeeT7pefcL0YvPfcV/qv9Z/dL65aG//P+61D+xv/uV+NXg6+Vv9N7sfOvytmUgeuDhu5x3n9+XfND7sOujx8e2T4mfnn2e+YX0peKrzdfmb+Hf7g/mDA6KOGKO7FcAg4qmpQHweicA1CQA6PB8RpkkP//JBJGfWWUI/CcsPyPKxA2AethIf+NZJwHYD9VyIeT2ByAKapw/QMeOHdahs5rsXCkVIjwHbHGSoqvGB8FIkZ85f8h7ZAukrC5gZPsvx9R6pHXJg0gAAACKZVhJZk1NACoAAAAIAAQBGgAFAAAAAQAAAD4BGwAFAAAAAQAAAEYBKAADAAAAAQACAACHaQAEAAAAAQAAAE4AAAAAAAAAkAAAAAEAAACQAAAAAQADkoYABwAAABIAAAB4oAIABAAAAAEAAARCoAMABAAAAAEAAAJEAAAAAEFTQ0lJAAAAU2NyZWVuc2hvdJlGyjUAAAAJcEhZcwAAFiUAABYlAUlSJPAAAAHXaVRYdFhNTDpjb20uYWRvYmUueG1wAAAAAAA8eDp4bXBtZXRhIHhtbG5zOng9ImFkb2JlOm5zOm1ldGEvIiB4OnhtcHRrPSJYTVAgQ29yZSA2LjAuMCI+CiAgIDxyZGY6UkRGIHhtbG5zOnJkZj0iaHR0cDovL3d3dy53My5vcmcvMTk5OS8wMi8yMi1yZGYtc3ludGF4LW5zIyI+CiAgICAgIDxyZGY6RGVzY3JpcHRpb24gcmRmOmFib3V0PSIiCiAgICAgICAgICAgIHhtbG5zOmV4aWY9Imh0dHA6Ly9ucy5hZG9iZS5jb20vZXhpZi8xLjAvIj4KICAgICAgICAgPGV4aWY6UGl4ZWxZRGltZW5zaW9uPjU4MDwvZXhpZjpQaXhlbFlEaW1lbnNpb24+CiAgICAgICAgIDxleGlmOlBpeGVsWERpbWVuc2lvbj4xMDkwPC9leGlmOlBpeGVsWERpbWVuc2lvbj4KICAgICAgICAgPGV4aWY6VXNlckNvbW1lbnQ+U2NyZWVuc2hvdDwvZXhpZjpVc2VyQ29tbWVudD4KICAgICAgPC9yZGY6RGVzY3JpcHRpb24+CiAgIDwvcmRmOlJERj4KPC94OnhtcG1ldGE+ClZot/4AAAAcaURPVAAAAAIAAAAAAAABIgAAACgAAAEiAAABIgAAcTLjq9QkAABAAElEQVR4AezdB3wUxdvA8QdC6L333ovtFSti7x0VERABEQQVUXqv0kFARUGaiDQ7Yu8oNvSv0ot0CDWEGiCE8M4zuMddcpfcJXcQ2d98PnB3u7NzO989T/a5mWeynDJFKAgggAACCCCAAAIIIIAAAggggIALBLIQCHHBVaaLCCCAAAIIIIAAAggggAACCCBgBQiE8EFAAAEEEEAAAQQQQAABBBBAAAHXCBAIcc2lpqMIIIAAAggggAACCCCAAAIIIEAghM8AAggggAACCCCAAAIIIIAAAgi4RoBAiGsuNR1FAAEEEEAAAQQQQAABBBBAAAECIXwGEEAAAQQQQAABBBBAAAEEEEDANQIEQlxzqekoAggggAACCCCAAAIIIIAAAggQCOEzgAACCCCAAAIIIIAAAggggAACrhEgEOKaS01HEUAAAQQQQAABBBBAAAEEEECAQAifAQQQQAABBBBAAAEEEEAAAQQQcI0AgRDXXGo6igACCCCAAAIIIIAAAggggAACBEL4DCCAAAIIIIAAAggggAACCCCAgGsECIS45lLTUQQQQAABBBBAAAEEEEAAAQQQIBDCZwABBBBAAAEEEEAAAQQQQAABBFwjQCDENZeajiKAAAIIIIAAAggggAACCCCAAIEQPgMIIIAAAggggAACCCCAAAIIIOAaAQIhrrnUdBQBBBBAAAEEEEAAAQQQQAABBAiE8BlAAAEEEEAAAQQQQAABBBBAAAHXCBAIcc2lpqMIIIAAAggggAACCCCAAAIIIEAghM8AAggggAACCCCAAAIIIIAAAgi4RoBAiGsuNR1FAAEEEEAAAQQQQAABBBBAAAECIXwGEEAAAQQQQAABBBBAAAEEEEDANQIEQlxzqekoAggggAACCCCAAAIIIIAAAggQCOEzgAACCCCAAAIIIIAAAggggAACrhEgEOKaS01HEUAAAQQQQAABBBBAAAEEEECAQAifAQQQQAABBBBAAAEEEEAAAQQQcI0AgRDXXGo6igACCCCAAAIIIIAAAggggAACBEL4DCCAAAIIIIAAAggggAACCCCAgGsECIS45lLTUQQQQAABBBBAAAEEEEAAAQQQOGeBkHs+mBKU/oL72gRVj0oIIIAAAggggAACCCCAAAIIIIBAWgIEQtISYj8CCCCAAAIIIIAAAggggAACCJw3AgRCzptLSUcQQAABBBBAAAEEEEAAAQQQQCAtAQIhaQmxHwEEEEAAAQQQQAABBBBAAAEEzhsBAiHpuJQnTpyQf/75R2rVqpWOo0M7JDExUbJlyxbaQdRGAAEEEEAAAQQQQAABBBBAAAG/Aq4PhLz44osycuRIi9OzZ0/p2LGjXyjdmJSUJNdcc40sWbJENBiybNkyqVu3bsD6wez48ccfpXnz5rZq48aNPeeiGzZs2CC1a9eWGjVqSIMGDeSVV14JpskUdRYsWCB16tSRKlWqpNjnbFi3bp3zNNXHypUrS1RUVKp1tm/fLidPnky1Tig79f3KlCkTyiHURQABBBBAAAEEEEAAAQQQQMCvgOsDIYMHD5Z+/fpZnKFDh4oGQ1IrPXr0kBEjRtgq/fv3lwEDBqRWPc19X331ldx88822XuvWrWXq1KmeY/R5mzanV8259dZb5bPPPvPsC/bJzJkzRdstUKCAzJs3T2666Sa/h2bPnt0Gd/zu9NoYExMjpUqV8tqS8mm5cuVk27ZtKXekc0vZsmVl69at6TyawxBAAAEEEEAAAQQQQAABBBA4I0AgJJVAyP333y+7du06o2WeHThwQFauXGm3FSxY0O/0mKpVq4oGILzL2rVrZcaMGXbTVVddJXfddZd9nlogREeKvPXWW7aeBmsGDhxonwf7V0JCgh1JoiNYtOjICh1V0q5duxRNRCoQEh0d7XkvHUWjJUuWLD7TfXT6z6lTp+w+f/UJhFga/kIAAQQQQAABBBBAAAEEEAiDAIGQVAIh5cuXT9dIhAsvvFD++usvn8vz6aefyh133GG36fSb8ePH2+epBUJ0OoiOwNAyZ84c0VEhgYoGOfLnz59i99GjR6VVq1Z2NIizc8KECfLMM884L+2jEwjJlSuXtGjRwmff+++/L7t377bbQhkRogEh7yk3Oq1m48aNcuONN4r22yk6SuXrr7+WSpUq2elAzvZq1arZXCwEQhwRHhFAAAEEEEAAAQQQQAABBDIqQCAklUDItdde6wlEaEBBc4TkyZPHx1y3aS4P3e5MGdEkqpqXw7uEGghZs2aN1KxZ07uJVJ9Xr15d9JhApVevXjJs2DC7O0eOHLZuhQoV7GsdjaEjMTSvh27btGmTTzNXXHGF/Prrr3ZbKIGQ4sWLy5AhQzxt6Tns3bvX9uv555/3bB87dqysXr1aihYtKjo9ySl9+vSxARgCIY4IjwgggAACCCCAAAIIIIAAAhkVcGUg5Nlnn5Xp06dbu+PHj4tOIdGioyI0SNC7d2/p3r273ab7NKGq3qw3adLEM5LD7jR/6WiJRo0a2ZePP/64TJkyxdnl8xhqIOS1116T9u3b+7SR2ou0AiF6rOY30b68++67nqk5ul0DHzoaQ8t1110n3377rX3u/JXeQIhzfEYfCYRkVJDjEUAAAQQQQAABBBBAAAEEHAFXBkI0R8bkyZMdgxSPgwYNkr59+9rtOuJDp7osX75cdNqIBg10pINTrr76avnpp5/sy9mzZ8sjjzzi7PJ5DDUQojlEPv74Y9uGTinJly+fpz3NqbFixQr7Wrfrfh3J8eGHH3rqBHqi/Ui+0o13AlgdqTFmzBifw70DIdp/ZySJTyWvFzryIy4uzmtLyqeaCNbJGaIJYVNbIrhQoUI+I0VStsYWBBBAAAEEEEAAAQQQQAABBIITcGUgRFeG0aCFFk1+qn+0aPJTzbPRuXNnn2V0Fy5cKHfffbetoyNFhg8fbp//8ssvcuWVV9rnGozQhKiBlpYNJRDy22+/yeWXX27b1eCLTkfRc3OKTiPR6TdaUhuF4tRP7VFHxrRt21Y0uKLnrjk9nNEhznHadzXQoglkNVeJJjzVAJFznrpPj3VyiejrQEWDSzrtSKfk5MyZ0ydfSKBjdLsGoDRvCAUBBBBAAAEEEEAAAQQQQACB9Aq4MhDijRVo+dzFixf7JDzVVVv27dtnR2ZoHgsNBMyfP18WLVpkm7vtttt8ppvcfvvtdqSG816hBEI0meg333xjD9XEpW+88YbTjH384IMPbEBCX4wePdoGbnwqmBc6ymL//v3JN9tzbNmypU1C2rVrV9G2nKIBIu8cHc72N998M0UCVd3XpUsXGTVqlFPNJmV1VsbxbAzjEz1vZ0pTGJulKQQQQAABBBBAAAEEEEAAARcJEAgJkCxVp4hoPo30lvfee88TrNA2gg2EPPzwwz6rw+jIie+++87nNEaMGGHzfehGnT7jrEbjXalkyZIplv7V/Z06dbL92rFjhx3NsnnzZnuYBhmmTZtmAzze7ejzQ4cOyWOPPSaff/65xMfHe3YnD4ToSjS6uk1a5dixY3LkyBFbTUe85M6dO61D7H6ddvTSSy8FVZdKCCCAAAIIIIAAAggggAACCPgTIBCSiQIhGoxYunSp/O9///O5Vpq8VJOYOkWXw3VGXuiKNcmnsmi9tAIhWmflypVy5513io520TbTKrpyzu+//+7J7aHLC+sSuaEW71E4r776qjz55JOhNkF9BBBAAAEEEEAAAQQQQAABBNIlQCDEKxCiN+gVK1a0S+FqQlDNxeFdli1bJocPH7bJQjXQkDVrVu/dPs8bNmwoutqJU4IZEVKuXDnZunWrc4jnMfmoEM3NoQETHU2h5+PvPLQdXQ5Xi06z0VwiWpwRIfaF+UvPy1k1x9mW1qMmL9X+pVb+/PNPuemmm/xW0dEgulqPlrx589rVevxWNBu/+uorufjiiwPtZjsCCCCAAAIIIIAAAggggAACIQkQCPEKhOjyuRoUGDdunOgSu8mLrraiq7VofhBNDFqlSpXkVQK+DiYQ8uijj4pOVdG8I0OGDLH5P5w8H86oEA2AaCBEiwYIko8e8XcCOn1GV6HRkjwQoqM6/AVf/LXjbNNVZH7++Wfnpd/HJUuWyGWXXeZ3XygbNXFs/fr1QzmEuggggAACCCCAAAIIIIAAAggEFHBtIERHUuhoA10q9scff/QB0kBI7dq1fUZKbNy4UTQHhpbq1avL2LFjfY5J/qJAgQLSoEEDz+ZgAiGtW7eWYcOG2QSkmoRUn+tStFqcUSHPPfecDdToNt2vS9+mVc51IKRRo0by7rvvpnWanv1Nmzb15BohEOJh4QkCCCCAAAIIIIAAAggggEAYBFwXCImLi5MHH3zQBj+STwnRpVx1Cknv3r3lggsukL1796ab+NJLLxUdFeGUYAMhU6dOdQ6xiUk1B4cmNtWiyUqbNWtmz0unxehIjiJFinjqB3qSWiBkwoQJdnTLyy+/bA/X0Rf33HNPiqY0n4iTCFWX0NVksKkV7xEheo7Ocr+pHePsW7NmjezZs8e+JBDiqPCIAAIIIIAAAggggAACCCAQDgHXBUJOnTolJUqU8NxoeyPqdBQNgmgpVqzYOQ+E6HlMmjTJk0xUAwqxsbG62QZspkyZYp+n9VdqgRDnWCfviOb/0ASsBQsWdHaJml199dWe6TDONB1PBT9PvAMh2bJlC3plGG1Kk7KeOHHCtkogxA8umxBAAAEEEEAAAQQQQAABBNIt4LpAiErpErU6VUOTeepN/hdffGEBhw4dKj179rTPR44c6Vnidfz48XLgwAGblLRz5842Samt9O9fo0ePtqM3ChcuLE8//bTdWqZMGWnbtq2nWvIRIS1atJC5c+faP9u2bbP1dGqM94gQ3ZiYmGin6WhOEu/y119/eXKFeG/39zyYQMhbb70lzZs3t4cnXxbXOxijI0Y0OJFW8Q6EhDo1Rke9zJ49274FgZC0pNmPAAIIIIAAAggggAACCCAQioArAyGrVq2yU0qKFy8u3ku5egdCHMS3335bGjdubF8+9dRT4kwhcfZrEOXWW2+1L9u3by8TJ050dvk86hK1+l5aoqOjPSMevCv5C4Tofu9z0Ne6Ysv333+vT4Mq/gIhunJLfHy8HfmijWjApU6dOrJ27VqbDFYDEU2aNJGvv/7aLrHrrPKiU2J0akxaxTsQoqNLQllmV0ek7Nu3z74FgZC0pNmPAAIIIIAAAggggAACCCAQioArAyHeQKkFQjShas2aNWX79u32EJ02owlTdWqNFs0xolNGfv/9d/v6hx9+8EmQajf++1eg1Vl0+Vh9Hy2BAiEjRozwSYqqARxN8FqtWrV/W0/9IXkgpE+fPja40bJlS8+0G21BV8TRFWH0fHQFHU3G2r9/f8/5tWnTRl5//fXU3+zfvd6BEJ0akydPnqCO00oaoGFqTNBcVEQAAQQQQAABBBBAAAEEEAhBgECI1/K5yUeEfPPNN6IrmOzatctDqjf1d999t2hQ4J133pHp06fbfTfffLNnio2nsteT559/Xl588UW7RZe91TY0KamOfLjlllvsdn+BED0nJ2+JV3NSsWJFGwzRKThpFe9AiCaK1YCHjop54IEHbB+8j3///fftdp0y5F0uv/xyOwolR44c3psDPvcOhDA1JiATOxBAAAEEEEAAAQQQQAABBM6yAIGQVAIhei101IdOB9EpLzriw1/R0Q7Lly+3wQl/+3WbBh90OosGQMqVK+eppkv4ahBFS/JAyMCBA2XAgAF2n/6lo0/++OMPOXbsmN2mS/zqOWluktSKdyDEu56u5KKrwXgXXYlGp/pooMQpWbJkkV9//VU0P0iwxTsQolNjqlSpEuyhNlmrru6jhakxQbNREQEEEEAAAQQQQAABBBBAIAgBAiFpBEK8Db/88ku7fK2ztKuzT6e36IiPTp06ia66EkrxFwjRIITmG/HOA3LffffJvHnzRJOu6kiOkydP2rfRYMjChQulUqVKAd9Wk5+OGTPGZ3+DBg1se6VLl7bbdalgnQqjAR8n0OJ9QO7cuW0fu3XrJvny5fPe5fe5dyBER5F4r0Lj9wCvjZqY1jkHAiFeMDxFAAEEEEAAAQQQQAABBBDIsIArAyE6HUWTg+pIDl0p5YMPPrCQGgjo0aOHD+qaNWvsqIv58+eLTpVxAhA+lf59kT9/funYsaMNGAQbEPEOhDzyyCNSuXJlGTVqlB2J4ryHJmvVVV10Wo6WGTNm2NEjzvQVXepXp7ToiBF/RXOa7N6927NLAyPa16ioKNs3bXvOnDly6NAhTx0NXrRr1872WUe7OEXfS1fDeeKJJ6RChQrO5hSP3oEQpsak4GEDAggggAACCCCAAAIIIIDAORJwZSDkzTffFF2+NnlZtGiRXHPNNTYIocEHTUgaGxubvJoNoOiIjQ4dOshHH30kmsw0JibGU09HTEybNk00H0daxTsQosEHZ3UWPU6npGhgRUdzaNDCu7zyyit2X1JSkt2sx2ow5Pbbb/euZp9r0GLKlClSoEABG0TR0SWar2TcuHGyZcuWFPV1xIkGY3SUiSYt1eWBNans0aNHPXWzZs1qp9BoAEXb3bFjhx2p4lTQhKvLli2zL3XqTo0aNZxdaT7qUsE6QkVLvXr1REfcOEWXPS5VqpTzkkcEEEAAAQQQQAABBBBAAAEEQhJwZSBEl2dNnrOibNmyNiigwQctmshUgxzeRUdAPProo3YKTJEiRTy7dBrH5MmTZdCgQTZwUrRoUZszxFldxlPRzxPvQIiOCNGpIOvXr5fq1avL1KlTA65Co03pSJZmzZrZVVY0aKF5PHTERvLy999/i64Qo8ldnX5r0ERHajhFl/S944477GgWXZ43eVEz7Z8uq+us6OI90mPTpk2pTs9J3l56X2/cuDHVXCzpbZfjEEAAAQQQQAABBBBAAAEE3CHgykCIXtpWrVrZEQ46kkJXbdEkpjq1xSmaD+Thhx+WG264QW666Sb7p2rVqs5uv4+a4FMTnGogwTvI4Lfyvxv//PNP6dWrl32lSUo154dOwdEkqTlz5kztULtPp6BocEYDG5r8NFDR4IUGO7xLkyZNbNBFR8doEEYDOGkVTaY6duxYm19E39tZtUbzekyaNCmtwzO8X6fr6AgUCgIIIIAAAggggAACCCCAAALpEXBtICQYLJ12olNAMnvRvCXJp84Ec84Z6Z/mWHFylgTzXtRBAAEEEEAAAQQQQAABBBBAIDMIEAjJDFeBc0AAAQQQQAABBBBAAAEEEEAAgbMiQCDkrDDzJggggAACCCCAAAIIIIAAAgggkBkECIRkhqvAOSCAAAIIIIAAAggggAACCCCAwFkRIBByVph5EwQQQAABBBBAAAEEEEAAAQQQyAwC5ywQkhk6zzkggAACCCCAAAIIIIAAAggggIC7BAiEuOt601sEEEAAAQQQQAABBBBAAAEEXC1AIMTVl5/OI4AAAggggAACCCCAAAIIIOAuAQIh7rre9BYBBBBAAAEEEEAAAQQQQAABVwsQCHH15afzCCCAAAIIIIAAAggggAACCLhLgECIu643vUUAAQQQQAABBBBAAAEEEEDA1QIEQlx9+ek8AggggAACCCCAAAIIIIAAAu4SIBDirutNbxFAAAEEEEAAAQQQQAABBBBwtQCBEFdffjqPAAIIIIAAAggggAACCCCAgLsECIS463rTWwQQQAABBBBAAAEEEEAAAQRcLUAgxNWXn84jgAACCCCAAAIIIIAAAggg4C4BAiHuut70FgEEEEAAAQQQQAABBBBAAAFXCxAIcfXlp/MIIIAAAggggAACCCCAAAIIuEuAQIi7rje9RQABBBBAAAEEEEAAAQQQQMDVAgRCXH356TwCCCCAAAIIIIAAAggggAAC7hIgEOKu601vEUAAAQQQQAABBBBAAAEEEHC1AIEQV19+Oo8AAggggAACCCCAAAIIIICAuwQIhLjretNbBBBAAAEEEEAAAQQQQAABBFwtQCDE1ZefziOAAAIIIIAAAggggAACCCDgLgECIe663vQWAQQQQAABBBBAAAEEEEAAAVcLEAhx9eWn8wgggAACCCCAAAIIIIAAAgi4S4BAiLuuN71FAAEEEEAAAQQQQAABBBBAwNUCBEJcffnpPAIIIIAAAggggAACCCCAAALuEiAQ4q7rTW8RQAABBBBAAAEEEEAAAQQQcLUAgRBXX346jwACCCCAAAIIIIAAAggggIC7BAiEuOt601sEEEAAAQQQQAABBBBAAAEEXC1AIMTVl5/OI4AAAggggAACCCCAAAIIIOAuAQIh7rre9BYBBBBAAAEEEEAAAQQQQAABVwsQCHH15afzCCCAAAIIIIAAAggggAACCLhLgECIu643vUUAAQQQQAABBBBAAAEEEEDA1QIEQlx9+ek8ApEVOHkySRJOnDB/EuVEQqLnuW6nIIAAAggggAACCCCAgDsEoqKySvbobOZPtERn18fTz3X7uSgEQs6FOu+JwHkukJh4UvbtPySHDsef5z2lewgggAACCCCAAAIIIJBegXx5c0vhgvkkW7ao9DaRruMIhKSLjYMQQMCfwKlTpyTuwGHZb/7o8yxZski0jfZmkxzZoyW7+aOP5yry6++c2YYAAggggAACCCCAAAKRFdAR4ccTzEhx88c+6ohx88e5ZyhYIK8UMn/0/uFsFAIhZ0OZ90DABQL6RbZz9z47DUa7mzdPLilcKJ9EZ8vmgt7TRQQQQAABBBBAAAEEEAhF4ERiouyLOySHjxy1h+l0mZLFC9sfUkNpJz11CYSkR41jEEDAR0CjujE7YyUpKcmO+ihWpIDkzJHdpw4vEEAAAQQQQAABBBBAAIHkAseOJ8ie2AN2tEjWrFmldMkidhR58nrhfE0gJJyatIWACwUST56U7TF7RR9z58pho7hna0ibC7npMgIIIIAAAggggAAC552ATpHR0eXxR49LtqgoKVO6qH2MVEcJhERKlnYRcInA9p175dixBMmZM7uULlHkrM3rcwkv3UQAAQQQQAABBBBAwBUCGgyJ2RXrubcoU7JoxPpNICRitDSMwPkvoElRY+MO2izPZUsVIwnq+X/J6SECCCCAAAIIIIAAAhET0KSq23bsEV2Fskih/KJJVCNRCIREQpU2EXCBgH45bdm+22Z61pEgucy0GAoCCCCAAAIIIIAAAgggkBGBo2Z6jI4M0en25csUj8jSugRCMnKFOBYBFwvsid0vBw/F29VhShQr5GIJuo4AAggggAACCCCAAALhFNi1J86uJpM/X24pVqRgOJu2bREICTspDSJw/gucNKvDbN66y44G0ShttFnqioIAAggggAACCCCAAAIIhEPgxIlEO/pcR4VUKFdCosxqMuEsBELCqUlbCLhE4OChI3aJK10lppSZFkNBAAEEEEAAAQQQQAABBMIpsMNMj9FVZIoVKSD58+UJZ9NCICSsnDSGgDsEdGmrI/HH7DA1Ha5GQQABBBBAAAEEEEAAAQTCKaDT8HU6fp7cOaVk8cLhbJpASFg1aQwBlwhs3rbLZnIuZ6bFZGdajEuuOt1EAAEEEEAAAQQQQODsCSSY6TFbzeIM2bJFSYWyJcL6xowICSsnjSHgDoENm2NMfhCRyhVK2WzO7ug1vUQAAQQQQAABBBBAAIGzJXDK3HBs2LzD3G/ofUfpsL4tgZCwctIYAu4QWL8pxna0SsXwfiG5Q49eIoAAAggggAACCCCAQDACkbrvIBASjD51EEDARyBSX0g+b8ILBBBAAAEEEEAAAQQQcLVApO47CIS4+mNF5xFIn0CkvpDSdzYchQACCCCAAAIIIIAAAuejQKTuOwiEnI+flkzQp6SkU5I1q5nMRTkvBSL1hXReYtEpBBBAAAEEEEAAAQQQSJdApO47CISk63KEdtDevbEyftwkueWW6+WahleGdnA6ay9bulIOHT4sV1xR329AIjZ2n7zxxlx5+uknJHv26KDfJSkpSTZt2iKVK1cMeMz33y+Wvn2GytUNrpBhw/oGrMeO/65ApL6Q/rsinDkCCCCAAAIIIIAAAgiEWyBS9x3nfSBk65bt0q/fsAxfj6JFC8uo0YPS1c6MGXPklZenmIBEVunR41m5v9Fd6WonlIM6PtNDfv55ifTt10Xuuef2FIc+27Gn/PTTbzZQcdPN16XY72/DCbN8Ua9eg2Xxj79It+7Pyn333ZGimmb2bda0raxbt0Had2gtrVs3S1GHDf99gUh9If33ZegBAggggAACCCCAAAIIhEsgUvcd530gZO3af8yNebsMX4dSpUvKggVvpbud2bPfkXEvvmaX/pnw0gi5/PL/S3dbaR24Y8cuue/eZpIzZ0759LP5kjt37hSHfPzxFzKg/wgzYuRSeenlESn2+9ug012mTZslr0+eKToy5MEH75HOXZ4y6zpn81T/6svvpGfPwfa1tp03bx7PvmCeDBrcS6Kjz7QXzDHUOfsCkfpCOvs94R0RQAABBBBAAAEEEEAgswpE6r4j0wVCdg8bLCfj4qTkkOGSJXv2DF8PJxBSqXIFefPNV0Nub9u2GGnycBvJaCBE3/jddz+S4cPGSYEC+WXWW5OkZMniIZ9PMAdMem2GTJnyptx3/53Su/fzfg85evSY3HrLA3L8+HH5cMHskM7lzz+XSZ/eQ2T37r1y0UV1ZcTIAVK4cCEbHGny8OOyceMWv+8ZzMYffvzEBHByBFOVOudQIFJfSBnp0j/rN5ig3qty6NAh6dWjq1StWiUjzXEsAggggAACCCCAAAIInGOBSN13ZLpAyJ7RIyRx104pNXKs2OETGYR3AiFVqlSSufOmhNza1q3bpdH9LcISCNE3795toHzzzSK57voGMmrUwJDPJ60Djh07bkaDNBfNATLTBH5q1aoe8JCBA0bIwoVfSCMzVadnr+cC1vO3Y+fO3fJUh67mpvOwTJo0VjTQ9NKEyTJz5jypVKm89OvfzVy+0JOl1qpVw29OE3/nwLZzJxCpL6T09uiXX5fI1GkzJDEx0TbRq2c3qUYgJL2cHIcAAggggAACCCCAQKYQiNR9R6YLhOwdP1ZO7IiRUsNHhwU+swVC4uL2mxEmj8u+fftl4qujpX79i8PST6eR6dNmy8SJU+1IjdenjHc2+31cs+YfebT5kzZgMXfuFBvM8FsxwEbtw/79+23i1M8+/Vr69h0qUVFRMn36S1Krdo0AR7H5fBCI1BdSKDaaj2bZshXy5dffyPLlK+xn7+TJk7YJAiGhSFIXAQQQQAABBBBAAIHMKRCp+45zGghJ2LhBosuWlSzRZ6bAxL76spyI2S4lBw87cyVMPorj6/+RHNUCj244U9n3mRMI0dEJ0dHBr47itHLqVJKcMElCwzE1xmnzww8/lSGDR0uNGlXtFBlne0YfDxw4aEeDHD58RDQIotNW0ioavNAgxlVXXSbjJ3iZp3Wg1/6VK9fIE206SUJCgvzf/10ol6YjuFO2bGm57bYbvVr1//TnX/6WVas3SM2aleSqKy7yX4mtEReI1BdSKCc+4aWJ8udff9tDihcvJq1btpDhI8fY1wRCQpGkLgIIIIAAAggggICbBE6eTDI/ImYNS5fD2Za/E4rUfcc5C4ScOpEguwaYpVVNgCLXRRdLrksvk+wVK8m+qZPlxPZtUqLfIEncvVuOLvlV4v9YIklm3n+xrj0kW/ES/nwCbnMCIZrQU1d+SW8pUaK4TJma+giLYNvWERs6ckNLOEeFjBnzisyd8540MMvWvjjuhaBOZ0fMTpP0tKUJYpyQkSbXx/U3XJPqcbrSTNWqlURvPJ3y7Tc/SPfuA+XOu26RHCavi+ZCCbVce+3VMnpM6qvyxMcfk5mzFniabt70LpOMNWUiWE8FnkRMIFJfSKGc8NBhI2XL1m3S4Oor5YFG94mOEHnqmedsEwRCQpGkLgIIIIAAAggggIBbBBITT8ovS/6S4sWKSPWqFTPU7bX/bJLde2LlivoXmQU0ojLUVqCDI3Xfcc4CIScPHJBDHy+Q46tXSdLRo7bf2YoVl1Nmjn9S/BGJLllKEjZvstuzmJEc2atWl3y33ibRZcoGMvK73QmEpDdHSPJGf/jhF9lm8obcfMt1JrBSJPnuoF43atRCdFlfLQ0bXiVjxp5eZSWogwNU+v33v0zOji5276y3Jku1apUD1Ey52cntoSu8aF6RcuXKpKxktnz//WLp1nWAFCpU0AYt6tat5an39dcm78l1V0u/vsPkiy++lSfbt5Lq1ava/SfNNdVRNTlz5fTUd56s/2eDvPLKVLnlluvlhaF9nM1+H/VGd868T+XgwcOSL18eadrkjnTlIfHbOBtDEojUF1IoJ/H330vNZ6ya5MqVyx4WHx9PICQUQOoigAACCCCAAAIIuFJg2Yq1Erf/oJQuVVyqVi6fLoN/NmyRmB27pVDB/FKvTugzN4J900jdd5yzQIin42baS8KmjXJs5XI5vmKFJO7dY3dlzZ9fctauY/9oEESDIekpTiCkcuWKMm/+1PQ04XPM6FEvy7x570u3bh3locb3+uwL5sW6teuladO2cuVV9eWfdRtsUtN33n0jYPAhmDYPHjwkjzR5wqziskcebfGwdOzYNsVhS5eukNomb4f3UrdOJR0N0qbNs7LKTHHRAMr0GS9LjhwpV27RKTeDB422yV6zm5Effft2kdtu953O0vGZHvLzz0vkjZkT7ftp8srevV6QzZu3yshRA6R8ed9AltbVY+6+5zbp16+rc0oBH7W9mJg9Urp08YhFHQO+OTs8ApH6QvK8QTqeEAhJBxqHIIAAAggggAACCLhOQKezLFu51v7AXK5sSalUwfceLS2QjZu3ydZtOyV//rxSr3b1sE2z8fe+kbrvOPeBEK/eHnh7nsT/9ouYZUPsNJnCbdtLFpN8MyNFl3Jt/FArkx8km8wxCUErVCiX7uZWr14nXbv0E10xZdLksXLJJReG3NZrr06XqVNnyeAhvWxwYMrrb5qpKfdI9x7PhtyWHpCUdMqsRNNfvvtusVSrXkXeeGOi7at3Y+tMwKXpI0/YJW7f/+BNyZ379C/o3nVizBSZ5s3a2VVgbrihoQwd1scmn/Su4zyfO/c9eXHsq3a53JatmkqHDq09IzNatXzaJK5cJfo+mvdDk1dOmjRD3pgxx/5yP2BAd7tijtOWnreaPvjQvWZ6TUdnM4+ZXCBSX0gZ6TaBkIzocSwCCCCAAAIIIICAmwQSzX3a0uVr5PDheKlYvoyUL1cqqO5v2bpDNpnZDZqi4IK65of2DN6vp/WmkbrvyDSBkCPffysHFy6Q3PUvl2wlS8rBjz6UXPUvk4KNH0nLJtX9Op1Cl5PVG30tufxMz0i1Aa+dR48es6+KFCksHy2ckyLg4FU14NMHH2gpu3btli++fE+OHTsmd935iA0ifLRwtp1yEvDAADuGDX1R3ntvoegIjTdnvWpXcEletU/vF+Tzz79Jc9TFokU/SZfO/WyuhWsaXinDh/c37fofiaN5QXr3HiIPN2kkzz7bzvOWDzR6TLZs2SbffPuhmb6S17Ndp+507zbARB0P2aSsmpxVi56Xnl+zZg9Kp+fae+rzJHMLROoLKSO9JhCSET2ORQABBBBAAAEEEHCbwAkz2v7vZWskPv6oVKlUTsqUTj0f5/aYXbJ+41b7w/qF9WpItMnDGekSqfuOTBEIObZiucS9MU2yFS0qRTt1sdNgNGnq8TWrJd8dJiHm9b7TL0LF/u23/8l7JoHnX38ttyMUQj3eqa/TSmqZoT/t27cOKQeHc7zm2NBAg3c+jKEmkPG+CWS0eeJRadeupVM1qMfx416TWbPeNgNossqw4X1FR3IkL9u2xZhEko+Zzafk7XdmpJiakrz+woVfmOkvo+xoj8sv/z+TC2Sw5MyZcpqMHqfTXZKPsLn1lgfMkroH5Jdfv/SMEnHeY+OGzTbw0e7Jlp59CxZ8aqfbtG7dTNqbkSWU/4ZApL6QMtJ7AiEZ0eNYBBBAAAEEEEAAATcKaJqEv5etlqPHjku1qhWkVIkzi2J4e+zYtUfW/bNZcpl7wwvr1Qz4g7n3MeF4Hqn7jnMeCNGlcmNfmSCnzNCcos908iRD1VVi9owdKUlHjkihFq0kZ9164XAMug2dcrJr5y7JYoIMJUsWD/q4QBV1ikiTh9vIpk1bbHJUTZKqRYMJDz3YysyvyicLP54bMOiQvF0dndKhfRdZsWK19OvfTe4yK7b4K86IkZtuvk6GDTOr9ARRNNmpJj2tbYI+r742xm++EO9m7ryjiYkixttNmkdEiyZeDaZoEtXjx4/b/5B0VIuuzjN33pRgDqXOORSI1BdSRrpEICQjehyLAAIIIIAAAggg4FaBY8cTbDDkuHmsWb2yWVHGd7XV3Xv2yeq1G8x9YXa5yARB9PFslUjdd5z7QMj27RI3Y6rkuaah5Gl4nY+nrigT99ZMKdS0ueSoVcdnX6RfHDhwUG668X57Q//td2eWbE3v++qSssOHjZNKlSvIXJOrREdxOKXz831Fp6V06PC4tGrd1Nmc5uMxE7VbYka76DQWf2Xv3li5955moglGNT+KJowNtixe/KtNdqorxKRV7rpTAyFHzWibJBsQiTLzxPzlIfHXjv7HlpCQYIMtOg2nhIlA6rlSMrdApL6QMtJrAiEZ0eNYBBBAAAEEEEAAATcL6A/tf5ucIfpDde0aVaRIkdP3gbGx+2XlmvU2LcSFJidIRlJNpMc3Uvcd5zwQohhJR+Mla06TwDNLlhQ2SWakQdbcuVNsT22DXsRvv/0htSpp7tMb+xHDx9sb9F69n/Nb/8YbG9r9fnd6bdS27r/vUdm3L04mvDRcrryyvtdesau1tGz5lFkFJdqubKNJRsNRXhgyRj744BO/uUF2mJwpOg2mdJmScued/keTpHUOOu1G/0PQnCla/vxzmbR9opOoy/AR/T2Haw6TCy+sI7qEcfLy6sRpMm3aW9K3Xxe5557bk+/mdSYViNQXUka6SyAkI3ociwACCCCAAAIIIOB2gSPmvnWpyRmiiVTr1q5mOVasWidRWaPkApMTJI+fRTcibRap+45MEQgJN57e5N9jRkJEunz62XwpWrRImm8zfvwkmfXmfLn66stl3PihfuuPGDFB3nn7Q7nsskvklYmj/NYJZaOuFNO8WVsbXHn/g5lSvLjvXC9dxrd58yftVJx586ela/rPM093lyVL/pTXXx8n9S6obZO26lScxx9vLk+2b2VPV1faeaxFe7tizIiRA0TzjngXZzliDZxoACWtsmHDNlmzbpPUqFbRjHApm1Z19kdIIFJfSBk5XQIhGdHjWAQQQAABBBBAAAEERA6ZVAdLl6+1C2ioRxYzWOGCutUlX5CpD8JtGKn7jvMyEKLTWia+MjVD10Cna+iICV129+67b/Pb1jMd26aZC+Ozz76Wvn2G2qVoNfdFxYrl/baluTV0RZnY2H0ycFAPueOOm/3WC3Zjhw5d7bQZXd72qace93uYLoE7e/Y7oiu4jJ8wzG+dQBs1kNK0aVspVaqEfPDhLDvVxwlqDB7cS267/UyC2x8W/Sx9+w41q+Qcl569npN77z0z8mPggBHW+aWXR8gVV1wa6O3sdp1GM3PWRzbhbVRUVnm02d1B51RJtWF2hiwQqS+kkE/E6wACIV4YPEUAAQQQQAABBBBAIJ0CBw4elmUr1tqj69WpLgXyn1kNNJ1NpvuwSN13nJeBkEDKmpTz55+WyHXXNwhUxbM9HDlCli1bKU+262xzYKQWkHDe1FlKVhOnTp02IWDQxKkf6FHzjWjekVKlS8p8M9oj0KoveuOowZc9e2Jl0KCecvsdNwVqMsX2fv2GyaeffGWXzm3+aGO73wm+zHzzValVq7rPMWvX/mOSu3a1AaF586dKwYIF7P6uXfrJd98tlmnTX5J69Wr7HJP8RWLiSRMIWWA8T9gAVYvm96RrCePk7fI6dIFIfSGFfiZnjiAQcsaCZwgggAACCCCAAAIIZERAV5HRoqvEnMsSqfsO1wRCkpKS5CkzSuL33/+SZs0elI7PPmlGMaTMSeJc5IwGQnbs2CUtH3vK5gXRwMuIEQNSfT/nfZ9/vo/oCAodaTF9xsue/BvO/rQedURJ00fa2vfVaTg6HSe18tWX30nPnoNtYGL+29MkmOSou8zSSffd29wGIT7+ZJ7ky3c6QnjbrQ/ZES0LFrwlufzMH9NRJNmio6VSpTOjYjQQossaa+CnfPmyNsmqrh4TqOzevU82bNwmlSuVNdN9fLMZBzqG7eEXiNQXUkbOlEBIRvQ4FgEEEEAAAQQQQACBzCcQqfsO1wRC9JJ+9unXZuTDSJsJV5evHTa8r1m21f9Nd0YCIbt375GOz/SU9es3Sp06NWXS5LFBJVXVc9SbuSfaPCc6gqJmzWrm2BeDXoFFl/x95ulu8ptZSea2226UwUN6aZNpFs318csvv0vjxvdJ127PpFl//LjXZNast+XBB++R7j2etfUPHjwkN95wX5rHplWhc5enpEmTRmlVY/85FojUF1JGukUgJCN6HIsAAggggAACCCCAQOYTiNR9h6sCIXpZNblnt679RXNyXHlVfRk9erAJhkSnuOLpDYT8+b+l0qPHQDMiY7+dmjLDjOooXLhQivZT27Bn915p2fJp0YDKJZdcKCNG9vdMJQl03KlTp2Tci6/ZnB+lzZSY2XNelzx5/K+2o0si7dixU7Zv2yHbt8fYUTJff73IOrz3/pt2CdtA76Nud97RRI4ePSo6gsTJeaIryOgKMKGUU3JKvv7qe3vITTddZx/vuutWe11CaYe6Z18gUl9IGekJgZCM6HEsAggggAACCCCAAAKZTyBS9x2uC4TopV21aq3N3aE3Ttdee7WMHjMoxRVPTyBk/vwPZOyYiTaZp07/GDN2iJQrVyZF28Fs0FVfnmjzrBw5Em8DE7riio4u8Vc0sWvv3i/Id9/+aHd3NElcy5QtZYMx++MOyL64OIkzgRkNzsTE7LABFh094q/c3+gu6WUSmgYqM2fOk5cmTLZLAOtSwBkp2semjzxh+7fw47kZaYpjz7JApL6QMtINAiEZ0eNYBBBAAAEEEEAAAQQyn0Ck7jtcGQjRy7vETB/p1Km3mdrR0Sy1e7sNOOh2TSyaNWtW+erL701AYLBdHleXyU2rjBn9isyd+56tpsvA9uvfLegpLYHa3rRpi3TrNkA2bths83H0H9Bdbr31hhTVnaBNih1+NmiSUh0xooGSMqVL2eely5Qyy9vmlHZtn7dHvPveG3Z78sN1JMm99zS1yVUnTBge9MiNk2Ydak1wmiOH2mYRnUazxiyr26vXENm//4C079BaWreO/HLHyfvD6/QLROoLKf1nxJEIIIAAAggggAACCCBwvglE6r7DtYEQ/YBo0s8SJYrZz8qkSTNkyutv2udRUVF2VIe+8M6DYXcG+OuLL761y+Q+9XQbadHi4QC1Qt989OgxGfrCWLOyyo8meeorUrVqJb+N6IotZrFnm+xUE54WLFTg3+fmsaC+Lmj7mttPElOnQWcp27vuvlX6m0BO8qKr4HRo38W0U1zefme6XVM6eR1/r/fti5Pbb3tIdBSKt63W1RE5o0YPDLotf+2z7ewLROoL6ez3hHdEAAEEEEAAAQQQQACBzCoQqfsOVwdCvC+25g7RQIBT8ubNK1ddfZlNIFqyZHFnc6qPOnKjUuUKqdZJ784tW7bZVVXSe3wwx23cuEXee/cjafJIIyljRon4KzqaQ1fEqVGjqr/dAbcNHjRatm7dZgMhefLkMUGaAnLxJRfIDTc0DLi8b8DG2HHOBSL1hXTOO8YJIIAAAggggAACCCCAQKYRiNR9B4GQTHOJOREE/jsCkfpC+u8IcKYIIIAAAggggAACCCAQaYFI3XcQCIn0laN9BM5DgUh9IZ2HVHQJAQQQQAABBBBAAAEE0ikQqfsOAiHpvCAchoCbBSL1heRmU/qOAAIIIIAAAggggAACvgKRuu8gEOLrzCsEEAhCIFJfSEG8NVUQQAABBBBAAAEEEEDAJQKRuu8gEOKSDxDdRCCcAhs2x+giRVK5QilW/AknLG0hgAACCCCAAAIIIICAFThlbjg2bN5h7jf0vqN0WFUIhISVk8YQcIfA5m27JDHxpJQrU1yyR2dzR6fpJQIIIIAAAggggAACCJw1gYQTibJ1+27Jli1KKpQtEdb3JRASVk4aQ8AdAjt375Mj8cekWJGCkj9fbnd0ml4igAACCCCAAAIIIIDAWRM4eChe9sTulzy5c0rJ4oXD+r4EQsLKSWMIuEPg4KEj5kvpgOTOlUNKlSjijk7TSwQQQAABBBBAAAEEEDhrAjt2xUr80ePmx9cC5sfXPGF9XwIhYeWkMQTcIXAyKUk2b91l8oSckvJmekw002PcceHpJQIIIIAAAggggAACZ0HghJkWs8VMi8liEoRUKFdCorJmDeu7EggJKyeNIeAeAR2mpsPV8ubJJSWKFXJPx+kpAggggAACCCCAAAIIRFRg1544OXzkqJ2Gr9Pxw10IhIRblPYQcImAJkvVKK2OCiltpsfkMtNkKAgggAACCCCAAAIIIIBARgSOmukwMWZajI4G0dHnmiw13IVASLhFaQ8BFwnsP3BYYuMO2i+nsqWKSVRUeIesuYiSriKAAAIIIIAAAggg4HqBkyeTZNuOPXaFyiKF8kvBAnkjYkIgJCKsNIqAewS279wrx44lSM6c2e3IEI3cUhBAAAEEEEAAAQQQQACBUAR0pLmOBHHuLcqULBrK4SHVJRASEheVEUAguUDiyZOyPWav6KOuIqNLWxEMSa7EawQQQAABBBBAAAEEEAgkoEGQnbv32VViskVFSZnSRUUfI1UIhERKlnYRcJHA8YQTErMzVpLMajLZs0fbJa5y5sjuIgG6igACCCCAAAIIIIAAAukROHY8QfbEHpAEc0+R1awOU7pkEclh7ikiWQiERFKXthFwkYAucaVR3ATzqEVXkylcKJ9EZ8vmIgW6igACCCCAAAIIIIAAAsEInEhMlH1xh+zqMFo/e3Q2O7o82jxGuhAIibQw7SPgIgEd0hZnEqhqElV9rlNk9ItMv9Q0qqujRfSRpKou+lDQVQQQQAABBBBAAAHXC2gSVB1FrqM+7KP58VR/SHXuGTQpaiHz52xNsScQ4vqPJAAIhF9Al9bdt/+QHDocH/7GaREBBBBAAAEEEEAAAQTOC4F8eXNL4YL5IrJEbmpABEJS02EfAghkSEAjvwknTORXI74JiZ7nup2CAAIIIIAAAggggAAC7hDQEeE6Sjx7dLREZz89Ylyfn6uR4gRC3PG5o5cIIIAAAggggAACCCCAAAIIIGAECITwMUAAAQQQQAABBBBAAAEEEEAAAdcIEAhxzaWmowgggAACCCCAAAIIIIAAAgggQCCEzwACCCCAAAIIIIAAAggggAACCLhGgECIay41HUUAAQQQQAABBBBAAAEEEEAAAQIhfAYQQAABBBBAAAEEEEAAAQQQQMA1AgRCXHOp6SgCCCCAAAIIIIAAAggggAACCBAI4TOAAAIIIIAAAggggAACCCCAAAKuESAQ4ppLTUcRQAABBBBAAAEEEEAAAQQQQIBACJ8BBBBAAAEEEEAAAQQQQAABBBBwjQCBENdcajqKAAIIIIAAAggggAACCCCAAAIEQvgMIIAAAggggAACCCCAAAIIIICAawQIhLjmUtNRBBBAAAEEEEAAAQQQQAABBBAgEMJnAAEEEEAAAQQQQAABBBBAAAEEXCNAIMQ1l5qOIoAAAggggAACCCCAAAIIIIAAgRA+AwgggAACCCCAAAIIIIAAAggg4BoBAiGuudR0FAEEEEAAAQQQQAABBBBAAAEECITwGUAAAQQQQAABBBBAAAEEEEAAAdcIEAhxzaWmowgggAACCCCAAAIIIIAAAgggQCCEzwACCCCAAAIIIIAAAggggAACCLhGgECIay41HUUAAQQQQAABBBBAAAEEEEAAAQIhfAYQQAABBBBAAAEEEEAAAQQQQMA1AgRCXHOp6SgCCCCAAAIIIIAAAggggAACCBAI4TOAAAIIIIAAAggggAACCCCAAAKuESAQ4ppLTUcRQAABBBBAAAEEEEAAAQQQQIBACJ8BBBBAAAEEEEAAAQQQQAABBBBwjQCBENdcajqKAAIIIIAAAggggAACCCCAAAIEQvgMIIAAAggggAACCCCAAAIIIICAawQIhLjmUtNRBBBAAAEEEEAAAQQQQAABBBAgEMJnAAEEEEAAAQQQQAABBBBAAAEEXCNAIMQ1l5qOIoAAAggggAACCCCAAAIIIIAAgRA+AwgggAACCCCAAAIIIIAAAggg4BoBAiGuudR0FAEEEEAAAQQQQAABBBBAAAEECITwGUAAAQQQQAABBBBAAAEEEEAAAdcIEAhxzaWmowgggAACCCCAAAIIIIAAAgggQCCEzwACCCCAAAIIIIAAAggggAACCLhGgECIay41HUUAAQQQQAABBBBAAAEEEEAAAQIhfAYQQAABBBBAAAEEEEAAAQQQQMA1AgRCXHOp6SgCCCCAAAIIIIAAAggggAACCBAI4TOAAAIIIIAAAggggAACCCCAAAKuESAQ4ppLTUcROPsCJ08mScKJE+ZPopxISPQ81+0UBBBAAAEEEEAAAQQQcIdAVFRWyR6dzfyJlujs+nj6uW4/F4VAyLlQ5z0ROM8FEhNPyr79h+TQ4fjzvKd0DwEEEEAAAQQQQAABBNIrkC9vbilcMJ9kyxaV3ibSdRyBkHSxcRACCPgTOHXqlMQdOCz7zR99niVLFom20d5skiN7tGQ3f/TxXEV+/Z0z2xBAAAEEEEAAAQQQQCCyAjoi/HiCGSlu/thHHTFu/jj3DAUL5JVC5o/eP5yNQiDkbCjzHgi4QEC/yHbu3menwWh38+bJJYUL5ZPobNlc0Hu6iAACCCCAAAIIIIAAAqEInEhMlH1xh+TwkaP2MJ0uU7J4YftDaijtpKcugZD0qHEMAgj4CGhUN2ZnrCQlJdlRH8WKFJCcObL71OEFAggggAACCCCAAAIIIJBc4NjxBNkTe8COFsmaNauULlnEjiJPXi+crwmEhFOTthBwoUDiyZOyPWav6GPuXDlsFPdsDWlzITddRgABBBBAAAEEEEDgvBPQKTI6ujz+6HHJFhUlZUoXtY+R6iiBkEjJ0i4CLhHYvnOvHDuWIDlzZpfSJYqctXl9LuGlmwgggAACCCCAAAIIuEJAgyExu2I99xZlShaNWL8JhESMloYROP8FNClqbNxBm+W5bKliJEE9/y85PUQAAQQQQAABBBBAIGICmlR12449oqtQFimUXzSJaiQKgZBIqNImAi4Q0C+nLdt320zPOhIkl5kWQ0EAAQQQQAABBBBAAAEEMiJw1EyP0ZEhOt2+fJniEVlal0BIRq4QxyLgYoE9sfvl4KF4uzpMiWKFXCxB1xFAAAEEEEAAAQQQQCCcArv2xNnVZPLnyy3FihQMZ9O2LQIhYSelQQTOf4GTZnWYzVt32dEgGqWNNktdURBAAAEEEEAAAQQQQACBcAicOJFoR5/rqJAK5UpIlFlNJpyFQEg4NWkLAZcIHDx0xC5xpavElDLTYigIIIAAAggggAACCCCAQDgFdpjpMbqKTLEiBSR/vjzhbFoIhISVk8YQcIeALm11JP6YHaamw9UoCCCAAAIIIIAAAggggEA4BXQavk7Hz5M7p5QsXjicTRMICasmjSHgEoHN23bZTM7lzLSY7EyLcclVp5sIIIAAAggggAACCJw9gQQzPWarWZwhW7YoqVC2RFjfmBEhYeWkMQTcIbBhc4zJDyJSuUIpm83ZHb2mlwgggAACCCCAAAIIIHC2BE6ZG44Nm3eY+w297ygd1rclEBJW1MtLKwAAMPJJREFUThpDwB0C6zfF2I5WqRjeLyR36NFLBBBAAAEEEEAAAQQQCEYgUvcdBEKC0acOAgj4CETqC8nnTXiBAAIIIIAAAggggAACrhaI1H0HgRBXf6zoPALpE4jUF1L6zoajEEAAAQQQQAABBBBA4HwUiNR9B4GQ8/HTQp8QiLBApL6QInzaZ7X5EydOSHR09Fl9T94MAQQQQAABBBBAAIHzSSBS9x3ndSAkNnaf6J/q1atm+LOwefNWWfr3Clm6bKW0bfuYFCtWJMNtejdw6NBhefqpbpInT26Z+Opo7108RyDTCUTqCykjHR06fJQcO3pM+vfrJVFRUT5NHTt2TL79bpGUK1tG6tat47PPefHd94vkhx8Wy6233iyX1b/U2Rzw8eDBg/Lbkj/kphuv96mzb1+cvDlrtsTt3y/9+/YKmEz2x8U/yWeffSnXXdcwRRs+DQb54pWJk2TNmrXy+OMt5cIL6gV5VOauNv2NN2Xjhk3SokUzqVqlst+T/Wf9Bpk58y2pVLmitHrsUb91Uts4441ZkjUqq9x1x+1SuHCh1Kp69u3dGysTX5ssxYsVkyfbtfFsT+vJypWrpEaN6ik+n2kdl3y/fp43bNgo6/5ZL7lz55abb7oheZUMv/70sy9kye9/yK233CSXX1Y/w+3RAAIIIIAAAgggkB6BSN13nLeBkP37D0jr1s/Izh27pH371tL80cYBb0icC6JZaePjj4oGJWJidpwOfCw1wY+lK+XAgYNONbnrrluk/4DuntfheKLne/NNjSRfvrzyzbcfhqNJ2kAgYgKR+kLKyAk/3fE5OXIkXl6f9IpZYiubT1M///KrTH59mhQrWlSGDB4g2bP7jtRISkqSHj37yp69e6X9k0+kGQhJTEy09WP37ZOWjzWXaxte43m/48ePS49e/WS/CYS0atlCGl5ztWef80RHi3Q37xcXFye333aLNH7oAWdXuh/fe/9D+WjhJ3LF5ZdJu7aPp7sd7wO1Tb3pz2ipWLGC3HLzjSE3M3L0i7Jq1Wrp/PyzUrdObb/HL1+xUsaMHS+1atWUbl2e81sn0MaDBw9Jp+e7StasWeWl8WMlV66cKaquNsGlzZu32ICAs3PHjp3Sq09/KVOmtAwZ1N/ZLLt375bXJk+Vu++6Qy6+6ELPdn3y5Vdfy+w580UtnmzbRkqUKO6z398L/Zzp/5MOHzksmzdtkXXr18s/JvixfXuM6GdWiwb9XjCf6WDa8/cegbbNemuOfP3Nd9L0kcbm/02hX7tA7bIdAQQQQAABBBAIRSBS9x3nbSBEcd95+0N58cXXJCEhQS677BIZNryf5M+fT3bu3C1jRr9sAx6HDh2RQ4cPy5HDR+SweUxKMmuC+inR0dnkoovqydUNLpdrrrlSypcvm6LWnNnvyvTps1NsT77huusbSK9evv9gJxCSXInXmVkgUl9IGelzaoEQbXf4yDF2xITepDa6/16ft/r5ZxMomTJNypUrKwP790kzaKoH//7H/0RHYejNs96IFip0ZjSB017+/Pll+NDBKW6wP/n0c3n7nffsr/kjR7wgecyv+hktcXH7pUu3nnY6zoRxo02wJ3tGm5SBg4fKpk2bM9zOJRdfJM883d5vOwkJJ0wwoovffcePJ9gbfu1LlBm14a+cPJlkv+M1mJEjh/8+jxurHr7BL21r0aIfRUed1DSjNLp365yieQ1qde3e2/6/YfDAfjbwoZUCBUJenfS6/Pbb7/LIww/JLWYkhXeJjY2VSSYYt27dP+Y8c5gg2aOekRafff6l6GgRDXrEH42Xo/oYHy8JJmAWqBQpXFguuKCuHf1Tq1Ytv/17rnN3OXnyZKAmPNv79OomxYv7BmYIhHh4eIIAAggggAAC51AgUvcdmS4QsnvYYDlpfiUtOWS4ZAnDP+Q3mGHVvXoOkfXrN0qFCuVk3PihUrp0Kbnrzodlz54zv3RmzZpFcubMaW5Ycplfaffbf3zryI//+7+LpHqNKlKpUkVzg+H7K3Pyz8P0abNl4sSpyTeneH3LLdfLC0P7+GwnEOLDwYtMLhCpL6SMdDutQEjMjh3Sr/9gG+TQX/GdX9B1JFjffoNke0yMdHymQ4pf8lM7p0nm1/9ffv1NLqhXV57r9IynqrY5dNhI0WkbyUd8HDZB1249esvRo0eliblh1qkHaZW//l4q02e8mVa1f4O5SZI3bx4zyiEq1fqPNHnIjh5JrZIGQfQ801MW/fCjsVliR1volJUGDa7y24yOjhlsvu/9ld179ogGI3Qkj34/+ys6TURH8mhwQaeq+Ct9+/Twm6/lxXEvmemOy6Vo0SJSulQpn0Nr1qxhr903335npjrNsQGHTs8+bev4C4So1aAhw8z0msIm+DUoxagkPVBHceionQ8XLLTt3H/fPXb0iE7LesNM7/EuOqpJ+yRyyo50UoNrr73GBOHLSfly5aRAgfze1f0+b9O2Q1CBkGEvDJKSJUv4tEEgxIeDFwgggAACCCBwjgQidd+R6QIhe0aPkMRdO6XUyLFi7ljCwq2/rHXrOkB+/fUP6dDhcWnVuqkdFaL/KNV/XOfOncv8gzO751fge+9pZqbG7JQ5c6dI1aqVgj4HHU1y6tTp4cqpHZQlS1Zzc+DbNwIhqYmxL7MJROoLKSP9TB4I0WBElmTfIe+8+758+eXX8piZznLVlVfYt/vfn3/JSy+/KpUrVZS+fXqGdApHzHdLn74D7TQYvUn2zs3h3BjXMjfUXTp38pzLnLnz5QtzDlUqVzZB2tPTMtJ609OBkJlpVQtp/yNNGqcZCAmpwX8r63SOt2bPle++/8HeyOtUI2+XUNqM5NQYDaA882xn0fP1V6684nJp+0RrG7zo02+gHQXSw4wa0RwfGlTr3WeAlCltpsYMPj01xjnXJ9q08ny2/LWr2/7435+iQbS8efPKAJPTJmfOXLLPTLPSwIf+v0j/v6QjXLQs/ukXmTJ1ugnKXyxPd3jSbgv2L2f6TFr1nffyrkcgxFuD5wgggAACCCBwrgQidd+R6QIhe8087RM7YqTU8PAmDNV/7H77zY9y8y3XpXkN0xsISbPhZBV0io4zbPmgyUHSokUHmyz1rdmTk9U8/bJ06ZKemym/FdiIwFkSiNQXUqinr1NQspsbx/+7xNwk/psjZEC/3vLyxNekzeOtpEb1aj5N6jS5eDPCoWCBAp7t+iv+xo2bUs1D4VTW0RG79+x1XtrHNavXyHHT7gV+EpTGmFwOpU0eCafEHzkiY80oBP3vXvN4lCxZ0tllH4sXK2pHpflsDPBi/4EDPv0IUM1u3rVrt5n6UCzi3x86mk6nC63fsEEKFiwoGhyqYEYwpLfoiBKdUnLZZZfaUSH+2tHRIDodpUiRIiawE3xSTw1GaVBKR/M0anRfiqbzmsTV2qaWv82InHETXvEEy5IHQpw8JeXKmqlVA4KbWqWjhfLny2evS4o399qQkUCIVzNpPtWRN5ozxSnvf7hA9L8vnUp2TYOUeW70B4Q8efI41XlEAAEEEEAAAQQiIhCp+45zGghJ2LhBos0/HLNEn5nXHfvqy3IiZruUHDzsDKQZuXF8vZlXXa36mW0RfHa2AiH33/eobNsWE3RPflz8if3FMNABP//yt6xavUFq1qwkV11xUaBqbEcgwwKR+kIK9cS69+wjBUwejl49u3kCIZofo9Pz3WxyzocbP2hX1hhlkm76KzpqxBkR4L3Ube3ataRTx6dSHOKMHkmxI0wbNI+G5tNIq7z8ymui59Kndw97c55afc191LlLD8lrEjEP7N/XTptJrX569/3w42KZN/8dO42jWtUqNumsd96U1NrVFXhWmqSokSi1a9U0uaF8p5FoQExzf+j7auCsQoXyab71vPnvyoUX1rP5RJJPjdEgwtfffCcVTTv62QlnOVuBECevTbDnfsftt8pDDzYKtjr1EEAAAQQQQCATCWiOtUD510I9zXC25e+9I3Xfcc4CIadOJMiuAX3t9JdcF10suS69TLJXrCT7pk6WE9u3SQkzZz/RZOA/uuRXif9jiSQdOiTFuvaQbMV95zH7w9JtusrL65NnStt2j9kEqYHq+dt+tgIhnZ7tJfpLrRb9hXjjxi12ykzlyhXtNuevDRs22+HZi3/6NGACxPj4YzJz1gLnEGne9C5zw5PxBIyeBnmCgJdApL6QvN4iqKdPPfOcmapQTTo+3cETCNFVY4aZpXQ18eQwk6th7dp1MmzE6eSh+fLmTbXdE2bkmN4c6wolulJJ8uIEQvTGWlcMCVfZtm27Sd58yCYUDSYQ8vHHn8o7730gF114gTzrJ2DjfV6aj+KDDz+yAZZACUu964f6fPfuPTJj5iy7uotOsbjn7jvtKAJ/0y0Ctb3KjKoZOcpMh4xA6db1edHpSd5Fl4ad//a7Nh+M5oVJrej0ksRE34SjO3fulP4Dh9h8U/379k5xuN/ErGZpZk2sW//S/0tRP7UNZysQoqNe9DPlFB3dc8SMYNLRUxpEc4rmuNEVkQiEOCI8IoAAAggg8N8S0H/X/LLkL5NbrYhUr1oxQye/9p9NZrR0rFxR/yKTHy31/HTpfaNI3Xecs0DISTOs+9DHC+T46lWSZIaba8lWrLicMjciSfFHJLpkKUnYvMluzxIdLdmrVpd8t94m0WVSrtZiKyX767lOveXHH3+RUmY6yahRA83NUlVPjX79hsm+2DjP6+RP/vpruU3QV++C2pLbJE8NVJ57vr1UqRJ8DpFA7ej2Pbv3yh13PGwS7RWSz794x6fqjTfcZ4csL/7pM78rA2hl/WV7zrxPTb3DZgnePNK0yR0RHwbvc5K8cJVApL6QQkHUG1RNBnlNg6vsMrXO1BgNhOiN/8effCZjRg03y7/utYEQvQHt0L5tqm+hK3oMNUGUtAIhTv6IVBsLYadOJ9FVaIIdEaIjGjThqgZ8dZUbTaDpr2gi0s5de9ogS2r1/B0b7LaOJs+GrrylCUfbPfG4yatUJdhDPfWcQEilShXNUq03eLZn5MmXX31jpzwlD4TYlWC69bLn3LtXd5vnw9/75MyZw36HLjRBp3e9AgT+6ibfNv7FUT6jUHTq1eAXhtvvaU2Oq8slO4EinVbzmQnMBCqaP0oT+eqKZzr1JlDRUS3hHKEx441Z8v2iH6TFo83k+usaet72q6+/tTlg7rzjNnnwgfs923mCAAIIIIAAAv8dgWUr1krc/oMmWXxxqVo57ZGx/nr2z4YtJm/abilUML/UqxO5mRuRuu84Z4EQD6a5mUnYtFGOrTTBhxUrJHHvHrsrq/nFNWftOvaPBkE0GBJK0X889u41xMwd/58dRfHCC71Fl63Vcs/dTU3iu12hNOe37uTXx8nFF9ez+1atXCObN2/zW8/fxqImAnfppWeGwOuqNk0ebmNWpylvfqmc7nPI9dfdY1aDOCI//fx5qivX6BD/mJg95lfK4hGLyPmcGC9cKxCpL6RQQPUX6+e7dBfnhsw7ELLGjAIZPWacTXapy4zqiJD/aiBE+6mJPZOXRWaEwWeff2G+gy6Uhx7wP0Xhz7/+tsv0anCidcsWyZswSTlz+Cz7m6JCEBvaP/WsPT9dBlhXNklPcQIh6UkIGuj9NE/MH3/8aRJl+44I2bx5i4weO06qVa1qp8Ro0Mxf0SSomgzVCYToimJ586SeE2OvyWeiQenkgRBtX1cX0pV/NIil03V0JIomR/1x8U8yddob/k4hpG21TJvdupxell3/X7Dk9z9COr5e3To2eatzkBOc02S3l9W/1NlsE/1qbpU777xdHvSTW8VTkScIIIAAAgggkGkFdDrLspVr7Y/o5cqWlEoVAv/Y4q8TG81979ZtO80PNXmlXu3qYZtm4++9InXfce4DIV69PfD2PIn/7RcxP5XZaTKF27aXLFHpH2KjvxhPfGWqvPHGXHNxomTAwO5y2203yj//bJQT5h+jgUrnzn3t0rq6xG25soGHv1eoWN6uOKPtjB71ssyb936gJlNsv/LK+jLhpTNLRv75v6XStu1zctFFdeX1KeN96l/b8G4zzD9efv7lc79LMvpU5gUCZ0EgUl9IoZz60qXL5cXxL5mkqC3l6quu9Jkao//t67SZBldfKTp6I1KBEL3h7NHTTPFLZ9GbbV0hxLnp9DcixLmhT+dbpHqYrubiLAmbasVUdjqBkHFjRwW1pKu/pvwFQt4w022OHk0ZAPJ3vPc2XelFR1s4bskDIVpXpyEdO3Zc1qxZK4tMbpMYM+LiyJF4O90pd+7TUwrbtmltR7k4gZBgpoI88+zzNmjtLxCi76tToCa8PNH8/2WvVK1SWZ5/rqOZFplkRy3pfn/l76XL7AgnDXQ0ftB/wEuPy2mm3ZQscXrqqE5pebrj8/6aC7itT+/udiUjp4JOVdLr0tUEVzRw45TPv/hK5s572yxBf7s8QCDEYeERAQQQQACB/5xAoknNsHT5GvNvl3ipWL6MlC9XKqg+bNm6QzZt2W7TMFxQt4Zky8D9ejBvGKn7jkwTCDny/bdycOECyV3/cslmVlI4+NGHkqv+ZVKw8SPB+KRaZ9ab82X8+ElmBYDC8t77Mz3Bi0AHpSdHyBdffCtLlvzpaXKxmZazx8yX0lEoBQsW8Gx3nlQxeUCaPHLmH7XffbfY/IOzn1x77dXml+xBTjX7eE2DO+w/2n/59Qsb0PHZyQsEzoFApL6QQunKRws/Mf89fyiDTK6hcuXK+gRCsmXLJr8t+V3Kli0jhw8djmggpLPJXRRKOWTOR0cNaJn48nibNyK1QIiOWNA8J8EUXYlEp8PoTbZ38tdAx1Y29TL6q36kAiEdO3WxAQudEhJM0VFzGgDTqVF6/TWQsnTZcmnf7ok0p+uMG/+yaMDBX9AknIEQ7YeO8NEgw85du+Thxg/Ibbfekmr30pMjRKf/zJn7tqfdA2Yqqi7BrKOj6pqRH/6KjqwqZlYtckq/AYNl69ZtKaZeOflVdDWZRvff61TnEQEEEEAAAQT+gwKaH+/vZWtsbr0qlcqZ0bCp5+PcHrNL1m/cau+nL6xXQ6LNv7kiXSJ135EpAiHHViyXuDemSbaiRaWo+cevToPRpKnH16yWfHeYpJ/X35hh3/feW2hHW1Q2AYi0SnoCId5t6j/Gb76pkQ1efPPtB6mu9OIct2DBpzJ40Gi5+57bpF+/rs5m+3j1Vbfb4dRLfv/aZzsvEDhXApH6QgqlP/qL/99/L5PXJk6wAULvqTF6I+wUDSKEa0SIjgDRaSravo7kCKXodJ0PPlggq80oBA1UPPzwQ/ZR29A2tW1t0/vcQ2lf63YzK6HocrKjRw2zN72hHq/1p02fKetNQCXYssMkDtXATokSxSUqa9oj+KqYvrdu5TtNR4/XhNE6ksPJnaGBEL2hn/TqS0GdSs9e/WxwwQmEBHXQv5WCCYTcduvNaY6A0NWKdDRGoBEhzjlpbpcfzUgUnV6SVklPICR5m85Swffec5fcd+/dyXf7fa0Bvn374lJ8lj759HM73SqUtvy+ARsRQAABBBBAIFMIJCScMMGQ1XLUjJatVrWClCpRzO957di1x6zGuFlymanVF9arGTB3pd+DM7AxUvcd5zwQokvlxr4yQU6ZfwQXfaaTJxmqrhKzZ+xISTL/qCzUopXkrHs6F0cGDIM+NKOBkKVLV8jjrTvKZZddYoa8j/K8rw7z1lUD/JXp02bLxIlT5dEWD0vHjr4JHa+4/BZ7o/Hrb1/6O5RtCJx1gUh9IYXSka3btsnGDZukYcPTuX/SCoTof3uFzS/iqZWE4wk2kBAoWWpqx/rbpzf4OtJAf0XXgIz+4q4JJr1zLvg7Lr3bwhEI0aWGI7WUrfZLp1nodIu0SmYLhKR1vt770wqEeNdN63k4AiGaL2fFylV2mWld2liL5irRUUNZsmRJcQoazH+yQ0c7ukgDUdmzZ/fUcUZi6WgQHRVCQQABBBBAAIH/vsAx829gDYYcN481q1c2K8r4/pt59559snrtBvMDf3a5yARB9PFslUjdd5z7QMj27RI3Y6rkuaah5Gl4nY+nrigT99ZMKdS0ueSo5X84r88BqbzQVVlymOiV9zBrnTLjr0yfPtuu0tKs2YN2jnjyOheZBKl169ZKvtnz+tWJ02TatLfk2WfbSfNHG5vh3YelX99hEhu7T2a++aqnnveTzs/3lUWLfpJBg3rK7Xfc5NmlN1KX1b/JRtx01RgKAplBIFJfSBnpW1qBkFDaDkcgZL+ZjqBTIHbs2GmGD+a2N4033Xh9ukZ86GiRpKTT02lS60fvvv1NvolYu2xw4UK+/wNLflzWrFn8nosuH6zTa4ItvfsOtCM3+vXp6fP9Guh4vfnW5YfTKhoI0dEVOmUjmPLNt9/b+sGMCPnu+0Xy559/e5rdtHmz/c6vXLmST0JUzT/z/aIf7aoxGsQqZaZtplY02KAjW4IJhGi+kLJly3ia++ef9fLP+vWe186TjZs2m6Tfp6d5XX3VFc5mz2OWLFlFV6IJVHRUjeYLUfeXJ4y1I25+/uVXm+ejlUmgq0swJy+bt2w1ObWGSPHixWTEsCE+u3Wqli7JrAG9YK+NTwO8QAABBBBAAIFMKaA/2v9tcoacOJEotWtUMWklCtrzjI3dLyvXrLeLdlxocoIE+mE/Up2K1H3HOQ+EKFjS0XjJmtMsU+vvlymTJDTrv8nrMoLbt+9Q+ebrRfLCC308q8fUvzR9U26eeupxadmqacDT0dVfdBWYd96dYVYlOL2sZYsWHURXlpkwYbhceVX9FMfecvMDdu74hwveMqu+nPnHtt4AXXnFrfYDt+iHj1McxwYEzoVApL6QMtKXQIEQ/XXbubHfsnWbDB02Uq64vL60fOxR+3avTZpi8yc81+kZqVG9mt2m0zOCybGR2vlu3x4jffoNtMGBoUMGSp40VhxJrS29KdWb03CWCmbJ3QFm6d2MlnDkCPF3Dk6OEH/7UtsWTCBk9px5osvrplV0itHPP/9qAyHhSJbqvJ/mB+nVu79UqlhB+poAkhYnwODUCfZRp1JpnwMVXZZZc9Bcfll9ebJdG1vtb5MvZNyEV0QDP31790hx6NfffCez3ppjkhBfYZIRt/LZr0sJa96UYPKb+BzICwQQQAABBBDI9AJH4o+aHGtrRBOp1q19+t/FK1ats9OfLzA5QfLkNvfsZ7lE6r4jUwRCIm2p85zvurOJ/UX140/m2qSp+p4aCNFhwc92ahfUKfy0+De7HG9qgZDNm7eaX8paSvnyZc0/ns8sifjzT0vMlJcecuGFdWXKVN9VYbZu2S6NGrWwo08+/cx3lIqubKDJUvPlyyvffPthque5YcM2WbNuk9SoVtH8A7dsqnXZiUBGBCL1hZSRcwoUCPFuc/FPP5v//mbIQ2b1Db2x1fLyK2aZ1f/9Kd27dZaaNap7V0/xPC4uzgYsU+zws2G3WRlk0uQpUrBAAdHVYIIpBQsWNNN3CqWo+vqU6Tb/RYodyTZsMcESDZ6WN0GOtHKN6AojT7TxvclN1lxQLyMVCNF+pKek1W9tU3N06GgTp8ycNduuIPN4q8dscMDZrnlPdFqT3vyHMxDiBGJuvOE6ad7sdEJwJxCiy9jWqVPbOYWAj6dOJcm8+e/a65xaIEQDfb/+tkTatW1jA4BOg4NfGC4bNmyUrp07Se3aviMcJ02eapf7faxFc7nu2mucQ+zj/LfftSZNH2lscmGl78cEnwZ5gQACCCCAAAKZSuCQSUC/dPlaT3J/vV++oG51yZc3zzk5z0jdd7giEDLl9Tdl0qQZdiTIqFEDPRdQAyH6y2+wuTdee3W6TJ06S1ILhOh+rdey5SPy1NOnf31z3rDN48+a5I7Lzc3RWLnkkgudzbJw4RcycMAIufHGhjJ8RH/Pdn1y8OAhufGG+2zw5rPP3/bZ5/1C53PNnPWRHZYdFZVVHm12t0m8mMO7Cs8RCJtApL6QMnKCwQRC5sydL5o4UpeM1aVjtYQSCNFVajRHQqTK7bfdIo0feiDdzYcjR0iobx7OQIgGP46nsrR5KOemS7nlyBHcd2AwyVJ1dMSNN1yf6imMMrk4jh49murUGJ2q8lznbnZp4EEDzYpHZU8HrZ1ASLC5N3Sk0+NPtE81EKLJzzp26mz/vzBh3GgzsvDMrzgrzTQePV8N/mkQ0Lt07d7LTrHS5Z3LlPZdQt4J4jzWopkJkjT0PoznCCCAAAIIIHCeCBw4eFiWrVhre1OvTnUpkD/vOetZpO47zvtAiP7D+u67mtp/1CWflhLuQIjm82h0fwvZti1GZs+eLNWqn05K53xqvv9+sXTp3E8uv/z/zM3XSGezPP1UN/n11z+ka7dnpHHj+zzb9YnO97/9tsZSpkwpM3R6ls8+7xeJiSdNIGSBSYB3ws7fatH8HvvoXYfnCIRLIFJfSBk5v7QCIZq7oXuPPhK3f7+MGT3cjtTQ9wslEPLLr2ZUmFmWN5iio7lWrVptE03WqeP7i3ug4//vkovNdIQrA+322a6jWPRc2j3xuGelleSBEB3Bor/u32WSWmrek0iUcAZCvv1ukcmj9FZYTvPiiy+Ujk93CKqtYAIhQTX0b6XUcoQ4006ST0uJRCDkp59/ER1NdMnFF6UYlaT/vxo4eKhs3rxFevfs5lliWHOVvGCmj+XLl88GdJInU9Vlib/7/gc7muiqK68IhYW6CCCAAAIIIPAfEtBVZLToKjHnskTqvuO8D4R88cW30rvXECll8m588MEsc8OQxXMdwx0I0WCGBjU0AKKBEC3r1q6XxYt/tX+WLl1ppuck2e0z3njFDH+uKevWbZCmjzxh12Je+PFcOwXGVvj3Lw2q3H/fo2a4dkUzDHqq964Uz3fv3icbNm6TypXKmiR3qSdKTHEwGxAIQSBSX0ghnEKKqmkFQr5f9IPMeGOWWc3pUmnf7gnP8YECIZNfn2anKPhLUOk5OJUnTo6QokWLyKgRQ1OpGdou/Q7RqRq6jKkWvdnXm34tyQMhH5tcDu+YulrqmOkPOtpEp82Es0QiEFKmTGmpYvJXpKfotBddqSfcgZAqlStLzZqpT5360ow2SjCJZgMFQjT40LvvAJtAV6fhNGhwlaeLkQiEaEBDAxs6NUuDITpaZcWKVSYr/DJZtmy5nSKkJ3BBvbqiOXK06LLUf/zxp03uq6NTkpfJU6bZvClPtW8nl156SfLdvEYAAQQQQAABBMIqEKn7jvM+EKLL2Opytu07tJbWrZv5XJRwBkL0H7itWz0jy5evkhtuaGgCGnnkp59+kz17Yj3vqUlQq1WrIjoypGHDq2TM2MF2SoxOjWnySCPp3PkpT13nyerV6+TR5k/KBRfUkanTJjibeUTgnApE6gspI51KLRBy2Mx1HDDoBbNyU6wM6NfbJDEu73krf4EQ/e9Zpx2UKF7crsDiqRzCk0gEQuLi9ptf+KfJqtVrzNS3nCaRZUvRUSROSR4I0e0rzaiUufPelq0mUaz+ut/g6qtM8LWxPd45LiOPkQiE6CooTR5+KF2ntWbtOjPFcHRYAiH6Ofj4k8/CliNEV5XRpWw12/q4saN8lqUNdyBk6dLl8uJ4s/StWS1GRwStWLFS1pmgiBOM11wqtWrWkJ07d9klo/W/C50606NXX4ky04rGmESx/lb3GW+SrP5lkq12MblFNLhGQQABBBBAAAEEIikQqfuO8zoQ4gQR9B91Hy2cI8WKFfG5RuEMhDh5PrzfQEef6C+I1173/+zdC3BU1R3H8T+EbCA8E94BBCrOqCWARESgKqBTkae1YwFnYPqgKLTQChUoQ5USqyggAq1oH+II1RnHGQWMEkRAXtNxLOp0piJ0KCEQ3hBICCEP6Pkfupnd7CbZsPcmmPO9juzu3bt37/nc65Xz2/MYYoOPXr162r7aY0ZPNAP1FcnqV5eZisxMs+6Kaa2y1rZaCf28Pv9483aZPz+zIjip/D6vEagPAb9uSPGUpaogpLi4WF4w09geMtOQDrgzQ6ZPmxr2NdGCEG1V8OtZT9lBJHUwyetZvAxCtItL1ofZsmPnLjsDTlpaZ5nxi2nSqVPHsEOLFoToBlqh37lrj63Q6/S4OhXsE2bwTO2eEe/S0IIQHTNj7xdf2gBk8qTHTLj9b8+CkGCIMHzYUBNwTwyj9zoICY7zEfolLcwgZ33S0+WOfn0lPf27dgyVrdu2y9p1b9vBYIvMLG3a7eWe7w0xwf7k0I9WPJ+/4BnbokVnHNKZh1gQQAABBBBAAAE/BfyqdzToIGTRoiWyccMmGWqCiCVLF0WcHw1C9BfSMWNGRLwXbcXX+/bbri7RBkvNzT0q2vqkd+9bpXf67ebxNtv1pXnz5IhdaRcanVZ3zpyFdkrdEQ/dL5mZ8yO20xWPT50le/d+JZMnj5cZM8MrcFE/wEoE6kDArxtSPIceLQjRFiCvmS4uBw78R3r27CHz5swO+xVevy/YFeDJX80wLa966yo7i4wGJNVVCO2G1fyhLTCeXphpZ4O63q4x2gJkY9aHsnPnbjsbjP6KP3zYfWYsonFRBwKd9Zt5Zlabc6LTvrZNjeweV1BQYMcM0ZYJOlD0w+PGmBm1HrL3wWqKUuVbOgaTBiH6qC0cWrduVeW2sbwRHCNEZyP50aOPxPKRiG32m3O9ZOnyWrUIeeHFZbLvm/12MNSv9+2TvLxj1mTmjOlmzKejMQUhGjaphQ6GGq1rzKnTp+0YNbrdooVmkNRu1wZJDRYgGIRoa6WbutUcMFyVq7LLhFt6TUSbNUZnR8o9csR2MdLAS7v2aHBWecwPDQq17GWlZfKn1a/Z1iA6iGta587BQ6t41O3USq+dP65cblu2VLzJEwQQQAABBBBAwAcBv+odDTYIyc8/L6NGTjCDh5bIipXPy+DBd0WcFg1CrmeJFoTUdj/PZi6V9es/soOgrl33qh0bRAdG/ZcZR6SpaTZdZOZwzs7eKtu27rS7fv31VZLex5/BDmt77GyPgF83pHhkQ4MQrexlb94i6zd8YO8B2gJiwfy5UZv66zZaCdUK6ICM/nLJVAy3f7rDttqaOuWnMmjQwJgOq7Cw0Px3W2QqiQnSyLQG27Jlq2zK/thWeLXiez3LN6biufj/FU8NZcaNHSUpKdem19UuDtq6Q7vIBAIB0XDjpeUrzSDJibJqxbKoQYkeg1bEdeYbLbMuemxdu3axz6v7Q7vY6JSz2sJO/21k/tGWEzr2iga+K5Yvteur20dN7wWDkJq2i+X9WMcI+fyfe+WV1X+umCJOy3b3wLtk5MgHbRjwQdZHVQYhGnYVmPOu5vvNudLxWLQ7ycsvvRgROOhUt5uyN5sxnHrI7xb8NqIIwSAk4o0aVlQVhNTwsbC3844dk8xnF4uGIo9NHG+mxR1u39dzrv8P1etLxxrRc63T0fc2U/zOfnJm2D54gQACCCCAAAII+CHgV72jwQYhOj7HXNPiIiWljfkL/9/DBkkNnqBrXWMayfKXYxvIMMuM5aGDr8YbhGiXncmTptm/XK5Zs6pidpmTJ0/Z8CZ4fPqov7z9fOpkmTJlUuhqniNQrwJ+3ZDiKVRoEFJqBqycN/9pGxToLCw6JkZycmTrLP2+o3l58vziJTb4CH6/Bim33NLLVva0EhjLsnvPP+Svf1sTsekPHh4rY8eMilgf6wqtIA82YUwHM15J6KKz4GgLBC1r6JKRcYf8cvoToauiPtdxRvbvP2DCldFR36+8MjhtauX1+vree4bIT34cvStFtO2rWhcMQrSs3brVHM5E209hQaHoOCGxBiEaXs0xswlpN487TdepjP79wgKz6oIQDTY04AhdqmpFFGx1ok7qVXkJBiE6E8vAgQMqvx3xWgMtne3GiyBk5apX5Isvv7IB0ONTf1bxXWveeNN0x9pd8VqfdOjQXuY+NVtSU68FcmFv8gIBBBBAAAEEEPBYwK96R4MNQtT/woUCyTmUW2VLignjp9iA5K23/xLT6Xr/vSzZuDFbHvnhaBk16vsxfaaqjTZt+sT8NCui3WJCl3feeV8unC+Q8ivlZqDG9tI/o6+Z5SG8CXXo9jxHoD4E/LohxVOW3y96ToouXZI/ZD5jK4c6vaz+ut+vb58ad6tdOzQY0BYPYlo63HxzT2nfrl2NnwvdIN9My/vmurcqViUFkuw4DDqYaVKSP9OO6dSo2o1Dl6SkgOnaky6D7h5oA+CKA/HoycH/HpIdO3aF7S0QSDRl7C2333Zr3K1BdMc6HfCGjVlmQNdBMuLB67vHHsrJMYHUG/aYtHVDLIuefw0Uoi2fffa57Nq9RwYMyLBdpUK3OXHipGldk2VX6bXW11xrfc050OfRFm3h06NH96jXw7Ztn8onZryOB+4fJkPvuzfax8PWaRDynAnw9Lu0y1c8y0UTBr377nsyccKjYV3HDh/OtbPLlBofDQS1a0115YvnGPgsAggggAACCCAQTcCvekeDDkKiQbIOAQTiF/DrhhT/kbEHBBBAAAEEEEAAAQQQaCgCftU7CEIayhVCORCoQwG/bkh1WAS+CgEEEEAAAQQQQAABBG5wAb/qHQQhN/iJ5/AQuBEF/Loh3Yhl5ZgQQAABBBBAAAEEEECgfgT8qncQhNTP+eRbEfhWC/h1Q/pWo3DwCCCAAAIIIIAAAggg4KmAX/UOghBPTxM7Q8ANgYM5eWa6UZHvdO8cMU2oGwKUEgEEEEAAAQQQQAABBPwU0MHhD+YcM/UNrXekefpVBCGecrIzBNwQyDlyQsrKyqVblw4SSIw+24YbEpQSAQQQQAABBBBAAAEE/BAoKS2T3KMnzex+CdK9a0dPv4IgxFNOdoaAGwLHT56Vi0XF0r5tG2nVMtmNQlNKBBBAAAEEEEAAAQQQqDOBCwVFcupMvjRPbiqdOqR6+r0EIZ5ysjME3BC4UHDR3JTOS3KzJOncsa0bhaaUCCCAAAIIIIAAAgggUGcCx06ckaJLl82Pr63Nj6/NPf1eghBPOdkZAm4IlF+5Ijm5J8w4IVflJtM9JpHuMW6ceEqJAAIIIIAAAggggEAdCJSabjGHTbeYRmaAkO7dOkpC48aefitBiKec7AwBdwS0mZo2V2vRvJl0bJ/iTsEpKQIIIIAAAggggAACCPgqcOLUOSm8eMl2w9fu+F4vBCFei7I/BBwR0MFSNaXVViFppntMM9NNhgUBBBBAAAEEEEAAAQQQiEfgkukOk2e6xWhrEG19roOler0QhHgtyv4QcEgg/3yhnDl3wd6cunZuLwkJ3jZZc4iSoiKAAAIIIIAAAggg4LxAefkVOXLslJ2hsm1KK2nTuoUvJgQhvrCyUwTcETh6/LQUF5dI06YB2zJEk1sWBBBAAAEEEEAAAQQQQKA2AtrSXFuCBOsWXTq1q83Ha7UtQUituNgYAQQqC5SVl8vRvNOijzqLjE5tRRhSWYnXCCCAAAIIIIAAAgggUJWAhiDHT561s8Q0SUiQLmntRB/9WghC/JJlvwg4JHC5pFTyjp+RK2Y2mUAg0U5x1TQp4JAARUUAAQQQQAABBBBAAIHrESi+XCKnzpyXElOnaGxmh0nr1FaSTJ3Cz4UgxE9d9o2AQwI6xZWmuCXmURedTSY1paUkNmnikAJFRQABBBBAAAEEEEAAgVgESsvK5Oy5Ajs7jG4fSGxiW5cnmke/F4IQv4XZPwIOCWiTtnNmAFUdRFWfaxcZvZHpTU1TXW0too8MqurQRUFREUAAAQQQQAABBJwX0EFQtRW5tvqwj+bHU/0hNVhn0EFRU8y/ddXFniDE+UsSAAS8F9Cpdc/mF0hBYZH3O2ePCCCAAAIIIIAAAggg0CAEWrZIltQ2LX2ZIrc6IIKQ6nR4DwEE4hLQ5Lek1CS/mviWlFU81/UsCCCAAAIIIIAAAggg4IaAtgjXVuKBxERJDFxrMa7P66ulOEGIG9cdpUQAAQQQQAABBBBAAAEEEEAAASNAEMJlgAACCCCAAAIIIIAAAggggAACzggQhDhzqikoAggggAACCCCAAAIIIIAAAggQhHANIIAAAggggAACCCCAAAIIIICAMwIEIc6cagqKAAIIIIAAAggggAACCCCAAAIEIVwDCCCAAAIIIIAAAggggAACCCDgjABBiDOnmoIigAACCCCAAAIIIIAAAggggABBCNcAAggggAACCCCAAAIIIIAAAgg4I0AQ4syppqAIIIAAAggggAACCCCAAAIIIEAQwjWAAAIIIIAAAggggAACCCCAAALOCBCEOHOqKSgCCCCAAAIIIIAAAggggAACCBCEcA0ggAACCCCAAAIIIIAAAggggIAzAgQhzpxqCooAAggggAACCCCAAAIIIIAAAgQhXAMIIIAAAggggAACCCCAAAIIIOCMAEGIM6eagiKAAAIIIIAAAggggAACCCCAAEEI1wACCCCAAAIIIIAAAggggAACCDgjQBDizKmmoAgggAACCCCAAAIIIIAAAgggQBDCNYAAAggggAACCCCAAAIIIIAAAs4IEIQ4c6opKAIIIIAAAggggAACCCCAAAIIEIRwDSCAAAIIIIAAAggggAACCCCAgDMCBCHOnGoKigACCCCAAAIIIIAAAggggAACBCFcAwgggAACCCCAAAIIIIAAAggg4IwAQYgzp5qCIoAAAggggAACCCCAAAIIIIAAQQjXAAIIIIAAAggggAACCCCAAAIIOCNAEOLMqaagCCCAAAIIIIAAAggggAACCCBAEMI1gAACCCCAAAIIIIAAAggggAACzgj8DwAA//8iY3lAAABAAElEQVTsnQWAFVUbhj9hWbq7u1sl7VYsBBQ7QGmluztFUARFQhFskbBAShTp7u5lyaVrif97D/9c7r17c/fOEvc9uszcmXPOzHlmdvaed76446oWYSEBEiABEiABEiABEiABEiABEiABEiCBMCBwB4WQMLjKHCIJkAAJkAAJkAAJkAAJkAAJkAAJkIAhQCGENwIJkAAJkAAJkAAJkAAJkAAJkAAJkEDYEKAQEjaXmgMlARIgARIgARIgARIgARIgARIgARKgEMJ7gARIgARIgARIgARIgARIgARIgARIIGwIUAgJm0vNgZIACZAACZAACZAACZAACZAACZAACVAI4T1AAiRAAiRAAiRAAiRAAiRAAiRAAiQQNgQohITNpeZASYAESIAESIAESIAESIAESIAESIAEKITwHiABEiABEiABEiABEiABEiABEiABEggbAhRCwuZSc6AkQAIkQAIkQAIkQAIkQAIkQAIkQAIUQngPkAAJkAAJkAAJkAAJkAAJkAAJkAAJhA0BCiFhc6k5UBIgARIgARIgARIgARIgARIgARIgAQohvAdIgARIgARIgARIgARIgARIgARIgATChgCFkLC51BwoCZAACZAACZAACZAACZAACZAACZAAhRDeAyRAArYRuHz5ilyMjdWfSxJ78ZJjHdtZSIAESIAESIAESIAESIAEwoNA0qRJJDJZhP4kk2SRWF5bx/YbUSiE3AjqPCYJ3OYELl26LMeOn5JTp8/e5iPl8EiABEiABEiABEiABEiABOJLIG2aVJIpQ1qJiEga3y7i1Y5CSLywsREJkIAnAlevXpWYE6fluP5g/Y477pBkRu2NkOSRySRSf7C8Ucqvp3PmNhIgARIgARIgARIgARIgAXsJwCL8wkW1FNcfs4TFuP5Yc4YM6dNIRv3B/CExCoWQxKDMY5BAGBDAgyz60DHjBoPhpkmdUjJlTCvJIiLCYPQcIgmQAAmQAAmQAAmQAAmQQDAEYi9dkmMxp+T0mXOmGdxlcmTLZF6kBtNPfOpSCIkPNbYhARJwIQBVNyr6qFy5csVYfWTNnF5SJI90qcMPJEACJEACJEACJEACJEACJOBO4PyFi3L46AljLZIkSRLJlSOzsSJ3rxfKzxRCQkmTfZFAGBK4dPmy7I86IlimSpncqLiJZdIWhrg5ZBIgARIgARIgARIgARK47QjARQbW5WfPXZCIpEkld64sZmnXQCmE2EWW/ZJAmBDYH31Ezp+/KClSREqu7JkTza8vTPBymCRAAiRAAiRAAiRAAiQQFgQghkQdPOqYW+TOkcW2cVMIsQ0tOyaB258AgqIejTlpojznyZmVQVBv/0vOEZIACZAACZAACZAACZCAbQQQVHXfgcOCLJSZM6YTBFG1o1AIsYMq+ySBMCCAh9Oe/YdMpGdYgqRUtxgWEiABEiABEiABEiABEiABEkgIgXPqHgPLELjb58udzZbUuhRCEnKF2JYEwpjA4aPH5eSpsyY7TPasGcOYBIdOAiRAAiRAAiRAAiRAAiQQSgIHD8eYbDLp0qaSrJkzhLJr0xeFkJAjZYckcPsTuKzZYXbvPWisQaDSJtNUVywkQAIkQAIkQAIkQAIkQAIkEAoCsbGXjPU5rELy580uSTWbTCgLhZBQ0mRfJBAmBE6eOmNSXCFLTE51i2EhARIgARIgARIgARIgARIggVASOKDuMcgikzVzekmXNnUouxYKISHFyc5IIDwIILXVmbPnjZkazNVYSIAESIAESIAESIAESIAESCCUBOCGD3f81KlSSI5smULZNYWQkNJkZyQQJgR27ztoIjnnVbeYSLrFhMlV5zBJgARIgARIgARIgARIIPEIXFT3mL2anCEiIqnkz5M9pAemRUhIcbIzEggPAjt2R2l8EJFC+XOaaM7hMWqOkgRIgARIgARIgARIgARIILEIXNUJx47dB3S+gXlHrpAelkJISHGyMxIIDwLbd0WZgRYuENoHUnjQ4yhJgARIgARIgARIgARIgAQCIWDXvINCSCD0WYcESMCFgF0PJJeD8AMJkAAJkAAJkAAJkAAJkEBYE7Br3kEhJKxvKw6eBOJHwK4HUvzOhq1IgARIgARIgARIgARIgARuRwJ2zTsohNyOdwvHRAI2E7DrgWTzabP7RCBw/vx5SZEiRSIcKbwOERsbK8mSJQuvQXO0JEACJEACJEACYU/ArnlHWAgh0dGHpH27HpIrd07p37+r7TfTb7/NlMcee0giIxPnS+u//y6SLFkyS4kSRW0fGw6wccNmKVmquM9j7dmzT76Z9JNkzJRBGjZ8O07dvXv3S/v2PeXhh++TevVelyRJNAIOyy1DwK4Hkl0ALl26JIOGfGS6b9empUaejoj3oWJiYiRDhgy3XJBYTKSjog7I3r37JEPGDFKmdKmAGMyZO0927dojjz/2iOTJk9trGzDu0q2nHDp0WAb06y3ZsmX1WteuHbt275b+A4ZIoYIF9JnfOkGHWbR4ifz++wy577575LFHH47T1/YdO2TJkmXyct0XPd4Lly9flp69+knBgvnlxTq1JU2a1HH6cN+wevUaSZM2jRQuVMhl17y/58uUqdPlzTdekzsrVnDZZ32wjpc7dy55/vlnJEf20EZWt47DJQmQAAmQAAmQAAkkJgG75h1hIYRgUl671lv6hTSf/PDj+DjXbevWHYIvkYGW5JGRUrBQfo/VP/10rHw5/hspW7akDB7SSzJnds13vGLFalm6dKXHtt425sqZQ5597kmPu48di5FaL7wpZ8+eU/HlQWnStL7kVsHHKmO++FomT55ufQxqOWXqRBVzIl3afP/9LzJk8Ah5+unHpVPnVl7Fnn37oqTuS/U1s8gV+fnnryRnrhwu/bRt213mzf3XjKtbt7Yu+/jh5idg1wPJrpFfvBgrDRs3M91/PmqE1/vW3/F37dotQ4YOl6JFCkuD9+pJypQpXZpAbLkSxLPEpbF+yKriQf133nLf7Pczxnf23Fl9DpyVM6fPyDEVa44ePSbHjuEnRg4eOiTR0QflypUrpq+0adPKwP6945y/pwN17tJDog4ckAbv1pNq1ap4quLY9vXEbwXCybPP1NDn0vOO7Ym1MmHiNzJ37t/y1puvy4MP3Jegw/41a4588+338nSNJ6VO7Rdc+gJHiD4HDkQbceKhB+932Y8P//y7QMaNn6DP41zSu2c3j2KJcyOIHV9NmKQCUjZT31lInzlzlnz7/Y9GXOrbu4dHIW/27Lky8ZvvJHny5DJoQF9Jly6tc/dcJwESIAESIAESIIFbkoBd8w4KIXo7PPJwTTl58lTAN0aBAvnkx5/iCiroAJYOrVt3lZ07duuX1iwybFg/KVqssKPvMWO+ls8/+9LxOZCVO+8sL5+PHuq16sqVa+WrL7+VBQsWmy/ItWo9I/XffUMyqTXGsI9GySS1zIAgk1bfNAZTJn0zOs6Ecf36TdKmdTc5cuSolClTUj4c2luPk9Fjt+PGTZJRI8fJk08+Ir37dHLUWblijTRo0NJ8Uf958lf6dj29Yx9Xbg0Cdj2Q7Bp9qIQQWFR8MmKURB88aCasHzRrbCa61nm/26BJUKKq1c5a5s2TR3r1jGu1hknuvwsWmr4h2l7SnytXLsvFixeNCAprDH8lc6ZMkjdvHvOTL19eKVWyhKRKlcpns23btkvf/oMkQ/r0MnhQP48TcOcOILZ06tLdWMx8OLi/38m/c9uEruMat2jV1jAaNnSwijwJc8/xJYTgXDdu2iyDBg+V1KlTSf++vfT5el14QKq3Tp27m/ukWdNGctedFf0OD9e1d5/+snvPXnni8UeNpYnVCPu6du9lhJcX69SSGk89Ye0yS7gjtevQRU6dOiXPP/eM1Hz+WZf9t8sHjBN/e46qwHfh/AXJpH/XYA2ZPl26RL3XbheeHAcJkAAJkAAJ3AoE7Jp33HRCyCF9S3lZ32bm6DNA7nCzRojvhfJnEdKpU285e+ZcwN1nz55VOnZq6bU+3sp26dJP/pm/UNKnTyejRg1xiCFr12yQ1avXeW3rvANf+CBi+BNCrDbot2/foUaE6dyltdSsWcMhhHTo2EJq1w7Nl2OYvrdq2UU2b94m+fPnlc8+/9B8GYXosXz5aut0BKb4G9SN5g5N/Fy2bCnHF1VYi+BtdUY1z8+XL4+jPlaaqkVLxTvLuWzjh5uPgF0PpGBHit+16b/+4bcZRIOZf8029eDikSRJUr9tqqv1A4QD93Lu3HkZM3a8rFi5ylhUtGzeTIoWLWKqQQjBJPiT4R+6NzOf5/+zQL7/4SdjZeA+mUWFJEmSeIyvsWXLVhn84TBJmjSpihFJdRnhWIebD4TcM2fOGAuualWrmN8tCJQZM+Ing2TKmClewsDY8V/Jv//+Z6w7YOWBAtGldduOZt3TP5iMg0HaNGnkDh2Pe6ldq6bcr+4moS4LFy6W0WPGyT3Vq8q79d9JcPf+hBAcYPQX42ThosVy773VXSx5lixdJqM++0Kfj/mkR7fOAZ/L/v1R0qNXXyPmdO7UzsVFZt269fLhRx+b+wPWPOl08m+Vyb9M1d+D340A1b9vT4/3EK5bg0bXrKKsdsEuYQVVtUpl0+zX3/4QHBfloQcfkDdef8WsB/MPLGvad+xi/h6gXa8eXT26X8HlacaMWbJ02XKPQiPcsHB/Vq9W1fwOBXMOrEsCJEACJEACJHBzE7Br3nHTCSGHhwyUSwejJecgtYDQCXQoij8hJBTHcO/jypWr0rPHQPUx/8uIId9+N0ayZs3sXs3nZ7jsvPrKez6FkBkz5kj16pUd1h6xsZfkzz9mOVxpLIuQJk3qS42nH/N5PGsn3qT6M6vGZLD5Bx0E1igQM2CxMmjQJzJ3zj9WN/FaDh7cUx586N54tWWjxCNg1wMp2BHA7aN12w7BNguofuOG70nlynd7rIuJ/k8//yK//zFDIjWAZdMmjaRcuTICIQRlzOiRHtsN+/hTFULXSJfO7V0muR4rB7hxs4okHw37xLi9tFBRBpYe7mWrWnYULlQwqEkifsdbtm5n+h06ZIDGuLhmUYYJ9XsNm7ofIuDPr736sjz6yEMB1w+04sBBH8qmzVukg8YGKV68WKDNvNZzF0JwzSHqOpeTJ09Kx87dJXv2bHrcNg4Luu49+8getexo2fx9c184t/G3jnvqx58mS4EC+aV71+uWdGg3XO+fzVu2qFtWfalQ/ppgfPzECWmv1iCwDvJ1PH9CCMZnFfdxWtudhRAIL5YQAnecD/UeSe3Hwsjqx1ouW75CPh35ufXRWEPBKsq5wMVo/JdfG3ENol/+fPkkXfq05l4+euSYHIiOlgsXLpgmhfQex/VnUFlnglwnARIgARIggVubgF3zjptOCDkyfKjEHoiSnAOGJOiKLfxvqaxdt8H0ceL4SfnhhynGBePFl677rb/55sv65ix5go7jqzHednXvNsC4jrRs1dhXVY/7/AkhCJLaskVnI4K88UZdefmVWnHe+lpCiMcDeNkIRu3afeBl7/XNeBvftEk784X0408GmDd1MFf2VJo2a2csVWCZcv991TxVMdvSZ0hn3mp7rcAdNwUBux5IwQ4OE6DFS5b5bQbXgglfTzL1EHASlhX+SsmSxSVrliw+q2Ey+Kv+NP+/AOEshGBiuXrNWkf7qyqOfvb5F3JFtzdu9F4cUaKAWg8gCGswZcOGjTL8k5FGrPjg/SZStkxpl+Z4Bn3z7Q8ye85cyZUrp3Tu2M6vO4zVwbTpv8kvU6aZWBuIuYECcQRCKSbVzgV1wQJxOSB0WOX06dPqOpLaRUAAe28TbatdsEtYqXXo1FXF5qwaqLVXvPs/pLFU1q3fIOVVZFixYpUjRghEhgPq9tO6Zdzn4uHDR/S41++TNWvWyUfDP5EihQtJ507t/Q4FcUYuxsY66l3VawbrJVgkpXWy+kCFE8dP6CQ/QlIpU6vMmPmXwBqmZIniUlcDtzoXiHQ5NcZUIAXWIrDia/FBUzN+f22chRDUfenF2vLUk4/7a+ayv//AIQJrJ6vALcxZCIHV1YhPPzMiyJNPPCbPPP2UuZ+s+lieO3fO8MI9iPvd3TrHuS7XSYAESIAESIAEbj0Cds07bqgQcnHnDkmmb3/uSHY9IOdRDWQYG7VfcvTuf/0q6ZebC9u3SfKigb/l+3DIp/Ldd5Ov9+FhbeZfPxuzcQ+7QrYJliHxzYjiTwiBOfx4Dcz6w/dTzNtAxATp0aODVKteyXH+lhBy//3VTUwPxw4PK9u371Tz4zkSqBCCLk6dOm0mlalSuQaNdO4ek5Sna7xsvsD/NesX41PvvD+Y9YWLVqtv/g7NkFNQqlf1nD0hmP5YN34E7Hogxe9srrfCpCqzxgxAPAzn4i9GyPz5/8ppdS2x3Eqc2/pbR7wC63jOQggmlcG4IkAcqVzJswWKp3P4b+Ei+fKriebtd+OG7+rvt6sIApEI7hkQY5Cx5P2mjaVYscAyS51RkbNtu05mYglhwRJoBujE9YRaQTRTCxgEAUWBVQTiU6AMGtDH4bKxVl05Ph89RjOuPGLiVpgKNv1juYbA7QaT5fgWy72mbesWsl/jwVjBUjHBnqEBS+HyhLgqQ9VFBdYnngpEN9SHm5Oz4AZLBVgsuJduPXqbTD7u20PxGa5dcDcJpCRUCMHvwKCBfeMIfN6OvXv3HuMG5LzfXQiBpdOatevU3amauju97Vw1zjquz3caUBYllBZXcQ7EDSRAAiRAAiRAAolKwK55xw0TQq7GXpSD+IKmpsYpK1SUlHdXlsgCBeXY2NESu3+fZO/WSy7p27lzSxfL2eVL5cqpU5JVTeAjsmUPCDwCcm7ess3U3bc3SpDtBD7z79R71dH+hReeNhH2HRtushV/Qoh1ukgP/Nmo8fLPPwv1i+BYFxccSwgJJEYI3FraaZrhYIQQ6xyclyM++UKD2cU4NkUfOCjLlq0y7jb3P1Ddsd15pUaNx6RSJd8BBc+ePS8TJk5zNHv91Wd0guc72KOjMldCSsCuB1JCTtLKrFG1SiVp2OBdl658CSGwbkDMC0zoYVVRsUJ5l7bOHyBuII4D3BY8FU9CSO5cuczbck/1sQ3uATD/D1QIgQAK65blK1aqm0Be45bjbJEAS5QjR4+aoK579+4zFgEtPmhmMo54Owf37ZawUEeFhaf/LyysV+uTIRqnBFlN+vXp4Zjkjxn7pSz4b6G8UPM5ee7Zpx1dwWWjW/feJnYJUhaHwl3F0bnTCkSHNu06yokTJ2XIoP4JErf/mjXbWND07K4xkFRUs4QQCEiYlOO+wv2F7EAbN24yQWSdxQ6n03KsntS/XbhvYB0CKxH3YgkhSJkbmfz6SwH3esF8hgi2Y8dOE+PGbiEEFiewDgT/Jo0bSKW77wroVBFnZ8F/i6SEujFZopKzEIL7uOn7LY3FR6ABZ9u17yyHjxxxiWkT0MmwEgmQAAmQAAmEGYFjMSckXdrUfgPh+8OC79EnT542STr81Y3vfrvmHTdMCLmsX5JP/TZNLmzaKFfUtBUlIms2uaowr5w9I8ly5JSLu3eZ7XeoeW9kkWKS9oknJVnuPGZbMP+MHDlWxo/7Jk763J079wQcuNTT8apVq6S+4VnNrjVr1stxNVt2L6VLl4iTQte9jrfPgQohVvszZ86at3ED+g+T116vo29/iziCpT5V41ETa8Sq62m5edNW+emnaQkWQpDOF9lzgint238gdV687rbkqS2+GH/7/R/mly2t/uK++nKNeJvAe+qf2wInYNcDKfAziFsTbhiwTEBmiS6dO0ihggUclXwJIbAGGf/V11Igv8Zk6NbJ0cZ9BW/6YQmACfJrr9SVhx56wL2KS4wQyyIEk+iO7dvEqWtt+HPGTA2g+nNAQgjSw+J8cS6wOLizYgVjDYbffQRLNT86KYU4gAJXmUZqLeIvO4x1LlhaFh6IE9SvT0/zB/L48eNGWNmxc5c0bdxQ7r77TtMErjkI4pojR3aBeOCebhtuIsM+HqFxktJrStiujjgjzsdL6LrlilKubBl1FXw/Qd1ZAhBioixbvtIhhCAQZ5NmLYxlQr133nQIIUhlC5cjX2WwiiYbVDTxJ4QgACpEplAUiHVI75sYFiHIQIT7cMrU6VJE00rD/cpfwT0G8RFfniA+fqzuXSjOQgju4febtzYiC9zZPKUodj8Ort+8v/9R0a2ouU/d9/MzCZAACZAACZCA6PfIK/Lf4pWSUkNElCtT3BHjLFg2+H69Zt1mOauu0/dUreh4SRZsP/7q2zXvuGFCiGPA+mXn4q6dcn7DOrmwfr1cOnLY7EqivtEpSpU2PxBBIIbEt7xQ8w1BphJElp86baJD+cKkf+CA4fHtVt8Q9lV/5KqmfZPGbWTp0pVx+kJ6WbiluBd3H3v3/fi8bdtOjcTfyGewVOd25zU+R4vmHU3mlnLlSmtmi+EyfNhnJvOMcz1/694sQiD0eBJ7kP7WOQWuJYR8NWGk/oL5TmH588/TjbVOIEIIzhvcoqIO6+Qjm8me4W8s3G8PAbseSAk9WyvQZNGiRaRTh7aO7rwJIRDXunTtKVEHDgQUGwEixNeTvjX3ISZmr7/2iosrgCeLkIIFCxiRw3Eybit/68Ttt9//DEgIgWAC4QQiCNzRUqVKbVzNEIcjVcqUsn7DBhVDzhqBEGlUYaERTDwOCCxWmlbEakAMJbiI4I0/Clw7uqrIhBITc1x69u4rp0+fMa4IEJLQHgFsYZFyVLNeYTnv7/nGWuCuuyoalxrTOIT/INgmrGoCtRrwdWgIYrjGoz8bYSbUlkVIndovmDTCsMaBYGFZhFAImarBsvNq7JTmJmgxns/dunTUlw4FfGE2osnUab9KcRUJEfjVCnjsLISgAwgkK1etNlZNcFdCFiQWEiABEiABEiCBhBM4eOiobNm2S1KoNWq5ssUleZDZWi9cuGhEkHM6/yxWpIDkyH49XlrCz861B7vmHTdeCHEa54kfv5ezSxYhh6Rxk8nUoLHcEUBQQ6cu4qwifetbb17L5ICdcMHo2evaF3mksp077984bbBhyeLlJj0s3DVKlPQcm+S5555UE/l8pv2ECd/Lzp27HX2tXrXOWEV4EkL27tkvtWq96ajrbyWQ9LkwhW6pKW2XLlmhk5UCmtbxI5OtxnKNqV//dXn0sQf9HcrsR8pfTxluxo6daFxw3Dt59703pGHDtx2bLSHk7/m/msmaY4eHFavPQIUQD11w0w0gYNcDKaFDwUSsY+dugtTTzhNjb0IIMrggk0vBggXMBC6Q42/bvkMDOI4yk/sqlSvpRK6eQwzxJIQE0ifqBOIag99zvClPoQKjs8CB8Y4d96VxMUDa2gYN6kuZ0qXMoREAFLFEKlYsb+J1+Dsf8IvWwKAoKVVcQUaUXbt2m+NZljZHVeAYOHioIFAo0rhmV5H5iKbEhuUIxCVv5YNm6nqk5xGqglS9LVu3NxYvH304MMFvInr16a9xj07J4IH9xD1rjGUt8tHQQSZtLlxj7BBCIObNmTMvXojuu+8eE48lsS1CYA00dpymWl7wn4mzg98JbwW/o5YrGn5HCxYo4FUIgcsMXJIQrBZ/l555uoZU0yCywWan8XYu3E4CJEACJEAC4UzgsGZf27Rlp4aKUDGkTDEVRZIHhOO8fh9ds26LZm27aESQ7NmCy4wa0EGcKtk177hphJAzf8+Vk79Ok1SVqkhEjhxycvpUSVmpsmR46RUnDMGvQgj45pufzZdzRNtHetl69V6Txk28f1HDUQYN+lh+/GGqtG7d1GRjCfbIPXsOkl+nzxBfQgh8y9NrGkB/BdYdg4f08lrNZExo31PWrt0oefPlli++GOZwx7GEkEBihHg9wP93zJr1t6bmne2odvDgIdmk7jTehBC440RERDjqe1rZsnmbEZwohHiic/Nus+uBFIoRL16y1FhYvPxSHSlVqqTp0psQYqVchUsFXCsCLYhDgMChsH5AphRkVYEAUP+9xpJM7/nP1aLAco3JkT27Bgt+0mvXCCq6ZOmygIQQT53AguFbDRIJl6Dy5crKO2+/aSaNVt2YmBgNStlPLTdOS5tWzaVkybjpda26WMLd5bKKLXk0GCrewFvZQe69p7rUr/eWqQoXHLgtOIseSKGKyWombYPsLbDAy/b/ZYwKJHi7j/769elhhBzTUQL/sQJkPvH4o/KyW8aUYLuGwNSoyQfGnej9Zo3jCCHRBw/KgahoKa0CE9x97BJCwHvW7DkBnz7ubVx7FIvDjRBCkC4YaYPxd23IoH6OALvuA0E8mTFjv5QsWTKrdU0fY2XozSIEbbdu3WbESssqCdZQiCtSUd1x7rqzYoJiwrifGz+TAAmQAAmQQLgROHI0RjZu3mHcY8qrm4y/jKrwQFit7jD4/lGiWCHNsGi/taZd846bQgg5v36dxHw1TiKyZJEsLdoYNxgETb2weZOkraEBMR96JF73JN6e1nz+DSlbrpQgEGjBgvmkfIWyMuWX36RTp5byQq1nHP1aaSGtDZ6EEJiA48syfOf9lUCEEMTwmPTN5/668rl/iVqAdOnc15ipwzplxKeDHHFL0NASQjB2vNkNpkAsKlWquNcmv/46U3r2GOhVCPHa0MMOCiEeoNzEm+x6IAUzZFgl/P7HzDhNrso1i4Q75A7HvitXLhtXB2yAcJEkSVIjVCBIKcS6+++711HXeQXuJd5+3yFAjvxstLz37juCgKiYjDZu2twE0ITVgCWEhDJGiPO57du3X77/8WdZp0IKLEReefklHcc9zlUc65hMwoIDqW+7de3kNy2w1RDWJF00cHUydU3s37ensf6w9iE2B/qD+IEYIBBCfJVRmjr47Nlz0kB5pU3r/xnqqy9rH9ya9kdFSZ/e3c01sLbHZwmecAuq+fyzxqrC3SLEuc9QusZggo+/K4jjgkl+oAV/s2b+NcukjoVLEtLLIn0trgP6Q7/XXKgCCygd36wxcI2BRQgKxEHE0EFMlVoveI751EPFkt0qmtRVoRLnDDHRlxCCfvG3fOGixbJo0RLZoveyJcDBKqqwumvdrQFa76le1ZYYNDg+CwmQAAmQAAnczgSOHjuuYsh2fZmXzFiG4Pudp4LvHrAEuRgbK6WKF9YX7xk8VQv5NrvmHTdcCEGq3KOffixX9YtclvdbOIKhIkvMYZ1MXNE3jxnffEdSlCkbNNQxX3wtX375rQb5G6jm6y2MEPL1xM/kjTcay+5de421BmJ8HFWTbqR3rVr1bhk2vJ85jrsQgkl/v74fqsn5W/L2O6/6PZfEEELmz/9P2rbppl96r8o991SRPn07mzSZzidnCSHO2wJdH/5xf6levbLX6v6EkL/nTzdf7r12oDvGjPla355/KRRCfFG6+fbZ9UAKZqQ7d+4SuDLYWfr366U+j94zVWFCZrmoIGZGqzbtTTwDBBm1hBDE1YCFgbcyd+7fMm36bwFbhMAa5Zcp08ykEH0i5e+LL9YyAozzMTAZRnprZG+By8qsWXNk3foNgtgfSC/qHtjUua21jkCosBCBlYk3kQXuRZjY4u28lVIXFiOI3ZE5c2aHFQkms/7EEuu4gSx37NgpvfsOcIlbEkg7b3Vwfkg1nFMtEhFkNBAhBMFNYWnoq8BtCX17C5bqq62nfbieuJZz5803GVVgqVPrhee8WmB46sPTtlAIIchkNOLTzwTuWR8OGWAENOdjbVGRpL+KJbgP4MoE16tAhBDnPhBodcXKVbJixSpNpb7ZxOvBfoh1995TzVgGBXJvO/fJdRIgARIgARIIdwIxmkVm/abtJgZjudLF4oQ3wMusNeu3mL+7pUoUUQvg9ImGzK55x40XQvbvl5gvx0rq++6X1Pc/6AIUGWViJk2QjK++LslLlnbZ5+8DUsrWqf221KxZQ16qW1Nq13rLCCE//DheNmrckHfeeV+DkJaTkaOGGAuRvn2HSp06z0n7Ds1N1+5CyJYt2+S1Vxsa65Jx4z7xd3hJDCEEJknNmrWTMmVK6vI9fft3/Q24dYKYqOEHARQxKUqdOpW+jU1j7fa59Pd20r8QwhghPgHfwjvteiAFgwST7bXrNvhsclYzUE365nvz1njrtu2mbsGCBTR+zz79fa6rlhQpfbavUL5swG4cCLjauUsPPVYhIzRYQojPAzjt9BcjZOZfs2Xrtm2ycuVqE5QUTeHOg4wt+P2GBcAZ/CiXM2q9hrStEEM8lYcfelADMft2O5w9e65M/OY7KaWuNG01/S0KLA9ggZJf0wdnUCsQlBEjP9MAzSulVctrbiXYhlSqLVq1lVw5c0rfPj2wKeQFcU/+nv+PcUuClU+oSyBCSDDHDIUQgvghEMEQZ6O0un3VrVvHCFvBnIe3uqEQQnC/te/YxcToeeetNzRQuKullXWvPPLwgybQMM4lWCHE+fxhhQXLpHl6H8BVCQVpmls2bxZS0c35mFwnARIgARIggduVwPHjJ2Xdxm3q5ppEypUurvPGa9+Tz5yBCLLZZJspXbKIZMyQLlER2DXvuOFCCCheOacmvJiQqJmre7kC8141GQ62dOzQS+bNW6BfGr82gdachRD0hXS6Dz9yn+TPn1czrXSSBQsWi7MFhLsQgjY1n39dDhyIlhkzf3bJkoJ97iUxhBAcExMT+GT7Kz/8MEUGD/pE3nyzrrz/QQN/1QPa708IyZkrh5Nzgucu4W6ETAy0CPHM52bdatcDKdTj/Xz0GFm6bIV0V3eQbj16m+579ehqLAkqlC8nTRon7HcBk/GMGTMYl4SdGlAUrgFWGldMCifrpNW5HDt2TBYuXGysTO66+1oKWmt/VQ28midPbutjnCXepOONuq8C6xQIn1mzZDGucHBZsVxXsEyjb+pHfzHW/M61VuGijKbX9VQsVxpkounevbMgHhBiryzX7CwQXXp066zPzmuBovv1H6QCzXYBV1hSoNgthMDCokWrdkboGTZ0sHHR8TSOhGzzJYRAhL569ZrINHLUaFmzdp2mB+6msVGyyD4V9/v0HShFixbRbCofOE4BVgqW9ZBjY5ArVoYcuJ3A/SSUJRRCCM7nzxl/aTron4x1UJ9e3R2nCMsYiCS4P/upm5VlaZUQIcTRua4sWrzEBGyFSFRJXWUS+rvt3DfXSYAESIAESCBcCJzQedm6DVv1OwvEkGsJQ2AJgu89ZUoW1e+VoXFvDoanXfOOm0IICQZEIHVXrlijLiwt5VnN6tKtW1vZs2efi0WIcx8w83ns0ReMmDBr9hRHHmVPQsjHH4+WrzU7TI+e7eXppx937ibOemIIIQjcd0oDIAZSZs6YK1999Z088+wT8sortQJpYsyW8+b1PjHzJ4SUL19Gkqii6KtEH9AAhPoTqBCyY8c+2bx1lxQvWkBN4q9Nunz1z332ELDrgRTKs4XgMHrMOI1D8Li8UPM5adi4men+81Ej5C+NrfDT5Cny6isvBZRJxdN5QRTt3LWHCQ46aGBf+fff/wTpVx9/7BETr8NTG8RPgFiCzCnIoBJMgdgQpfEwUqponEJ9N+FWgPTU8ONEjBB8/njEKIGrSqOG7woy2ngqixYvFQhEGTJkMLE13DNwQGz5VCf3cEGAMIMsKhA2UODyUKnS3cYVAyl7UTC5RbyU4R8NdsQQsVsIQXYSZClBXIh3679jziPU//gSQpyP1bZ9JyMsfTbyYyN07N23T7p1720sEzq0a+1c1eP6jh07PW73tPGnn38x7iBIi4zAuIGUggULBCTAhEoIOXfunMnkA7EKlkSwKEKxUj9bQqHZqP94E0LgZgOBKadaPOF3OJACd6EJX08y1iCffvJRQC8JAumXdUiABEiABEggnAicVC+Cdev15dv/bRT0HYaULV1U0gXoVRBqVnbNO25LIWT9+k1S751mAjcYWHz4EkJmz54vHTTjyoMP3SuDB/d0XDdPQsi6dfCVbyaPPHK/Tmauv+lyNHJaCbUQgjSzD+k5FipUwHGUtm27y7y5/zo+h3qlQoUy8sWY4V679SeEhDp9LlI0TZg4/f9WMEnkjdee1Qmg7wCNXk+eOxJEwK4HUoJOyqnxMrUC+Uwn+zlz5pAundobVdtZCImISGrScq7X+Bevv/aywFUk2PLVhEkagHW+1KlVU4XRpxwTPWSQsVw1du/eI8diYqR4saImXo67EIJJIyxW8qrgULBggaBOAdZUadJcEyOshkgF7C6EYEJ6IDpaCuTPb1XTWEgjpIC6t2BC7e4CN+qzL0wWG6syRBZMuqtVrWwsSJwt0PB2H5lW8BZ+zOiRjgm33UKIZR3ToX0bw9Y611AuAxFCcP2aNGthWMLqCCUYIQRWQ8g0ZGf5fNQnAcWDCZUQgrFMnPStzJ4zT8qr1VWLD5qaGCmt2nQw7lutNXORldoZdb0JIcikhHsRQt+Ijz+Kc5+irXux7jts79q5g4kf416Hn0mABEiABEiABPwTOKXfM9dCDNECESSt23dO/z2EroZd847bUggB9nHjJpk0uVj3JYS8925zWbVqnXTv0V6eeeb6WydPQgi+9D/5xIvmS92s2b/4TA3rSQhB5pqHHr5P9u7ZL7VqvSmBZo1BhN7773vaBOX7d8GfjlggP/00zaSexRi9lTkq9ODLevHiRdW3f6OaaxcSxE9Bn0888bAki0zmramauec2rjTeKiS2EHLp0mUVQqaZdE0IUPjm68/5DVTo7dy5PWEE7HogJeysrrWGxcMXagkCVxBMhpCyFa4MzkJIpN73iC8A64xrGSxqB/zWGUeBCIFMF5jIDh0ywGRBGa4ixCq1xuiok3NkikGB4IAAnJ06tDWuEu5CyA4N+NpbA74izW/b1i1Mm0D+WblqtVp1jJVXkSnGKQ6DuxACgQIZTmB1gKwyjzz8oOkezzJvbhqIQQI3mKJFCksRde+ASOMulljniH4RsBRZc5C5xSrWhNQ9RsjFixcDmpRb/XhaIo1tx07dND1vNk2/es3dyVO9hG4LRAiBEAZBzDnmSjBCCK7DJ5+OCvhUd+7cbQLfwi0pU6bA0tU1adTA598q6+ChFEJwjTp1vnY/9O/bS9Zv2CBfT/zWxIzBfeJ873kTQqx7COfXrm0rKVnCewYzawxwv4GFDsqgAX2Nq5K1j0sSIAESIAESIIHgCMTGXjINMO+6kcWuecdtK4Q4XyxvQghSzzZt0tZ8oZw2/Zo5rdXOkxCCfUhVO2PGHBk5crBUquzq42+1xdJZCEFmmo+GjpLvvpts4osgkGEwQsi+fVFq2v+GsW756ecvnQ/jdR2xQwYMGG4CwcI96JxO+qwYIffdX92Mu7imPRqkVjBZsmT22o+vHf6EEExEnb/weuoLk1Hkow7UNebQoWOyY+c+KVQwj06EMnnqktsSgYBdD6SEnDom/T/+NNlk+4ClUMf2bR0xKzwJITgWMnD06zdIkImlWrUq8tYbrwUUZPG33/4wrjVo0+DdeibuwfvNW5s33p98PFTgboK+W+tb8CxZsjgm7O5CCM7h4xEjTQBUZHJBoFV/Zemy5UYEwe84xA244ljFXQjB9gX/LRTEMgGfe6pX0+Cir8XJ5mG197fExH2NCjv58uUzsVGmTvtVpkydLk88/qjJ1mG1tyax7kIIxIU5ainQqNF7kj9fXqt6UEtcYwQNtSxxgmocRGV/Qgj4t+/YVS0ajhkRCGNF8SaELNP4Ktu37zCiCWKJxKdYMULerf+2uZbx6cNbm1AKITjGR8M+Ma4tEN9geRUdfVDe1N+vhx683+UUvAkhqNS9Zx99kbFXn/VZTVwauH/5Kt9+94NJJ5wuXTrjquWrLveRAAmQAAmQAAncGgTsmneEtRDybv3maka+zgQPRRBR5+JNCJk69Q/90jtEXtY4G61bN3Vu4rJuCSG9enWUmTPnavyARSZby/gvR0gSDT4TjBCyaNEyTb/Z3qTItdL7uhzM7QNcgwb0HyabNm2V9xq8aVL+ugdL/eefRdKpYy8z6WvU6G2pVftZr2993bo3HxHgtHOnPprCc5lUqXKXfunt57DOaNSwlURp3I9gSuNG78hTNR4Npgnr3kACdj2Q4jskZGyBhQQmTRD2mr/f1CXwqDchBMdDLAwICEjHmz17Nk1j28DnJB0T4DbtOpk385b5vWXZgVS52IYy/dffZfIvUzWexvXAlp6EkH379ptAruXU/QRuBL4KYmOM//JrY4nyct0XjQDhXN+TEIL923fs0DTio0ysD1gTgA+CvAZaECdk/j8LjCsQ3rojWCrihyAAbVTUARMU1Dnwqjch5M8ZM40Lkbt7RKDnAQsciEvIiPPh4P4JThnr67j+hBBrLAi629zpunkTQizRqGGDd6VqFc/xW3ydD/bdSkIIUjV/OHS4EcMhoCFj2dAhA+NYBPkSQvB73bvPAGO9Bdeu2rVrurjVWLz2748y4th/CxeZTa+9+rI8+shD1m4uSYAESIAESIAEbmECds07wlYIWbx4uTRr2k6D+6XVCcs3xn/f+f7wJoQgsOdzz76qk4BcJiONcxvn9e7dBsjvv/9lcjAjIGvJUsXVQqOb5NJMKpZrTN58uWXy5AnOzTyufzF6gowe/ZW89lodadHSuz/59u07ZcJX38uff85SUSJSunRpLU8+de1tsbsQggPt2LFL2rfrKbt27ZHChQvK66+/KI8/8VCcL6ruJ4XjINMOXGysUlFTEQ/UuCnBTK6stlzeegTseiAFSwLpYqdP/83EI4DFA1JnNmvS0GRHce7LlxCCenDZQEwRuIXADQSTqOefeybOcwF1Fy7SIKxfjDMxN7p3u2aGP03PAWlNaz7/rGkXo3FBOqprwFWduA8c0McxYfckhKBPy4WmZ/cuam0R11IC7m0TJ30n1kSv7kueXXm8CSE4RkzMcWN9skuz28Aiob26G2TO7N0aDAIHJrNIl7tx02ZjUYL4IMjIgYnmTA04C7EHwlO/Pj1drEy8CSEQhtCmU8d2xvUG5xVMgesRXJAQs6SFpki1s/gSQpChBPcAeCAGjZVBB+fjTQixYsrEd+zo+1YSQiB+dOnaU0XxAzh1qfHUE/JinbiBun0JIWiH30mk3YUIhgJrD2RFypAhvZzWVNGwyDl8+IjZh3/crZMcO7hCAiRAAiRAAiRwSxKwa94RtkLInDnzpVfPwfLKq7WlYcO349wUvXoNlunT/jRWH7D+cC5wU4G7ypSpEzVF4DVzaOf9Z3Vy9tyzrzkyLbz0Uk0jYFj+VadOndZMFbVM0M/+/bvKffdX07dmcbOrYPKzYvlq6dFjoJrcn9M33kPlzjvLOx/KxD74778lKqhMl4X/LTX7Sqno0rlLKxODxKrsSQjBPvT72Wfj5acfpwr8wPDl8umnHzOxTMqWLe2IR2L1g9SZb7zeSPbu3S/PP/+U1H/3Dfnkk9Hy18x5Gpgyu3RVN5y77ioflHWJ1TeXtw4Bux5IwRDARHXqtOkmnSvEiyefeMxYXzgH87T68yeEoB4mbhA08INJV9q0aeUlnbjde291qxuz7Nmrn+zavVvq13tL7r2nummHzCmYjHXr0tEEPcXEbfnylUYUgThiFW9CCLJjwJXgbk2p27RxQ6u6WW7avEXGjBkvR3XClzx5cnldRQj3c7IaWIKKt6wx4DDs4xGyceMmyZwpk8ZeaGlibVjtscT45/39jwonMY7NcHN76MEHNAjs/Sb2CjJ6IG0smCEziHv8BljZNG/Z1rg0DOzfx9HPp6M+FwSyRVrV3LlzObYHumK5ETVr2kjuurNioM3iVc+TEILxzv/nX81M8o0ZOzhXrnS3S/+w8OnavZe5D3A/WAWZZCCSfDh4QMDxPay21hJWPStWrtJMOTe/awzO2Yqhgt/PwQP7eRy3PyEE/cB17Q91h/p3wUL9OxWLTS4FLpi4H57QZ0CRwv7dy1wa8wMJkAAJkAAJkMBNTcCueUfYCiG42kj5iIwIsAo5duy4LF26wkSoh1AxfNjn5g3qpxoLpLJbLJA/fp+lWQLyGisPT3cNApHWeOolnUxdVWGgjTz66ANxqiE2CWKUBFoKFsqvMUbGOoQJHGPoh58Kst7gfFEyZ84kTZvWNyly3WNzeBNCrOPv339ARn46VtOKzjNf8LEdwfgmTvpc3x5ff2vcsWNvmaV17rmnik7c+jpigAwf/rlM/PoH0x14FtLzxZviNJpmKULfmmJyekeSO0x9/VeuaC5quBhcuXxtCRHmgr6VL1WymLzh5qZknSOXNw8Bux5IwYwQFhKz58yVIhrU8+03X/c5sQ5ECLGODZHjCxUeYBHx6it1VbR82NolSC2LjCXI1gIz/2TJkpmJKSaosOSARQesSz786GM5opM3BIrEJBDWKhAx/vhzpoljYsUWsTrGBLtDp66mLvqIjIw0uw4dOmQsSyDMwOqgkbpV5NB0olZBUMqzKk4m15go51TURPpcuLG00cCrpTUAq6eC84NgAisPTyl0rawx+P0tX66cVChfVkqWLGF+h3GeEErg5oF1X2/fEbTy6NFj8qDGhEilMVNOHD9hLFrAbOSIYUGLpbAyadWmvbpYpJaPPhxoe2pUdyEE7hdfTZgoSGOM8tKLteWpJ68H2LZY4157v3krc81x78CCYcOGjSZORrABXnF9kyZJatKQ47p+NGyEceV6v1ljubNiBeuQYbPE7xHuqaNHj5oXDWn170sm/bsHUQ+/XywkQAIkQAIkQAK3HwG75h1hLYQ43yZ4K/XE43WcNxkB4Nffvgv6Czs6mTz5VzUhryhwf/FUdu7YLcj6gtghSAvrqSRR4QDpP0uqONCo8TtxUmW2ad1N/v57gb55zCd1X66llhyPe00n608IsY4fFRUtU6b8ptYwM0y/I0cNsXbJ1q07NNVoQ2M18uNP442A5NipK4i38vWEHzSY4nojIjnvC3S9eYtGxkUn0Pqsd2MI2PVACmY0EAOXr1hhgka6C3/u/QQjhKAt3jojKGn1alVdurJEAmczfyv2A4KmQuBAgUiACRvEhAMHoqVTl2uZMrAdpXHD91RgdbUkQOwNiJnuY4HwgLHWrvV8nOwfM2bOku++/9H0af0DoWD4R4N9CgUQQ2CBUrZsGeOyYLXFEhP9VBqU0pPFxunTp1Xc7SUn1OIDli5Iv+ut/DVrtvz08xQjDDnXgcuRs5WM8z5f6wiQikCpvsQXX+2D3ecuhFjHh3j09luvG/ccb31++dVE+Xv+Py67IZ7VfamOsSJy2eHjQ7v2nY01hHMVTPg/HjbEIZY57+M6CZAACZAACZAACdxuBOyad4SFEIJYFgjsifgcvftc8+n3dIN8PeF7Y5WAfUgzW61aZf2y6T29rKc+EnPbwYOHNcDjbhOs1H3y5H4eyHQzftw38tzzT8qrr7oKPu518RnWGidOnFKrENeAiv/MX2isOR544B5PzRzbEI8AAVVhrYJJ12W1/MAk0FiB6Ntta0LoaPD/lVKlSsQ5pnsdfr7xBOx6INk1MrxJHqpWGiitWn4QR1AI9LhnNCbB3HnzNdhlZSNyWO0gSCCuiCe3HNzriO2A3wNYblSsUN64U0REJDwVGVwtfvxxsnUaJktO1aqVNeVtHsc2byuwMoG1SrBlm2Y+Oa6/33Dj8Vcw5m0qrMQq/0i1BEGAVbgcxacgGC4yj7z37jv6LI/rkhifPn21WfDfImP9giwncLvCswsxTmrUeNJkBfLVFvtgcbhDA/CqLGasWEr936oG+wItuK82b9niqJ5L0xRX1hgtnuLIOCpxhQRIgARIgARIgARuIwJ2zTvCQgi5je4DDoUEbgoCdj2QborB8SRIgARIgARIgARIgARIgARuCgJ2zTsohNwUl5cnQQK3FgG7Hki3FgWeLQmQAAmQAAmQAAmQAAmQgJ0E7Jp3UAix86qxbxK4TQnY9UC6TXFxWCRAAiRAAiRAAiRAAiRAAvEgYNe8g0JIPC4Gm5BAuBOw64EU7lw5fhIgARIgARIgARIgARIggesE7Jp3UAi5zphrJEACARLYsTtKA96KFMqfM06WkwC7YDUSIAESIAESIAESIAESIAES8EoASQd27D6g8w3MO3J5rRefHRRC4kONbUggzAns3ndQLl26LHlzZ9NsIAnPfhLmODl8EiABEiABEiABEiABEiABNwIXYy/J3v2HNONjUsmfJ7vb3oR9pBCSMH5sTQJhSSD60DE5c/a8ZM2cQdKlTRWWDDhoEiABEiABEiABEiABEiAB+wicPHVWDh89LqlTpZAc2TKF9EAUQkKKk52RQHgQOHnqjD6UTkiqlMklZ/bM4TFojpIESIAESIAESIAESIAESCDRCBw4eFTOnrugL1/T68vX1CE9LoWQkOJkZyQQHgQuX7kiu/ce1DghVyWfuscko3tMeFx4jpIESIAESIAESIAESIAEEoFArLrF7FG3mDs0QEj+vNklaZIkIT0qhZCQ4mRnJBA+BGCmBnO1NKlTSvasGcNn4BwpCZAACZAACZAACZAACZCArQQOHo6R02fOGTd8uOOHulAICTVR9kcCYUIAwVKh0sIqJJe6x6RUNxkWEiABEiABEiABEiABEiABEkgIgXPqDhOlbjGwBoH1OYKlhrpQCAk1UfZHAmFE4PiJ03I05qR5OOXJmVWSJg2tyVoYoeRQSYAESIAESIAESIAESCDsCVy+fEX2HThsMlRmzphOMqRPYwsTCiG2YGWnJBA+BPZHH5Hz5y9KihSRxjIEyi0LCZAACZAACZAACZAACZAACQRDAJbmsASx5ha5c2QJpnlQdSmEBIWLlUmABNwJXLp8WfZHHREskUUGqa0ohrhT4mcSIAESIAESIAESIAESIAFvBCCCRB86ZrLERCRNKrlzZREs7SoUQuwiy35JIIwIXLgYK1HRR+WKZpOJjExmUlylSB4ZRgQ4VBIgARIgARIgARIgARIggfgQOH/hohw+ekIu6pwiiWaHyZUjsyTXOYWdhUKInXTZNwmEEQGkuIKKe1GXKMgmkyljWkkWERFGFDhUEiABEiABEiABEiABEiCBQAjEXrokx2JOmewwqB+ZLMJYlyfTpd2FQojdhNk/CYQRAZi0xWgAVQRRxTpcZPAgw0MNqi6sRbBkUNUwuik4VBIgARIgARIgARIggbAngCCosCKH1YdZ6stTvEi15gwIippRfxLLxZ5CSNjfkgRAAqEngNS6x46fklOnz4a+c/ZIAiRAAiRAAiRAAiRAAiRwWxBImyaVZMqQ1pYUub4AUQjxRYf7SIAEEkQAyu/FWFV+ofhevORYx3YWEiABEiABEiABEiABEiCB8CAAi3BYiUcmSybJIq9ZjGP9RlmKUwgJj/uOoyQBEiABEiABEiABEiABEiABEiABElACFEJ4G5AACZAACZAACZAACZAACZAACZAACYQNAQohYXOpOVASIAESIAESIAESIAESIAESIAESIAEKIbwHSIAESIAESIAESIAESIAESIAESIAEwoYAhZCwudQcKAmQAAmQAAmQAAmQAAmQAAmQAAmQAIUQ3gMkQAIkQAIkQAIkQAIkQAIkQAIkQAJhQ4BCSNhcag6UBEiABEiABEiABEiABEiABEiABEiAQgjvARIgARIgARIgARIgARIgARIgARIggbAhQCEkbC41B0oCJEACJEACJEACJEACJEACJEACJEAhhPcACZAACZAACZAACZAACZAACZAACZBA2BCgEBI2l5oDJQESIAESIAESIAESIAESIAESIAESoBDCe4AESIAESIAESIAESIAESIAESIAESCBsCFAICZtLzYGSAAmQAAmQAAmQAAmQAAmQAAmQAAlQCOE9QAIkQAIkQAIkQAIkQAIkQAIkQAIkEDYEKISEzaXmQEmABEiABEiABEiABEiABEiABEiABCiE8B4gARIgARIgARIgARIgARIgM6wTEQAAQABJREFUARIgARIIGwIUQsLmUnOgJEACJEACJEACJEACJEACJEACJEACFEJ4D5AACZAACZAACZAACZAACZAACZAACYQNAQohYXOpOVASIAESIAESIAESIAESIAESIAESIAEKIbwHSIAESIAESIAESIAESIAESIAESIAEwoYAhZCwudQcKAmQAAmQAAmQAAmQAAmQAAmQAAmQAIUQ3gMkQAIkQAIkQAIkQAIkQAIkQAIkQAJhQ4BCSNhcag6UBEiABEiABEiABEiABEiABEiABEiAQgjvARIgARIgARIgARIgARIgARIgARIggbAhQCEkbC41B0oCJEACJEACJEACJEACJEACJEACJEAhhPcACZAACZAACZAACZAACZAACZAACZBA2BCgEBI2l5oDJQESIAESIAESIAESIAESIAESIAESoBDCe4AESIAESIAESIAESIAESIAESIAESCBsCFAICZtLzYGSAAmQAAmQAAmQAAmQAAmQAAmQAAlQCOE9QAIkQAIkQAIkQAIkQAIkQAIkQAIkEDYEKISEzaXmQEmABEiABEiABEiABEiABEiABEiABCiE8B4gARIgARIgARIgARIgARIgARIgARIIGwIUQsLmUnOgJEACJEACJEACJEACJEACJEACJEACFEJ4D5AACZAACZAACZAACZAACZAACZAACYQNAQohYXOpOVASIAESIAESIAESIAESIAESIAESIAEKIbwHSIAESIAESIAESIAESIAESIAESIAEwoYAhZCwudQcKAmQAAmQAAmQAAmQAAmQAAmQAAmQAIUQ3gMkQAIkQAIkQAIkQAIkQAIkQAIkQAJhQ4BCSNhcag6UBEiABEiABEiABEiABEiABEiABEiAQgjvARIgARIgARIgARIgARIgARIgARIggbAhQCEkbC41B0oCiU/g8uUrcjE2Vn8uSezFS451bGchARIgARIgARIgARIgARIIDwJJkyaRyGQR+pNMkkVieW0d229EoRByI6jzmCRwmxO4dOmyHDt+Sk6dPnubj5TDIwESIAESIAESIAESIAESiC+BtGlSSaYMaSUiIml8u4hXOwoh8cLGRiRAAp4IXL16VWJOnJbj+oP1O+64Q5IZtTdCkkcmk0j9wfJGKb+ezpnbSIAESIAESIAESIAESIAE7CUAi/ALF9VSXH/MEhbj+mPNGTKkTyMZ9Qfzh8QoFEISgzKPQQJhQAAPsuhDx4wbDIabJnVKyZQxrSSLiAiD0XOIJEACJEACJEACJEACJEACwRCIvXRJjsWcktNnzplmcJfJkS2TeZEaTD/xqUshJD7U2IYESMCFAFTdqOijcuXKFWP1kTVzekmRPNKlDj+QAAmQAAmQAAmQAAmQAAmQgDuB8xcuyuGjJ4y1SJIkSSRXjszGity9Xig/UwgJJU32RQJhSODS5cuyP+qIYJkqZXKj4iaWSVsY4uaQSYAESIAESIAESIAESOC2IwAXGViXnz13QSKSJpXcubKYpV0DpRBiF1n2SwJhQmB/9BE5f/6ipEgRKbmyZ040v74wwcthkgAJkAAJkAAJkAAJkEBYEIAYEnXwqGNukTtHFtvGTSHENrTsmARufwIIino05qSJ8pwnZ1YGQb39LzlHSAIkQAIkQAIkQAIkQAK2EUBQ1X0HDguyUGbOmE4QRNWOQiHEDqrskwTCgAAeTnv2HzKRnmEJklLdYlhIgARIgARIgARIgARIgARIICEEzql7DCxD4G6fL3c2W1LrUghJyBViWxIIYwKHjx6Xk6fOmuww2bNmDGMSHDoJkAAJkAAJkAAJkAAJkEAoCRw8HGOyyaRLm0qyZs4Qyq5NXxRCQo6UHZLA7U/gsmaH2b33oLEGgUqbTFNdsZAACZAACZAACZAACZAACZBAKAjExl4y1uewCsmfN7sk1WwyoSwUQkJJk32RQJgQOHnqjElxhSwxOdUthoUESIAESIAESIAESIAESIAEQknggLrHIItM1szpJV3a1KHsWiiEhBQnOyOB8CCA1FZnzp43ZmowV2MhARIgARIgARIgARIgARIggVASgBs+3PFTp0ohObJlCmXXFEJCSpOdkUCYENi976CJ5JxX3WIi6RYTJledwyQBEiABEiABEiABEiCBxCNwUd1j9mpyhoiIpJI/T/aQHpgWISHFyc5IIDwI7NgdpfFBRArlz2miOYfHqDlKEiABEiABEiABEiABEiCBxCJwVSccO3Yf0PkG5h25QnpYCiEhxcnOSCA8CGzfFWUGWrhAaB9I4UGPoyQBEiABEiABEiABEiABEgiEgF3zDgohgdBnHRIgARcCdj2QXA7CDyRAAiRAAiRAAiRAAiRAAmFNwK55B4WQsL6tOHgSiB8Bux5I8TsbtiIBEiABEiABEiABEiABErgdCdg176AQcjveLRwTCdhMwK4Hks2nze5JgARIgARIgARIgARIgARuIQJ2zTtuKiFk1MhxsmjRMmna7F2pXPlOWy/Pzp175MSJk1KhQhlbj+PeeWKOEceeMOF7mT3rb3nlldry5FOPuJ9OnM/t2/WUM2fOSKvWTaRQoQJx9nMDCYCAXQ+k+NI9fCRGsmTOEFTg1nUbtsrZs+ekfLkSkjwyMuBDx2r06itXrkjy5L7b7NsfLSlTppBMGdOb87pw8aIsXb7ObLurQqmAj2dVxDFXr91sPlbQc74DUaNsLhcuXJQNm7ZLihTJpWTxQjYfTeTy5SuycvUGSZUqpRQvWlCSJk3i85gnT52WLVt3SdYsmSR/Psar8QmLO0mABEiABEiABEjgFiRg17zjphJCunTuKzNmzJH+/bvKo4896HKZYmKOy8GDh122+fuQK1cOSZcubZxq6OfNNxrJyZOnpV279+WFWs/EqTN69FeaFUPTYgRRnnv2Scmpx/RVEmuMOAdMnJ579lXDbejQPnLf/dV8nZocOnRYnn3mFZ18JJWZf02WNGlS+6zPneFLwK4HUnyI7t4TJbv3Rkm6tGmkVInCEhmZzNENfge8/R6vWrtJRb9zclfF0pLCi6iB3wXnAhFktba7dOmylC5ZRNKm9fw7cur0GZ3QbzQCS5VK5UwXEEIWL11jhJBKdwYvwEIkWLBohenr3mp3SZIk14WQI0djZH/UIedT9bueIkWkERt8VTx37rwsXbFOUqmgc7eHcwY/b3w99YtzhsjhrRzQZ/PWbbv12ZNK7izvXyxCXbTJmyeHFMyfx1u33E4CJEACJEACJEACJHCLErBr3nHLCCHff/+LDBk8IqjL169fV3ns8Qc9thk3bpJ8Nmq8+RJft+4L0rpNU5c3rFUqP6pCQnBCyGefD5W77irv8XjWRl9CSKjHOG/eAmnbppsZV4OGb0myZNcniNb5YPnww/dJ3ry55csvv5VPR4yR7Nmzyosv1XSu4rKeOnUqqVPnOZdt/BBeBOx6IMWH4lmdrK/fuE0waYdlR5nSRSX1/yfb27bvkajo4AQC53OoXqWiyVtubcOkf+v23RJ98IgKEUmMkJA1S0Zrt2O5fcce2X/gkOTOlV0KF8xrttsphOyPOijbd+51HD+QFQgSd6sI5Kv4E0L+W7xKRaFLvrpw2edNULEqrVi1QU6fOSvp06eVTBnSW5tdlpGREZI9WxYj9C5aslouXb4sOfQzrG+8lUyZ0jvuCW91uJ0ESIAESIAESIAESODmI2DXvOOWEUL+mb9Qfv55elBX5q23X5GKFct6bTN//n/StUt/NY8/KzVfeFo6dWrpEEMmTvxRVCXx2tZ5x6+/zpTt23dKQoWQUI+xSZO2snTJtTfIzufrvg5rkUrqilSn9lsBWd3kzJldpk3/xr0bfg4jAnY9kOKLEBYaG7fskJiYEyr4RUi50sUldeqUcujwMTlx8pTHbo+oO02sTuKzZc1krKA8VYKIAcHDvezdFy07d+8zm0sUK6h9ZHZUgViyaOlqgfUIhJA0eh4osXqOO1SsgMVKwfy5HfWtlbRqgeXLWsKXRQhEW1i/rFm/WU6fPitlShU1FjJW385LCDmHjxyTfHlzSQE/7iT+hJCNm3eoO8tl5+59rsOdqGjh/B7rnFALPVjb+CuWtQiEJghOgZTiRQsY8SSQuqxDAiRAAiRAAiRAAiRw8xCwa95xywghdl2KDRs2S1MVDE6rKfvbKpwgPkmwpW3b7jJv7r8JFkKCPa6v+rP+micdO/Y2rkEdO7YwE70ff5wqS5euNK5A1are7Whetlwp+f77KfLl+G+kePEiUq/+a2bfLI0t8tfMeVKtWiUVimo46qdMkVKqVa/k+MyV8CNg1wMpISQhQGzeutOIH8kiIowrB0QRb8WyPqh8dzmvrjHe2mJ79KEjJj4FYnWUKFZI41Rcswyx3Dt8tfW0r5CKLnlUOPFWfAkhVhsIQWs19glEILiWuMcRgQsNYn5AjKl0Z1m/MTj8CSHWcRO6xLVboa5EZ9QaJKdapGXMmM4ISRBtIiKSSrEiBRyHiNBrC4ufpSvWGhcluMSkTJncWPBt2bbTLFEf7awCNz9v7k9WHS5JgARIgARIgARIgARuPgJ2zTtuqBByUX3m4Y5hlTmz/zGWFY88cr8UKlzAbC5duoTcc08Vq4oty3XrNkqP7gNl6Ed9JF++4P3MfQkhN2KMx44dl7ov1ZPjx09I9+7t5JlnnzDcYHHSqlUXufPO8vL56KEOlrt375VXXn7XTCrGjv1YIIygHIiKlhdeeNO8pZ7+67c6uUrlaMOV8CZg1wMpoVQtMSRlihSO4JmwCDkWczJO1wfVveVibKzkzJFVJ81xBZP8eXN6tAZx7ghWCbt27TPuOOk1HhEsUzBBhzUIAngmd4pXAhcOuNTgWDmyXbcgsfrLnCmDcQmxPmOJYKAx/z93jG3PvgNmdz49tzv0P5RcObMZKxjzQf9BQFWMOW+enC6WJ6dOnTEiCVxZfFlIQEw5qXVRYDETpWOEoJQrRzazDf8gJocnSxlHhSBXrDgvcG+5q0Jp7fva2FZo4FRYuJQrU1wyqLuMVSB4HTx0VDKq+0xZdYWyypZtuwxjBE7NrxYvLCRAAiRAAiRAAiRAArc2AbvmHTdUCDmpX9Yfedh7LApcsjovPi/t239g+9WDWXl8v9j7EkJuxBiR+WXOnPnG3WXkyMEOdjBhr/FUXTl2LEZ++HG8FCyYz+zDW99Ro8bJGZ1wdO3WxlEfK1ZMk8ZN6km9etcsRVwqePhw9OhxmTVnkdnzyMNVTTYPD9W46RYmYNcDyQ4kezV7y04VK4It1atqfBC3YKme+kDsDyvrzDZ11YBwYLlvONePT4wQZJ7Z4efcEefD2aXm/IULsnrNZsHxIJIUKZRPRYMjJrYJXGjyqUBSwINrjnWuVnwT67OnZbXKFVzEF091At2GmCAILAuhp3zZ4gJBySpgCaYQlZyz1pw4ccpsR3Bc59ggiBezTIO7QmyqcjcsXq5bhVh9ckkCJEACJEACJEAC4U4Alsb+svMFyiiUfXk6pl3zjhsqhFy8GCuTJ1+P+/GDumfs3bvfWDDARQOlaNHCfgOQegKWmNt8CSGJPUZMJiZpfJOvvvpOxn85QvLkcX0rOnnyr0bwefzxB+XE8ZNqBTNK1q7ZYKxAWrVsHCfrzaZNW6Vnj4GCgLKIoxJImf/PctmwcbupWqJ4QXnwAbrRBMLtVqpj1wPJDgZ4OHuKY7F2/RY5o+lzK5Yv6RAynI/vnH3GebuvdfQZo79XFcqWULe0NC5V4yOEwBrihFqFoFxVsdYSReBGY7m9ZNcYJ+4WLRA3V6llSKxavEAkQZpglEIF8kie3L4zW8Ga5LRmg0FBPxAjIjXQcl61QrFKzuxZ4i0cW31YSxwDlhypUqaUokVc44fAemWXZgXKrhY0iKECixqHVYwKOjn0PNzLJo0VI2otA7GH7jDudPiZBEiABEiABEgg3AnAgnnR0lUmxp2z+3F8uOA73KHDR6VqpQr6fdSeF1B2zTtuqBDiDBsBSx97tLbAlcQ9fe6ff8wWvOWMT8mgptMPPniPaQrrjFWr1sbpBv7jcBeJb/ElhDj3mRhjtI53/vwFSZEiufXRZQlxZuLEH2Tc2ElyQblmyZJZjhw5aurXf/cNef31F+NMrFw68PNh85ZdMnfeElMLIgjEEJbbi4BdD6RgKB1XqwBPAkfGDOkCmqQnNEaIt3NF0M/0biII6sZHCHE+RiAxQqz6Fy5cNKIJgqJaBVYqxYsWDCp7yq7d+43w4J7tBZYXSD8e34JrhMCpzsWXVR6sRpABCK5C1tsL8EDKZARfRUwUFhIgARIgARIgARIggcAIWC/vLOvhwFq51rIsofG9rmzpYq47Q/jJrnnHTSOE/P77X9K92wCDrH2H5i7pWZ94vLa6cxyPF86SpYrLhAkjTduVK9dKg/daxOkH1icTJ30eZzu+mOPHX+nYoZcgVa2/rDGJMUZ/57po0TIZNOhj2btnvwmk2rxFQ3n22Sdl+vQ/Zfiwz3Vyc0oKFMgnuAZ3313BX3de9x9R9xiULJkzeK3DHbcuAbseSMEQWb5yvbHocG9TpVI5Y+GBGBKIJZGQAqsOWHdYBQKAe0miwVIt0REWJsfVIsRTgfq+e2+UcSmBe4qngrSxabzE4vEnhCAuSYzGBUKmnGMa5wMFsTYgBsOVxBKNIBpkzZxJ0qZNbY7lK6DskuVrBaIqXH8qq6uJZYUSFX1YhYndnoYQ0DZktcmU0XN6XOcOwGyXPqtglYKSSeOoFFVXH5St6jKDvws4J/wRRwYcusIYNPyHBEiABEiABEiABHwSwPfKtRu2mBdbiP2G4PPBFGRPRBZFfFcuW6qY40VVMH0EWteuecdNI4S0aN5JFixYbHikSpVKvhjzkRQrds09ZswXX8vZc9dMtZ2BXdAv6D/8MMVkQKj7ci3nXY71bNmyyMv/37dnzz4Zr5lRrHJOJy2zZ883mVI8CSFdu/STP/+cbVX3u/QnhCTGGL2d5IoVq+WbST/L338vMFUef/whad2mmZlYWG0QO+TDIZ/KzJlzHXXeevtlx3Ww6nFJAnY9kIIhiwnyhQuxjiZHdVIMVwpLCIHFiDWBdlQKcgWWEM7xNP75b7mJZeHcDUSQynddS9MN1w2YCMa3FNZJfm6d1Hsq3oQQuL1sUsEHbjRWsYKb5syZ1bi1QASJVmEoKuqQnDvvKuZ4U/FPaSYtxO6wCtxTYFGCAssMxALyVOAaBAuODOnTqTuL5wDL2dWlBWy9FQRpPags9+4/aNx74KZUWGMaWZl5rHaHNQUyYpog6C3qIEAqUhlbViNWPS5JgARIgARIgARIgARcCSCQ/5p1m813yAL5cguC8QdS9uw9YF5UwdoYAe0DiakXSL/e6tg177gphBBYITzxeB3zxhIxLvAlPn369CbGRQ6nTAXucJAV5bFHa+mbzTQyZ+5U991+Px84cFCee/ZVv0IIXGcCiRcweEgvKVeutMfj3ogxntLJym+/zZTJP0+XnTv3mPPKmTO7dNB0utWrV/Z4ntgIQWpA/2ESHX3tLSwy99Su/aw8puKJ9ebba2PuCAsCdj2QEgJv+Sq1ENHYFpYQkpC+vLVF6lk8o6wC8cVZCIF44C4Q7Is6aCzLLCsQTPIPqEUF2mXTIKDOJVOm9Mbdw3mbte5JCIEAgOwx+COG/WiP7DPIsAJLCbjBISUt3FCsgKr4jKwwyCIDQSOnCi+exJcdO/cKzh0FfWHc/gKtoq5lJllY45jk9pEOGHXdC84HbCBwWNZ4SKdbUGObePM7hdXIjl17TfwQ9AerkOwqhiAbEF1m3AnzMwmQAAmQAAmQAAlcJ4Dvpcg4iBdrgXx326/fDbfrd0R8r0SQ+2QeMi9e7z00a3bNO24KIeS7byfLyJFjpXz5MrJo0TJp2Oht+XrC95JdRRCkc4XQgWJMtPULvWWe7U0IQdrXnLl8BwREf4EKIUM+7CUPPHAtzgjaxack5hg3btgsP6v4MWPGHMMM5wv3HwQ8feLJh1XUcfXN9zQeBDCcNu0P+fGHqYL0uigQhGrUeExq1X5GChdm3A9P3MJlm10PpITw8yaE4LkRrGUIUkXDAsJXgTAACxFnIcRTfdTBJB6ZVlDwu7VUM5t4s8Tw1Ae2OQshyBSD1L1w/4ESnzpVCo9uIQhetWnLTiMKIJZGoAUiBNxiEIPjyNEYY72BbC4HDh42MTkgMlgF5+VsgeFJCMEbB1H9yJOYAWsVuPPA3QYiDUrSJEkkm/KHQGMJONbxvC0hQu1XixfERbHEKpw/zhWWJPHNCubteNxOAiRAAiRAAiRAArcDAbw4W712k1oNXzCB6/ESylPB98Ct23ZLSn2ZV15dxwMxFPDUT7Db7Jp33HAhBJYStV54U+NUPCGH9Us7Ju8Ilnpeg/0hWwmCmI74dJCxEhk4YLhx2+in+6tUuUt98V0tQpAa8uW69dSk+rDMmj3Fb3rHxBJCEnOMUPNg5XLixEkT8PThh++Tui+/ILNm/S1bt1zL5BLMzVegYH4VgaobF6QF/y7St7RXTWyR6b9+G/AEJZjjse6tQcCuB1JCRu9NCEHwUjzcgylZMmcUpGb1VQIRQqwAqalVNb9LxQuU+AohiAGycMkql1NCtpiK5Uq4pJB1rhBfIQSxTOD3icBXYAc3ljsrlJIV6iqD8y9dsoiJ8YE/nIuXrTGiDuJ+oLgLIRBr4C6EGB55PcRG2bvvgOzUoKwo+MOKeB+Ik4JziE/Jo1YoyHoDyxLwRymoGWQ8HTs+/bMNCZAACZAACZAACdxuBDD3xnc+BNwvUayQuhq7Wi3jpRUy88HKGPHz3IPe28nDrnnHDRdCELhz6pTfZcrUSRqs8zOHEPLoYw9K2zbdTBDS0V8MkwoVysgzT79sxJI//vxBMmuwP3chBBegTetuJg7GJyMGStWqd/u8JoklhCT2GGHJAbeWWrWeMRlhAKFhg1aCOCHBlrJlS8q48SNMsyi1tPnpp2mSL18eqVmzRrBdsf5tRMCuB1JCEPkTQjJq0NDiRQv4PAREk42bt2uQ39AIIXCdWb9xm0t/wQghCL6KwKcx+oNzsywdIBjA7QTpYy1Lh5VrNjrcSaxBwm0Ef9AgmCRPnsza7FgiuJW7mo/6sFhB37DIwLqVNQZWF6vWbNKsOGnVEqWYsRDBmwFYXVgWJ+5CCOKFIEMPrDMqqGjjXmB9AqEEsT2sAKqI7wJ3n/gUiDewtgEr8Mcf7hLFCjo4xadPtiEBEiABEiABEiCB250AvqOu1u9fePlWqnhhnW9fS3oBt+8N+v0Y4SvKqyVySh9x3uxgZNe844YKIdu27ZTXXm1gJtUdO7WULp37ugghCN759dc/SPPmDWWDunu89WYTQbyKL7/61DD2JIRYmVngBtKmbTOf1yIxhJAbPUYLANLkwoTdc0HMgzs87oLJe/LkntPwemzAjWFBwK4HUkLg+RNCEDsDlgy+CjK+rFm/xUW48FY/EIuQrZpZBZYJzj6XwQghq1SZt9LUIgMMLLJQ7q12Z5yJ/b8LV8QRQrydu7W9yt2aYcctjS2EIGR9QgBYiBTOQgja7VELjqwqFOGP4LoNW41Q45wFxl0IQRsr+wzcg/BH1F8BW2uscet6f16hLjhZ7pNx23ILCZAACZAACZAACZCANwJ4CbdGY4bArdmy9l2/cau6LSeVchoTBFbOiV3smnfcUCGkSeM2snz5apn8ywTJnTtnHCHEGfKokeNk3LhJ0rhJPalX7zWzy5MQggChjz9WW/3Ls8jUaZOcu4iznhhCyI0eIwaNcW7Zsi1OnJNfp89Qa49JRmjyFAMFqSl79xos1apXkpdeqhmHn7cN585dkGXL15ndd99VOtFVQ2/nxe2hI2DXAykhZ+hPCEEQTfdJv/vxruhDH6aBobAIQWyS5WoJgRgYd99ZxpElxZsQAgEhnaa0hWWEVeCeAosKnA8CoFquMfdWu8tM+K16WEI80P9dyuEjSCG8y1h3FCmU32UfPkA0cC4n1FURAbNy6POzmFrPWOdqWYQ414WwunDJShOstVqVio6+PAkhO3dpirX90SbrTCCxV2ARAqsX5+DMyAiEseAthSfLEpwb3GwuqLtOLrVQCTS2iPOYuE4CJEACJEACJEAC4U4AFsBr1m1xWCLjBRMsgdNqvMgbUeyad9xQIaT5Bx0lnX657927k2HqbhHiDLruS/Vlx45d8s23X0jRooXMLk9CCHZ88EEHWfjfUvn+h7FSqFABU9fTP6EWQhDo9bQKMffeV83xBf5Gj/Gi+sg/9eRLJggh4npkdZpkTVGXpL59PpRnn3tSunVrGwcRArx++OGn8sgj98uAgd3j7Pe2YdHiNbJq9bWYDOXKFZPqVa8FifRWn9tvPQJ2PZASQsKfEAJLhNSamttXwWTbEh4SEiMEogSsOZCZBTEvimhaXKtY4oJ7sNQFi1YaawkrFa9V31o6B0v1JIRY9ZyXwcYIwfnCxaaSCjew+LDO1ZMQgiCqyKLjLhp5EkKsft3rOp+rtQ7BBMJJLg2WXaTwdW7Yv3jpGhP3o7JasqRws2QB80VLVxuhBMFkKYRYRLkkARIgARIgARIggeAIwCV7rVpJo8DtOH26a8lLguslNLXtmnfcUCHk778XSJ48uRwZSLwJIUuXrJAmTdqaTDDTnKw8vAkhP/04VQYO/Fiavf+evPXWy16vgCchBAFbo6MPStmypaRrl37y55+zJdCsMcOHfy4T1ZXH2WrlRo8Rgx/20SiZNOknea/Bm9KgwVsOHuCHtMXp1N9/xsyf9I1uEsc+rLzxeiPZtGmrIEZLxYplXfb5+rBi5UZZsnStqQKLEPyw3F4E7HogJYSSuxACN5cMGivCCpaaWK4xsACBSwxiUyD+BkQFWKNYxRIXnIUQKxBqhvTpjOJu1XVeJoYQguMhN7yVR946V09CCAJqgW3xogVdMux4EkLQ76Ilq+WyutpUr1LBp+sKWCxetlrrJJGqlcq5sEO6NqRtK6zCknvKXyseiy+GOA8WEiABEiABEiABEiAB/wSQRQYFVro3stg177ihQog7UG9CyLv1m8vq1eukZavG8uqrdRzNvAkhe/bsk9q13jIBVr8YM9xR333FXQiB+0jLFl3k/vurSfsOzYMWQrp16y9//D5L+vbrIo8//pD74cznxB4jDrp//wHNzPOGZMqUSX797VuXiQUEJghNo0d/JBXvLOc4Z1jfwAqnWLEiMumbzx3bA1nBW/WNm3aaqiVLFDSBGgNpxzq3DgG7HkgJIeAshCDA6Lbte0zKWvg6YtKOAJ8FC+TxeQiYAm5XF5VALBdggeCePjdGxRcE/jQBSlX8KKmZZyB4OBdkWoHlAkSSkhqVGwIk0pFFHzziEnTUuQ3WvQkhEADgQuOpXIyNNSm0kyVL5vWPGKKCw2rFU/EmhGCceEsQqf1Wvrusi4jqTQhBpHGIQ+X0rQIEKl9l89adJjUwLGmcz80SteAmhLTBzgXWKbBSQRwYiF4sJEACJEACJEACJEACtz4Bu+YdN70QskQn6U11sp5BMz5Mm/6NS7wJb0IILreVYWbmXz9Len3L6qk4CyENGr5lYpTgi3+dOs/FSwipV+99Wbtmg3w1YaSUKuX6Jd06vichxM4xWsdt1bKz/PPPIuk/oJs8+ugD1mb5+efpMqD/MCMwQWiySi+NDTJ92p/StVsbee65p6zNXJKAIWDXAykheC0hJJ+maEVATwgMSPkKCwMIIcGUQISQqAOHTKpYWHtULF/SuGosW7neCA/IkFKieEHd5llBR+aVk+pG516QjiydF9NDb0IIBBSIL/EteXLnkEJeBCJvQogVxBXCUl5t71y8CSHWeSLbDYLH+iqnT2ummdUbjHsL3Fyci+X+Uq1yeYfIingsCOqaPDLSCDPO9blOAiRAAiRAAiRAAiRw6xKwa95x0wsh9et9IGvWrJdGjd+R+vVfd7mCvoSQnj0HCYKB9urVUZ6q8ahLO+sDLCVqPv+6ieeBWBpJNBru+x+857A6sVxjevfpJE8++YjVzOMSb3kfevA5uXQpVmbNniJpdSLkqXgSQuwco3UOiF/yfrP28vzzT0mXrm2szYLMPO+83Uxq1HhMGjZ622w/oGlyX3jhTTOG337/Tt9cRzrqc4UEQMCuB1JC6C7TifBZFTJREA+kTMmieg+ndrjGpEmTKs6k3f14Z86cu5YVJUtGKalpwzwVWIJAeDh46KhjN9LTlixeyFhIwCoBriW+MpfAfeaw1sOEHyWZtoeVhC//S29CCDK7IE2up4JzgTCBAKzexA5khnJ23XHux5MQYlmDYMxV1BrEva03IQRBaJcsW2Oet97ioDgfG2IRrHkgMsE1xyo71D0GcVxgLWLFAcH1gNCCMULYYSEBEiABEiABEiABErg9CNg177iphRCkfG3VsousX79JEOjTXVyIjj4kzz7zitk+Z+5UlysNFxW4qmCC37NXB5d91ocvx38jn3461nzMoYH5+vXvamKDWPuHD/tMJk78USpVvlO6dGktWbJcz+Zg1cFy37798sUXX8usv+bJXXeVl88+H+q822XdXQixY4xIOwn3FNdyVY7qpChz5kyumz18Gjz4E5nyy2/y+hsvSePG9eLUwATIPdtEnErccFsTsOuBFF9olgUB2iPIZ9lSRR0Biy13ilDFCNm9J0p2740y/cMNA4FA4U6D+BcF8uc2QT4jIq7HBInvmNzbxerv9MLFq8xmu4Kluh/TkxACcQXZW/KoZUf+fLncm8gW3Rd96IhLymCrkpVGF0KIc0YYiEv6v0uJVVE5ImmET0EJDSBiwxoEwhP6xfPJuehmv3041+c6CZAACZAACZAACZDAzUPArnnHTS2EWPi3bdspRYoUNB8XL16ub1HPmDSYM2fONTE5ypcvI2PGusYCOXr0mMya9bdx68DEyFMZO3aifDZqvNx7b1UjliBoqHNBXBLEJwm04Is4rEeeeOJhr03chRCrYijH+N9/SwTZauwqvmKg2HVM9ntzEbDrgRTfUSLd6pp1m41FBcQJ58mwPyEEAgOsLZLo7y8yliAYZ05Nv1q0cP44p2MdB1YUFcuXclgqQAxZu2GrESDxHECOdcQAQQyNOzRFLbbpfBwzcrPEnP/a5P/a7P+qipdXVAmAdUdBFVOsZ9YFneQfP35KrS6SqPXWCSMwwP2jigYRDaQEmzXGvU9PQgjq4LyQTx6CD1yPYCWCc4Rlyo5de802RBh3j4+C88HY3NOvIVMNGNpRcDwErGUhARIgARIgARIgARK49QjYNe+4JYQQ58uFeBaIa+FcENgUcT2CLTExx437DCwfMFFxL7CsmDLlN5k5Y47s0i/33kqq1CmlUMECmob2CXnggXu8VTPbvQkhzo0SOsaVK9ZI377erVKcjxWfdcQSueeeKvFpyja3CQG7HkgJwQNLjbwaH8TdWsmfEAIXFwTndC6eJvHYv3K1TthViC1WpIDkyJ7FuYmZ/O9TEQWWV5aLjkuFAD4grsk9VSs6nkeWO4lz0zy5s6sLiO8YG1Z9u4QQq38sEZAVGWGcC0SgKpri1tNz1bmetY5Ap3CDsaPA8gQWQiwkQAIkQAIkQAIkQAK3HgG75h03lRAyevRXsnjRchMP5H/tnQd8FEUbh19Beu8dBBsWUBFEQLCACqiICCgIiEixgCiC9I6ASpFeRUF6b0qRooiIgCLoB9joLZRQQm9+807c45LcXS7HJSTcM/5w93ZnZnee3bvs/PctpUo94PEqqZvMjz+ut/vUP7x8+TJSoEA+j3UT48ZQGGNi5M45BZdAfP0gBfcsI3vTeBIaQyKzsfgq4iFIp07kd+zcaytrrI5s2TLbDDOezkWzwWggVk/WIu711bJD4wZdMrFA1NpErT/U98OxBHGv676uVhWa3ca97Ni1zzQ1FitGJMlqgkZ7C6bq3sZZP23GfvjIMRsrJZBMKjrerX9sN24sKaWoyXDjrew1ljQqHGtJZ4ThLOY8owtS3tqyHQIQgAAEIAABCEAAAt4IxNe8I1EJId4Gz3YIQCBxEYivH6TENUrOBgIQgAAEIAABCEAAAhC4ngTia96BEHI9ryrHhkASJRBfP0hJFAenDQEIQAACEIAABCAAAQjEA4H4mncghMTDxaJLCNzoBOLrB+lG58b4IAABCEAAAhCAAAQgAAH/CcTXvAMhxP9rQE0IQOA/AvH1gwRgCEAAAhCAAAQgAAEIQAACDoH4mncghDiEWUIAAn4T2L5rv8b+lCKF8vidGcTvzqkIAQhAAAIQgAAEIAABCIQ8AU04sH3XATPf0HlH3qDyQAgJKk46g0BoENi1N0wuXbosBfLllJQpbg6NQTNKCEAAAhCAAAQgAAEIQCDBCFy4eEn27DskN9+cXArlzxXU4yKEBBUnnUEgNAgcPBQup8+ckxwm1WzGDGlDY9CMEgIQgAAEIAABCEAAAhBIMAInI87I4aPHJV3a1JI7Z9agHhchJKg46QwCoUHgZMRp86N0QtKmSSV5cmULjUEzSghAAAIQgAAEIAABCEAgwQgcCDsqZ86eNy9fM5mXr+mCelyEkKDipDMIhAaBy1euyK49YSZOyL9S0LjHpMA9JjQuPKOEAAQgAAEIQAACEIBAAhC4aNxidhu3mJtMgJBCBXJJ8mTJgnpUhJCg4qQzCIQOATVTU3O19OnSSK4cWUJn4IwUAhCAAAQgAAEIQAACEIhXAmGHj8mp02etG7664we7IIQEmyj9QSBECGiwVFVp1Sokr3GPSWPcZCgQgAAEIAABCEAAAhCAAASuhcBZ4w6z37jFqDWIWp9rsNRgF4SQYBOlPwiEEIHjJ07J0WMn7Y9T/jw5JHny4JqshRBKhgoBCEAAAhCAAAQgAIGQJ3D58hXZe+CwzVCZLUtGyZwpfbwwQQiJF6x0CoHQIbDv4BE5d+6CpE6d0lqGqHJLgQAEIAABCEAAAhCAAAQgEBcCammuliDO3CJf7uxxaR6nugghccJFZQhAIDqBS5cvy779R0SXmkVGU1shhkSnxGcIQAACEIAABCAAAQhAwBsBFUEOHgq3WWJuTp5c8uXNLrqMr4IQEl9k6RcCIUTg/IWLsv/gUblissmkTJnCprhKnSplCBFgqBCAAAQgAAEIQAACEIBAIATOnb8gh4+ekAtmTpHMZIfJmzubpDJzivgsCCHxSZe+IRBCBDTFlaq4F8xSi2aTyZolg6S4+eYQosBQIQABCEAAAhCAAAQgAAF/CFy8dEnCj0XY7DBaP2WKm611eQqzjO+CEBLfhOkfAiFEQE3ajpkAqhpEVdfVRUZ/yPRHTVVdtRbRJUFVQ+imYKgQgAAEIAABCEAAAiFPQIOgqhW5Wn3YpXl5qi9SnTmDBkXNYv4llIs9QkjI35IAgEDwCWhq3fDjERJx6kzwO6dHCEAAAhCAAAQgAAEIQOCGIJAhfVrJmjlDvKTI9QUIIcQXHfZBAALXRECV3wsXjfKriu+FS6513U6BAAQgAAEIQAACEIAABEKDgFqEq5V4yhQpJEXKSItxXb9eluIIIaFx3zFKCEAAAhCAAAQgAAEIQAACEIAABAwBhBBuAwhAAAIQgAAEIAABCEAAAhCAAARChgBCSMhcagYKAQhAAAIQgAAEIAABCEAAAhCAAEII9wAEIAABCEAAAhCAAAQgAAEIQAACIUMAISRkLjUDhQAEIAABCEAAAhCAAAQgAAEIQAAhhHsAAhCAAAQgAAEIQAACEIAABCAAgZAhgBASMpeagUIAAhCAAAQgAAEIQAACEIAABCCAEMI9AAEIQAACEIAABCAAAQhAAAIQgEDIEEAICZlLzUAhAAEIQAACEIAABCAAAQhAAAIQQAjhHoAABCAAAQhAAAIQgAAEIAABCEAgZAgghITMpWagEIAABCAAAQhAAAIQgAAEIAABCCCEcA9AAAIQgAAEIAABCEAAAhCAAAQgEDIEEEJC5lIzUAhAAAIQgAAEIAABCEAAAhCAAAQQQrgHIAABCEAAAhCAAAQgAAEIQAACEAgZAgghIXOpGSgEIAABCEAAAhCAAAQgAAEIQAACCCHcAxCAAAQgAAEIQAACEIAABCAAAQiEDAGEkJC51AwUAhCAAAQgAAEIQAACEIAABCAAAYQQ7gEIQAACEIAABCAAAQhAAAIQgAAEQoYAQkjIXGoGCgEIQAACEIAABCAAAQhAAAIQgABCCPcABCAAAQhAAAIQgAAEIAABCEAAAiFDACEkZC41A4UABCAAAQhAAAIQgAAEIAABCEAAIYR7AAIQgAAEIAABCEAAAhCAAAQgAIGQIYAQEjKXmoFCAAIQgAAEIAABCEAAAhCAAAQggBDCPQABCEAAAhCAAAQgAAEIQAACEIBAyBBACAmZS81AIQABCEAAAhCAAAQgAAEIQAACEEAI4R6AAAQgAAEIQAACEIAABCAAAQhAIGQIIISEzKVmoBCAAAQgAAEIQAACEIAABCAAAQgghHAPQAACEIAABCAAAQhAAAIQgAAEIBAyBBBCQuZSM1AIQAACEIAABCAAAQhAAAIQgAAEEEK4ByAAAQhAAAIQgAAEIAABCEAAAhAIGQIIISFzqRkoBCAAAQhAAAIQgAAEIAABCEAAAggh3AMQgAAEIAABCEAAAhCAAAQgAAEIhAwBhJCQudQMFAIQgAAEIAABCEAAAhCAAAQgAAGEEO4BCEAAAhCAAAQgAAEIQAACEIAABEKGAEJIyFxqBgoBCEAAAhCAAAQgAAEIQAACEIAAQgj3AAQgAAEIQAACEIAABCAAAQhAAAIhQwAhJGQuNQOFAAQgAAEIQAACEIAABCAAAQhAACGEewACEIAABCAAAQhAAAIQgAAEIACBkCGAEBIyl5qBQgACEIAABCAAAQhAAAIQgAAEIIAQwj0AAQhAAAIQgAAEIAABCEAAAhCAQMgQQAgJmUvNQCEAAQhAAAIQgAAEIAABCEAAAhBACOEegAAEIAABCEAAAhCAAAQgAAEIQCBkCCCEhMylZqAQgAAEIAABCEAAAhCAAAQgAAEIIIRwD0AAAhCAAAQgAAEIQAACEIAABCAQMgQQQkLmUjNQCEAAAhCAAAQgAAEIQAACEIAABBBCuAcgAAEIQAACEIAABCAAAQhAAAIQCBkCCCEhc6kZKAQgAAEIQAACEIAABCAAAQhAAAIIIdwDEIAABCAAAQhAAAIQgAAEIAABCIQMAYSQkLnUDBQCEIAABCAAAQhAAAIQgAAEIAABhBDuAQhAAAIQgAAEIAABCEAAAhCAAARChgBCSMhcagYKAQhAAAIQgAAEIAABCEAAAhCAAEII9wAEIAABCEAAAhCAAAQgAAEIQAACIUMAISRkLjUDhQAEIAABCEAAAhCAAAQgAAEIQAAhhHsAAhCAAAQgAAEIQAACEIAABCAAgZAhgBASMpeagUIAAhCAAAQgAAEIQAACEIAABCCAEMI9AAEIQAACEIAABCAAAQhAAAIQgEDIEEAICZlLzUAhAAEIQAACEIAABCAAAQhAAAIQQAjhHoAABCAAAQhAAAIQgAAEIAABCEAgZAgghJhL/e+//8q5c+clTZrUIXPhGSgEQpnA5X+vyL6IE7LjZLjsOHFUdp4Il+1medNNIoUzZpNbMmWVwpmymfWski9DJkl+U7JQxsXYE4CA+TMkFy9dkgsXLsp5889Z6qFTpUwhKc0/Z5ni5pvtvZoAp8UhIAABCEAAAhCAwA1JIEkKIfqAePz4cTl69JgcO3ZcwsOPy7HwYxJu1o+Z9SZNG0i+fHn8vmBLlqyQzp16S+nSD8qQoR/53S4uFXds3yV58uaW1KlT2Wb9+w+TNT+sk74fdZXbby9it23d+qcUKpRf0qZN6+p61Kgv5OcNv0qTJg2k1EMlXNv9XZk1a4HMn7dI6tR9USpXruhvs2uu9913P8j48VPl6aefkJdeesFnf8ePn5AOHXpJ2jRppF//Hj7rshMC10JARc9V+7bLpC0b5OCZCL+6yp02g7xyd0mpkK+ImXwapeQ6lJMnT8rc+Qsl/Gi4vNuyuV9n0KVrT0mW7Cbp1rWTX/XjUmn16jWyaPFS83tVUJo2aRSXptT1QODU6bMSfjxCLl685GFvzE0pUtwsWTNnkPTp0sTcyZZ4I3D8xAmZNm2meVYoJfffVzzejkPHEIAABCAAAQjEP4FEIYScOHFSFsxfLGfOnpWzZ87KGf1n189F2XbWbIuIOCWnTp32SaZxk/rSrFlDn3WcnZcvX5ZatV6TPbv3ydtvvy4NX6vr7Ara8pul35qJfk9p+e4bUq9eLdtv+3Y9ZNmy7+SL8cPknnuKGmHnhLxY41UpUqSQjBk7yHXsVq06yferfpRPB/WWcuVKu7b7uzJi+DgZN26SvNfqTalbt6ar2bp1v8jYsV+6PsdlpX692lK+QhmfTQYOGCGTJ88Uf67F4UNHpGrVlyRDhvSyYuU8n/06O1UM81V0AnizeWvauXNvCQs77KtqjH15cueS7j3axdjOhqRNYE/EcRmycZVsCz8U0ECKZs0pLR6oIAUyZA6o/bU00t+pNm07WOG3Q/sP5PbbbvXZnQo+jRq/IcmTJZOxY0b4rBvIzkOHDkv7jl2sMDSg30eSMWOGQLoJ+TYXjPBx+MhxOXf+gmWRPHkyY/WRUlKlirT+0KWW8+cjrUQilxfk8uUrdnvqVCklR/bMktIIIwlVVv+wxpxP5PkG+5ipzHgeKVfWY7dhYYdk9NhxHvfFZWPmTJmkRfM349LEVferrxfLzFlzjMCYTOrXqyuPPVretY8VCEAAAhCAAASSFoFEIYScPXvOPFA8K1euGNtgt6IT2bRp09h/qVOnlp07d9sH70pPPiqZM2eSLJkzS5Ysmex65iyZI7eZz5kyZbSTYLeuvK7OM9YSvXr2s/sLFMwn6dysMbw28rKjYsUKHoWUS8bcWUUOdb+Zv2CSechNJdGFED0HPZeRowbIgw/e5zpCbSPS7NixW+bM/VLy58/r2u7vijchZPGi5VYk8Lcf93odOrwnL9R41n1TjPVGjVrIb5u3yKDBfaRs2Ydi7HffEFch5MD+g1Kt2ivuXcRYL1r0dvly4kipUaOBFbliVPCx4ZZbCsqMmZ/7qMGupEZgw8E90nfdMrlw5bKoTUfUX5rYR+O0SZksubR7qJKUzF0g9kZBrvH1oiXmvpwtZcqUlqaNfVthxLcQokPTSemPP/4ktWrWkKpVng7yaG/87s6Yv3thh4/Zv3sqgGTNklEypr9qDeiLwMlTZ4wF5EkriKjomytHFmNRlzCune+1+kDUMiI+iooUAwd87LHr3bv3SNfuvTzui8vG7NmzyScf9Y5Lkyh1ly5dJlOnz7Tb3m/VUu65+64o+/kAAQhAAAIQgEDSIJAohBBF9ccff5u3WikkzX/CRxrjJqHmv045f/68eVNU1QocP65d4my+pqWaIdd4ob4cPHjI+l/rW55rKdVfeEbef/9tj10sXLhUunf7yGWZ4S6E2EnLay3kyScfkw97XzVjV2Go/CNVTX//yverv7ZvoTx27mNjbEKIuq40b9HERw9Xd40dM8GKNbEJIcpVhS212li+Ym6sb4vjKoTo2+jGr7d0nZi6R6nIpAKYCmdabr21sAz89EOXEPLV11PtfqeR3ktavlu1QJInT27X1cWq2nN1BSHE4rhh/vfbkQPS5YdFonFBglE0XkiPclWkWHb/3e+CcdzTZ85Iq/fbmonzFRnY/2NJnz6d124DFULU8mTmrLle+3XfceTIEdnw8y9GjM4ipR8q5b7L63rNF6u7vm9eK4XAjrPm9+pA2FETn0qse0uObJmtG1Nchq5/Hw4fPS7qVqMeW3lyZZM0/7lexqWfuNadM3e+qHWmv2XL1m2yb99+yZUrpxQvdq/PZvp3/4Xq1TzWcYSQvHnzSNfOHT3W8bXx8OHD0qlLd7lWIUSPsfLbVTLhy0n2O6iuZ9myZvV1aPZBAAIQgAAEIJAICVx3IWT79p02WGlsbHRS3aD+m/YhetLkUbFVt/vVn79IkVu81v3k4yEyffpca2kxafJo1yTaa4Nr2KGTl57G6uO5556WEiXui2IRki5dWhkzeoK8a1xncuTM7jqKxhWpXbuRPa8qVSq5tkdfqVe/tldrkdiEEBVvOnZsFb1Lj58HDBguUybPMm4+vi1C1q/fKG+92dpavrxQ4xmPfb3+ej1rwaM74yqERO+wTesu8u23P0inzq3l+eerRNntWIR8s2y263haoVTJirbe2p+WuiZm4SbOzNNP1UQIiUIwaX84cva0vLNitpy6eD6oA0mfIpUMfqKGZE/jXYy41gOqC+A3y5ZH6Wbdug1y9txZebj0Q/b7pTsfrVBesmbNEqVeoEKI/s42e7N5lL6C+WHUiKFWdA5mn0mtr0uXLsve/YflsvmbkDlTeslmLEGupRw1liHHT5yyblD58+YwLwsihd1r6TNYbSMiIqRdhy7G3fWMvPdui1iFEF/HdYSQfPnySq8eXX1V9bjv0KFD0rZ956AIIXqAYcNHWSGwRIkHpMXbb3g8JhshAAEIQAACEEi8BK67EPJw6aeMee/leCGkb/p1ouup9O83TKZOnW139enbRe4rfo+nan5tS29iW3jLOKOTGY2VEb1ofBAVOqpXrxpF/NB6aqVRqFABGzelR49PojeN8Vljitx//9U3bSpWRJw6ZettMKLExo2/GXP6UnJvsUgT3jp1XpQfVv9kXWPiQwjp2+dT0SCtvoq7qw9CiC9S7AuUgLq/qCXIpsP7Au3CZ7v7cuSzliHxFT71YFiYtDeTyNhKRxMz5LZoMUMCFUJUsP3ll1+9HnL/gQPGTW++ta6qW+clSRbHbDolStwfkGWb1xNKgjv2G0uQs2fPW1eWPLmCY0lwICzcxNM6Z/4OpZK8xjIksZTPx38pq1atNgHBb5MO7dpc02klNiFERR61MDl5MkI+aP2e3HVX0WsaH40hAAEIQAACEEhYAtddCNGgmlf8MFlXsWTG9HnWfLh2LFlIHIT6kK5BQqOXfp8MNZHf59h4I0XvukO2bvkjepU4fW5vLCRqeImZceBAmHW3iEuH/Qf0lAoVykrv3gNlzuyF8nKdGuZN2lWhZtWqNbJ48XKpWbOatS4p9dADUawd1L1Dj+utzJs/STZv+p8VQvRNsr+xR/ab2BxHjhz1aRGiE6kqlWvZTD7N3mgoefLkinIaH/UdZN1Yli2f43KZSQghZNy4IZIx09WAjjVfbGjPa9r0z1wWIRqwVl1u/HGNOWpM0petWGv7qPjEw5LdmLZTEheBVXv/kX4bVpqYIDcZ57K4RgXxPRanz9YlH5cK+W/1XTnAvefOnZPNm3/32Fp/M8dPmGRF5H4f93F9l5zKgQohTntPS/0N7vlhX9m1a7e8+87bcp+XrBk6MSR4qieCYt1YNC6IxgQpkDenXXquGbetGjx1z/5DNmaIxgtJDNlkdu7cJT169bEWn+0+eF/uvPOOuA0qWm1HCFFLT40fFtei3wmN1xUM1xjn2Ku+/0E+/2KCFCpYIF6yMznHYQkBCEAAAhCAQPAJXHchxN8hBStGyKcDR8ikSTPt5Ldb97ZmYh8ugz4daS0qHjZWE3Epmv528+b/mbe23oWQCxcuyKZfr05mVqz43lpLqECgwkLNWs/LE48/EuWwt99xqxU2dLK+a9cemT17gmggV6fo+U6cOEMGD+4rZcrGPOeFC5aYB+7Ttrpafqxdu0Eee6ycPFjyfrvtuecq20w0mlElkOLLNUaz0bz9VhvjD57DBIadEsXvfe/e/cb/u751V1IBwimOEKIxYT4zgsVdRpyKS/HHNSYu/fkjhKz6/mfZsvUf223ROwubmCgxr0Ncjknd4BLQSc+by2bI/tMng9txtN7ypssoIyrVspU/YRAAACSCSURBVKJqtF3x+tGZgD3++KPSwGSviF7iQwiZPmOWTZlboXw5ea1hg+iHtJ+XL19pA0m+3qihcd/hOxEd0u59h2yK3Jwm00sGPwOjRu/D2+cIE0D1kMlAo7+jBfPl9FYtQbari1XvPh/JLhPgVEswXKIcIUQtPTWoaqBFxX/NvBSMMmv2XFn41SLbFVYhwSBKHxCAAAQgAIGEI5BohBB1H9m69U+vI9e3kZqGVt8GPV35Ca/1dEexYneb2BrVPdaZP3+RfPzREOn7URd55JGHraCgwkKDBi9Ji3eaemzjbaOTItaXEOLe9u+/d0ij15pb1xd1mVH3GC2aVeWdlk1tgE+nvmbIqVXzNftx9OiB8kCJ4s4u6dypt7UImT59nBQ26XZ9ldhihDxrYpa0adMiRhcNG75tXXemTB0refPmjrJfUxw6AUaj7DAfWr7TXtasWScNG9aRt5s3jrJ77tyv5cNe/a0lS9t2V4OdOkKIVtaMOp27tLaMojT28cEfIaRK1Uo2LaXTjZ6LlmrVqrjEmnMmIK9m0/FHCPnjz50mYN4624eKICqGUBIPgV8O7ZVuaxYnyAl1K1tZSuTMnyDH0oOoKKypa0+atON9+/Syb7ijHzzYQsj6DT/L8BGjTarW7NKje2fRLF6eyp9//iUffzJAkps39uqyU9C8KadEEjhj3GE0QGp8ChWO0KKBU9MaN5nrUfTe03tFA+k6JZhCSKAxQpxzcZabNm2WMBN4+6GHSgYsrLTr0NmkZz9ku3zg/vvknRZvOd2zhAAEIAABCEAgkRNINEJI6/e7yHff/WD9xz1lb9GHKyeWiDezWHXL0H9PPvWYcSvp7BX9nj37pECBSAsLtaxQIUQDmJYt5zvNa/QOV3//o/xqrD38EUJ2795rHpLaGd/wczY1ax/j9qJCiGZsmTpltnElOWYm5ZVF3UnUdPeLzyfLsGGf2UM2blJfmjVr6Dr8G81ayc8/bzIZTxbGGuA1NiHEW4yQOi83FhVu5s6bKPny5XEd29eKClka0FaLxl2pVOnRKNUdAUcz4zz11OOufY4QkjJlSsmWLYt163n11Zflrbcbu0QKV2UPK/4IIfERLPWIcY/RgluMh4tynTcN+3W1LNm5za+zKJmrgDx1S1FXFhjNMrPUtN0QFvk2O7ZOnjZt374/qlVXbG2uZf+o0Z+Z2Efr5JmqlaXmiy947MoRQlQ4bqPxC4re6bGePxu379hpxQ2t27ZNKylc+Baz5r0s0fSi02bY3zHN7uEru433Xm68PZrh5WTEGcmaOYNJ/X7VTS+YIz12PELCzb+MGdKKZqK5HmXmrDny1deL7UsLvQ+1OEKIZj7SbCsvPF9NcueO6jYZ27k6FiH58ppgqT27xlY91v2TJk+VZcaCqd4rdaTiE4/FWj96hT179kqXbj2l2L33yJ69++SESSnct3cPyZnz+lrjRD9PPkMAAhCAAAQg4JlAohNCols/OKftj2vM99+vlVbvdYxVCHH61KUjhLhvi+t6bEKIuqp88skQ65/80cfdrCWKe/rcPHlyS9cufawLywsm1oi6nrxU+3XRjDrJkt0k9957t3EZGew6LXWZUeFkxcp5rm3eVrwJIQvmLxYNxKqxTfT8o5dAhJA2bbrKtytX26489Vulcm0bY+TrRdMlR46rAf0cISSDCTo7Y+bn8m7LDrJt21+WU68PO4pm1YleFn29TPYfOGg3LzHxUnbs2G3dfzTmi5ZSpR6Q4iYALlljLI6Q+1/z5bNkd8SxWMetIkidoiXk9iw5otT969hhmbLtF7/EkIIZssjQii9GaR9fH7797nsTG2SiFMifX7p0bm9jJahArLEP1JrKKY4Qop9VDHnqyYpWNPEmIjvtoi+3b98h/QcOlvMmXknLls3tpC96Hf2sx9PMIBERp0zwyJMyzsRN0Dfld999l7Ru1TLBXYc8neP13rbHuMVcMKnF8+XJLqmNVV18lHPnL8i+A0dMKvqbpcB1cI9xXLb0nmv4an0bP0PH6Qghn30+XlavXmN+09NJi+Zvyp133O43Bg3U27FTN3vP9+zeJc5CivuBNM7NkKEj5Gh4uAQav2T2nHmyYOHX0qzp63LwYJjMm79QvLmquR+bdQhAAAIQgAAEEgcBhJD/LELq1q0pb7wZ6Yri76UZOmSMTb/rSwjRAK8ffzzYZlno17+nK7uLuxByzz1F7URCLUOeefYp2WKCt7Zo3tYEI7zXigA//fSzFT3Spk1j6z326HPWSmPylDGxnmp0ISQ8/LiJP5JRZsyYJxo0VmOP3HN3zGj3q1evFXXfKV+hjKRLG1OIaPX+W5Ily9U3jo4IpcKNTrZ038KvprrOT4WK2rVes4FZNWOMe3EXQlTcOXPmrE0vrC426qYyYECvKDFStO1bJg7JehOPxFtRSxu1KkEI8Uboxt5ec8EXcuHypVgH2aH0k/JwHs/uZWsP7JLeP30Tax8pk98sM59rGGu9a63wvy1b5dNBQ61lXPdunawYon1q0NR9+/bJ+0ZwcMQQRwjRCam6Euw1b6x1qZM2FVH8KYsWLxWd7KnIUqrkg3LPPXf9J3REmOVJY91wSiJMYFTNnqH/NB2sp/JS7Rel8tNPedoVUtu27zpgf78LF8zjl6VbIHCuXPlXduw+YIWnIoX8s+QL5Die2ixeslSmz5htd2mMGL1nnFTMjhCiLzRGjBwjmzb/Zv9ONDKxZsqUKe2puxjb9J5u266THD5yxO5z7vUYFf3YoOehJVOmjKLBhuMqEGpbdU/TFxKDP+0nGgvs/TbtDXex/WXIED8WP3pcCgQgAAEIQAACwSGQ6IQQnZinTZMmxuiumIegv/78x26/887bYuzXDTpx37fvQEAWIfEVI0QflN59t6OJjdExymReY6L8tnmLcf8wE5P/3HScQTmWFYMG95FDh47YuBqffNJdHjNBVf/4429jyttMypd/WAYM/NBp4nXpCCH16tWSS+bN8dw5X8mSpbNk2tQ5Mnx4pOuN18Y+dsw3mWfy/Bc75ISJVaAWLEePhkt9E2tFXY/UMmTqtLGuuCdOPJXnjPtPly5tovQcXQjRnTr5at++p+1HLUXUnUZTADtlxYpV5i1cpG/2/HmL5Z9/dtjrfu+9d9kq999fzLyNvtMlhFSuUjFKjJB58yID3On5JNOnV1POm7epmo3HnxghtgH/S7QEqs0d69e5TXmmgaRL4fnt/OmLF6TOVxP86md+9cZ+1Qu00l9//S39BgyyEy51HVRBQyeas2bPM24Ii+xksrGZfDpuhY4QktzUHT5skBVL1vy41k746r5c2765ju1cevf5WP76O/I311vdlClTSKaMmUyWmIx2UuksM5lgllfM782kKdNsPKHuXTuZWEMJOzH3ds7Xa/s/O/fbQ996S954PYWEOo4zCHVHnWjcTFau/M4KMK81rC/lHyln7tWLMYQQbaP1xxv3mFWrIq0Hqz//nDxf7VmnO5/LLUYMXPndKtHvg2bKCbTcbAKu3nJLIfP34Xm/hUH3Y23cuEkGDx0upR8qJW80i/zuq6WWWmzpWHRMFAhAAAIQgAAEEjeBRCeE3H57EY8+5fqma9Om3+2D1v333+uR6okTEdadJLYYIe6NHdeYtMbqIUOGdO67Yl2PiDhtzcF9WYRoJzop0TezThk79kvZsH6jFUHUfSN62bjxNxk8aJQxKx5q09BWqVxTypUrbYWP8eOnilqivPveG/LKK7WiN43yWR84NV3tbJOC1ynZsmU12VwmyZgxX9o4JE2aNpCKFSs4u11LFWP27N5nM9PkzJXdtd1ZKVSogOst2ujR42XM6Ak2cOvEiaNkxfJVNjVv06avivav5vLPPvOytfQYOWqAPPjgfU43dulJCNEdavLfyQSGXfbNtzZ4qrrJeCr+xAjx1M7bNoQQb2SSzvYbSQjRSd/AQUNsfCH3K5A7Vy45GBYm5cqWkdcbvRrlN8ZdCBk7ZoRt9q2ZQE6aPM2KjGXLPCyvNqgnKmR4KzrZ27V7t7VKS5s2nY1HpNZh6tag1mn6mxnbW3mNB7Hy21VyS6FCJshzO5dQ4+2YN/L2hBIoEuo4eq3UsmL4yNE2zbP+jWtQ/xWTQau8vYzehBDnGs+dt8C6k+jnKpWfMhaD8eNept8FFelvMtaK2bJmdQ4f8FL/rnbq0t3Esjpog6NqkFQt6h7ToVNX+33p/0lf893yLLAGfGAaQgACEIAABCAQVAKJTghJ6BghGrB09qwFFqo+4GzcuNm8sfrXpnD1N8hfHeNWoxYanopO5tViwin6FuuVuk3ttqnTPjNvUaOa0KqJbsaMGeT06TP2gUrbNWvaygRl/U0WLpxirCn62ECpC8y6pqiNXjQY62oTK2XV92tE0/ueNKbrWjRd76smk8tzJkuMPqBp9hbNnOJJmND6cYkRopY4jRq1kO7d2spdxgpDPz/1ZA0T+DSredCdLBMmTJVhQ8famB3usU70OFq8CSG6T6/JQJPyuHHj+vaNs26LXnwJIZp+WB/Io5e6dZrYTRMnjYoxOdOsOAUL+uc+EL1fPicOAjeKa8y6dRtkzGefW/HiherVZM7c+fb7W6pkCflhzVpJkya1CdDY01pkuJP3JITo/j9MVheNjXDapNdWF5nmbzfzO7ijii7btv0p+Yxlx+23R7XKG/ipEWpMHBGNB+I+AdTfo46duxq3nHz2zbknNzv3876R128015htf/xpY4AcMplX9O9WfRN0tEKFR1yXMDYhRCuqODfhy8n2ZUFcLENcB/FjRf8etWjZynxX0sjwoZ/60cJ3FRX2VOBTCyeNVeJYYWmrwUOGy8ZfN8mLNaob8b+K747YCwEIQAACEIDAdSUQ8kKIQ18Fi65d+sqSJSusxcLwEf3NA85VKw6nXlyXf/21XZxJtz9t1VpCxQn3ou4amnGl4Wt1ZdLE6VK06O0y7vOh7lVc6+oi8vJLkaa6muI2c+ZM9m3Ye63eFI2D4pSmTd+Tjb9slsVLZljBwtnuLLUP7cvfrDE64dFJmVMc955P+vWwVilHjhw18Q16W8sWp46z9CWEOHV8LX0JId7alSpZ0e5a+9NSr6mAvbVle+IncCMES9UYHTNmzrauWxp4sly5MtKo8RvWCmOEcXeZMnWGfLNsuahlSOv3W5rvcTbXhfEmhGgFFTRUuNAJrMZnaNq4kaudrxUNDKkxQzxN8pq3eE80I8jwoYOi/A5of/rdV1HU3SrO13Fu1H03SrDUc0bwmj5jlnUD0ftMs7g0axYz9ow/Qohea73PtT8t0ePJqMXJz79stPsC/d/5c+dlwsTJRqBLYa2gPPVT8sEH7X5P+9y36fl8YOKUaEDg9997xwQyj2rRuXPnLunRKzLmSK8eXY3IGPNlhXt/rEMAAhCAAAQgcP0IJDohRN8seRIg9IHr4sVLlpQ3c261tlBBIy6uMdqhPrBp8NJVq9bYh/UWJtBmjhwx3UG8XaY7jTBRuHBBj7sPHAiTTweOdO379tvV9u3Xo4+VMxOcZK7t+oZWg6J6iv2h8TKqPVdXjh07Yd8M+3KLUU5tWneVMmVLWZeXKZNnybhxkyS6EFL56Vo23oAGJ9W4I3/88ZfrXHRl1MgvbHwSDTqaJUsm174M6dPL409Emj67NnpYUfeepk3etVYcahGjcV3U+sJTSYpCyNmz52XDz7/b4ZR88J4Ykz9P42RbwhG4EdLn9uv/qfz9z3Z5642mxprqXvu74QghI4dHZpGaOGmqLF+x0gYn/rBnd9d96EsI0atw6tQp+Xz8RHnt1XrGFTG9XxfGSdv79pvNpKSxSHEvvoQQ93qhvH4jpM9VK5AxY8fZIKF6LStVfNy6tKRIEdPFyl8hRPuZNn2mEeUjAxM3bdJIyjwcGUBVRbQ2bTtolXgtAwd8LJlNXJvYyrTps8x5LrXfx/datvBY/cuJU0xw829txqQ277/rsQ4bIQABCEAAAhC4/gQSjRAyadIM2brlT69EVOBQNxZ9q/jUU497rac77i12l7z8cg2fdZydGtiz94cDZMOGX51NcV6+805TGyQ0toZ6/iq4VK5cUXr2ivpwp7E8Zs6cb+OAeHKzUTFDA59qUbeY3LlzxnY4u98JluouhKjbjWaeKVb8biOSDBEnxoc/HcYlfkaD+m/K1q2R17TvR109xiLRYwZbCNGYJMeNaHTx0kVZsniFx2EpTy1qZeMES3WvWLlKJa/iltZb+9Nm+XXTNtukePE7pOzD97s3Z/06E/jl0F7ptmZxgpxFt7KVpUTO4LtS/fjjT5Irdy4pUvgWOw5H3NC4HI4QotuGDR9lrZrefCPS3UsrO3U1WKoTI8R2cg3/69a9l4kZsse6A+TPny9KTwghUXB4/HDGiKcHwo5KCpPatmA8pbbdbVL06guDPLmymaDjV9MpezyhADZu37FTNIiuuo1qZphi0Swi3LuMixCi9+tn474wadB3SdsP3rfuodqXurXMmj3Xvds4r1+8eNG4kf1o3XceKVfWY/vatWoYETFmkHb3ymt/WicqBup3qqex9tC0957K2bMm65nJKKMvAJo0fk00Hg8FAhCAAAQgAIHERyDRCCGxoVGT1EfKVbUPMz+uXRJb9Vj36+Rbg5Zq9hAVWbRoytdGjV6R/AXyxtp+2TffyVdfLbUm36NGDxANHuqr6MOppo/VLDCzZo+PImT8+uvv1nriNhModvLk0R67UZedTh0/tAEKFyyc7HpQ9FjZbaMnIWSdSTv7tkk/62RwcYSQZ555yoojbs1dq2qVoul2/RVC9CH4jTda2cw46jKz9JvZkjq15wfzYAkhNWs9L2eMyLPcBGvVIK358+eVdm27u8YQlxV16XnMWO14K79s3Crr1v9md6tFiP6jJB4COrF6c9kM2X/6anye+Di7vOkyyohKtRLE7cMRN9yFEB2TTvQ045F7TCOnbrCEELUgadW6nf2tHDFscAw3An+EEI334x5PIT6uR2Lv0xEqcmbPLBnSx0xLfi3nH3HqjBw6cjxehRY9Pw2ie9ttRUxw8ajxraKfe1yEEG2r98cZ417lj4WS9v3b77/LgyUeiH7YGJ+DESPkn+3b5aOPB9jv2jNVq0jNF6vHOI77hrU/rTeiyViber5jh7ZeRRP3NqxDAAIQgAAEIJCwBBKFEDLLBCv91zwE+SqXLl2W/v2HWbeZNm08m6RGb68TY09FJ/4Txk+zEe8180FDE0RU/Z41I4u65bz00gvyugnO6T6xcPrRh7UhJmvLxC+nWxFk5Kj+Vhxw9ntbTp0y256/Ts5btXpLypZ7yL7FVYuJ5m9/YI8/fEQ/ue++mBlxNAWvxuw4duy47V5dUz7+uJu3Q0XZ7kkIGTx4tHw5YZo4liyOENK16wfyrAmm6qk4QpQ/QogGm+3Yoae14HH60nPu27erR7enQIUQjXGw6df/mQw4482bxN3OoUwQu9zS5oMWcmuRW4xY4dm/vFfPfrZ+x46tTDaBqy5KTicPPVTCBph1PkdfqjC0ddsOu/muooVdGXSi1+Pz9SOwau8/0m/DSrnJ/Pev+S+YxemzdcnHpUL+W4PZtde+HHEjuhDiqYFTN1hCiMYq+XrREnmoVElxtzxxjh2bEKK/H++3aW/fjtetU9tpFnLLU6fPStjhY+a3P5kUyJvTLoMBQd1C9+w/ZISqK5IrRxZJn863dUMwjhlbH3EVQmLrz9mvf4PVbWzrtj/k6acqmbgiNX0KkdcqhBw9etTE/ehr44KUMMJL87ea+Tyec56DBg8zVoObbeyezh3beQ327dRnCQEIQAACEIBAwhJIFEJI2TJPu+J/BHP469Yv8/jAMsGIAMOGjpFqz1eVN998TbJmzWIPq7EyenT/RP78828bZLRZs1elxovPud5irjeWFMOGfSb/+982awGiVgPeYoNEH4e2nTJllvxgMrnog5wes1KlR2XRomU2vWyPHu2lStVK0ZvZz63e6yjfm0wwuv+vP/+Rv//eIZ06t5bnn489Kr0nIUSDt2oQ16nTxsqttxZ2ucYESwjp32+YTJ1qgjwaUanlu2+Y9TlyYP9BqVHjWdFUw9FLXIUQvU7vt+okYWGHXV3pdXj88fLyhEkFrPFIYisES42NUNLfr9JHlx8WyabD++JlMPflyCc9ylUxMkvCFEfcSGghRANDaoBIFTO6dulgU+FGH3FsQsj+AwekY6ducucdtxsrrdbRm4fU5/3GPUZjDKU1lnJ5cmUNytgPhIXLGRuwOpXkNW4xiaHElxCiY/tx7U8mYPgEGzNL09eqOOcpTonWvRYh5NixY9J/4GDZt2+/dVFr+0HrGNZQegxPRV+u9Pmon+w27mSFChWU9ua+1+8uBQIQgAAEIACBxEEgUQghahWhD/m+ij5UNWnc0lpRjPt8iK+qrn13m1Sunoq+zde0qioCRC/qJvPFF1PkM+M2o+4shYsUMllfXjSCxXL55ZdN9s3/q6++LI1er+f3A5H7MXTyPnnSTOMCM9O1OWfO7NKnbxebXta18b+ViRNnyKBPR9rzmDBhhBUU6pvYGyoyfDF+mBQxVg++SnQhRAWJatVesemBJ3w5wjYNlkXIhQsXZOCAETbWiXbcwYgeLxjxY9++A/baHT581ASQu1NamJgqJUtejamhwpByUbN5TymBo49PY5xUfKK6vX5PVDTixxMV/BaknL4QQhwSN/byyNnT8s6K2XLq4vmgDjR9ilQy+Ikakj1NuqD266uz6yGEqIAxaPBw49J3yGeAyNiEkE2bfzNZo4ZKubJlpPHrDX0N84bfp9aNe/cflsvmdy9zpvSSLUvGaxrz0WMn5fiJUzZ2Rf68OczfqOTX1F+wGsenEKLnuHXrNhkybKQRlc7aWCXvtHjLo2VeoEKIppoePmKUTUGfPXs2UauOjBnjdq3UirPnh32NNecxI9DfYa1J/HH9CdY1oB8IQAACEIAABLwTSBRCiPfTu7rHcc3QrDLBiBFyteeYazphX7BgsYwc8XkMgUaDa1avXlXy5csTs2EsW8LDjxvriFkyc8Z8awWiD1dZsma2Vh7atJRxx2hiXHIeKFHcHne4CY76xeeTbWyN8ROGu0SP2bMXSp/eA22ckAEDe3l0p3FOxXGDcYKlqqii4oq6jtSuHenn7Agh1V94Rh54oJjTNMpSRSF1J/HmGqOuKeoOo5YmWtQSpF69Wq4+VHhSa5vNm/9nt6mLkMbg0DEXLlzIxkyJS3pNzSag/AItCCGBkkt67X47csBahlz+17f7nb8jS26yPaklSLHscf8N8PcYnuolpBCix1q3foOMnzDRTDTPWRFEs8WkTJnS06nZ+CE62evetZMULBgzXtLoMePsW/w6L9Uywa49W7557PgG3XjWpHTVwKmq/6sbS45sma24HZfhqguiZqJRdxsTQ9wGSE3jJQ5TXPoNVt34FkL0PHfu2mVjd6j1xQMP3CfvNH8rxukHIoQsX77SpKeebsWqvHnySMt33jKpcP0LUB79BPbs3WtedHxiv0dqCfr2W2+4AiBHr8tnCEAAAhCAAAQSjsB1FULWm/gNGjvDn6JWA6tXr7WuLuXLl/Gnia3zcp0aUqpU1IBq2pe+qQk/ekyOmvgbGoMj7OBh2bL1D9li3F40oKlTdMJ+1913yP9+3yb7jTWFUzSw6r33FrVWCdmyZbWChj7k6OTc3V1Gj/Pdd2tk5YrvZf36X6yViQYPrV//JalXv7YVOVau/N6kqx0v27fvtN0PG/6JfLVwqXz99TfWlLZPn85SvkLUMfft86lobBWdmPQyGWjcU9r+9tsWUasJHWe/fkNlz+59xqe6h+FQQp6p+pI1cV+0eIbLZ9kRQpyx+Vp6EkJ+/nmTvNuyvYlzct6OR0WWatU8u+1o5pxJRohR9yKdbDlFmWjK4nQmG0H6dGltP/ogrVYmGghSLUnatmvpVI91qYFwP/8vM4ynytq3Fs3g4E2A6datnU3F7Kk925IWgQ0H90jfdcvkwpXL1pXl6p3n3zjU/UXbpEyWXNo9VElK5o452fevp8BrJYQQohZxmq3m68VL5MCByN+7Rx4pa9Ls1rcWW97OfvyESfLtd6tsPITixe5xCSZ6ztu375B/zD9d79m9iwliHDXjjLc+b/Tt6sqi8UJU0NCYIVmNZUhGPwOonjSBUcONJYjGBFHrQI0Loq42iakkhBCi491iLEPU2qh+vTpS/pFyVnDQ7alSpbS/7evX/ywjRo2x6XE1TW5sZfKUafLNsshsY5omunGjhtfs0qLfpaHDR5pniAPWauV10+fDpUvFdirshwAEIAABCEAgHglcVyFk4YIl0r177A8m1zL+6HEvjh4Nl2rP1TUT7MiJcPS+M2bMYIWT0qUflNIPl7SBN506u3fvlTUmxseaH9fJLz9vtoKCs89ZarDTsZ8Ncj7KgAHDZcrkWfazBvHU1Lm1aj8fw5pBH4aXLl0h/5j4H7q/5osN7WRi4MAPvWZyGTXyC5v5JvoxHXcY5yQ0IOzSb2YaX+V98lrD5lKuXGnzFq2rs9sVI6RylYpG3LnLtd19Rd2JPh040qNFiKYJrPFCA5PqM6f07t3Jr+CxGhfk229/MJH/t8hOY02yc+du1wOs+3GddbUuUSsTf4umx/UlhPjTj947lZ58zJ+q1EkCBPZEHJchG1fJtvBDAZ1t0aw5pcUDFaRAhswBtb/WRgkhhKxevUY++3y8PdXbbi1i4vpUl7uKenYxdB/PdpNWdeTIMXL4yFUR2X2/Cp3lyz8iahFCuUrggrG0O2wyvZwzYq8WFURSGXE7VaoUZmn+maWW8+dNZiDzNytyecEKILo9tZns5zAZaFIaQTexlYQSQnTc+jLDifU1d94CmTd/ocWhwYLVBUnL448/Kg3q1bXrvv7307r1ohZML5p7v2qVp31VjdM+tWr9YvxE+WXjr9bNBkEwTvioDAEIQAACEAg6gesqhKi7hfr3xmdJkyaNfevvfowhJmuKBhzNbSbuuXPn+m+Z007k9bO+YYut6LmHhR2Sgwedf2E2zkXxYnfbtLRO+5MnI2TM6AnWsqCY2efN+sCp7ywXGouQ4sXvNmbm+Z1NHpdqFfLgg/dFER/+/PNvWfT1Mlu/gGmvQVlV4NHy2+Yt5oH6QpQYHXOMq82cOV9JkyYNYlie2Ebmf/pQ2/j1d2waQHcRxdm/adPvJu7InUa8iXxwd7b7u9RJ3rFjJ2z6xLNnzprAf2flgpkcOG/uNT2xP/FD/D0e9UKTgN5nq/Ztl0lbNsjBMxF+QcidNoO8cndJqZCviN/fX786jmMlPffOXXvYiXLnTu1jbf1hn4+tFYcGaYxLmT1nnrF0KyL3FffsJuerL3VVOHgwLEoVjYlQ9M47PMZviFIxhD+oe0v48Qi/g4arJVvWzBkSRXYYb5dNxfOOnbvb3R/27Jpg119jh4wd94XrtPQZoHixe6VixcclW1b/gtOq5UbevHlcfQRz5WBYmOTOlSuYXdIXBCAAAQhAAAIBELiuQkgA50sTCEAAAtdMQOOF7Is4ITtOhsuOE0dl54lw2W6WNxkNtHDGbHJLpqxSOJNxc8uYVfJlyCQaF4QCgfgkYHQuuWjEAxWd1frDWeox1TpERWZnmcLEytJ7lQIBCEAAAhCAAAQgEBgBhJDAuNEKAhCAAAQgAAEIQAACEIAABCAAgSRIACEkCV40ThkCEIAABCAAAQhAAAIQgAAEIACBwAgghATGjVYQgAAEIAABCEAAAhCAAAQgAAEIJEECCCFJ8KJxyhCAAAQgAAEIQAACEIAABCAAAQgERgAhJDButIIABCAAAQhAAAIQgAAEIAABCEAgCRJACEmCF41ThgAEIAABCEAAAhCAAAQgAAEIQCAwAgghgXGjFQQgAAEIQAACEIAABCAAAQhAAAJJkABCSBK8aJwyBCAAAQhAAAIQgAAEIAABCEAAAoERQAgJjButIAABCEAAAhCAAAQgAAEIQAACEEiCBBBCkuBF45QhAAEIQAACEIAABCAAAQhAAAIQCIwAQkhg3GgFAQhAAAIQgAAEIAABCEAAAhCAQBIkgBCSBC8apwwBCEAAAhCAAAQgAAEIQAACEIBAYAQQQgLjRisIQAACEIAABCAAAQhAAAIQgAAEkiABhJAkeNE4ZQhAAAIQgAAEIAABCEAAAhCAAAQCI4AQEhg3WkEAAhCAAAQgAAEIQAACEIAABCCQBAkghCTBi8YpQwACEIAABCAAAQhAAAIQgAAEIBAYAYSQwLjRCgIQgAAEIAABCEAAAhCAAAQgAIEkSAAhJAleNE4ZAhCAAAQgAAEIQAACEIAABCAAgcAIIIQExo1WEIAABCAAAQhAAAIQgAAEIAABCCRBAgghSfCiccoQgAAEIAABCEAAAhCAAAQgAAEIBEYAISQwbrSCAAQgAAEIQAACEIAABCAAAQhAIAkSQAhJgheNU4YABCAAAQhAAAIQgAAEIAABCEAgMAL/B0nthuNJbLVnAAAAAElFTkSuQmCC;labelBorderColor=default;imageBorder=default;" parent="1" vertex="1">
          <mxGeometry x="20" y="399" width="336.04" height="179" as="geometry" />
        </mxCell>
        <mxCell id="WBLi1INXIJSRg-8CLd7y-2" value="&lt;span style=&quot;font-size: 12px; text-align: left; white-space: normal; background-color: rgb(251, 251, 251);&quot;&gt;c_name&amp;nbsp;&lt;/span&gt;&lt;span style=&quot;font-size: 12px; text-align: left; white-space: normal; background-color: rgb(251, 251, 251);&quot;&gt;存在于字段模版，需新增联系人信息&lt;/span&gt;" style="edgeLabel;html=1;align=center;verticalAlign=middle;resizable=0;points=[];imageWidth=90;" vertex="1" connectable="0" parent="1">
          <mxGeometry x="509.9980571315209" y="218.00429726798419" as="geometry">
            <mxPoint x="4" y="10" as="offset" />
          </mxGeometry>
        </mxCell>
      </root>
    </mxGraphModel>
  </diagram>
</mxfile>
